G04 #@! TF.GenerationSoftware,KiCad,Pcbnew,(5.1.5-0-10_14)*
G04 #@! TF.CreationDate,2020-02-11T13:30:23+00:00*
G04 #@! TF.ProjectId,K1889054_A2000_01,4b313838-3930-4353-945f-41323030305f,1.0*
G04 #@! TF.SameCoordinates,Original*
G04 #@! TF.FileFunction,Legend,Top*
G04 #@! TF.FilePolarity,Positive*
%FSLAX46Y46*%
G04 Gerber Fmt 4.6, Leading zero omitted, Abs format (unit mm)*
G04 Created by KiCad (PCBNEW (5.1.5-0-10_14)) date 2020-02-11 13:30:23*
%MOMM*%
%LPD*%
G04 APERTURE LIST*
%ADD10C,0.500000*%
%ADD11C,0.120000*%
%ADD12C,0.150000*%
%ADD13C,0.200000*%
G04 APERTURE END LIST*
D10*
X128780000Y-106780000D02*
G75*
G03X128780000Y-106780000I-250000J0D01*
G01*
D11*
X134310000Y-103490000D02*
X134310000Y-101540000D01*
X134310000Y-103490000D02*
X134310000Y-105440000D01*
X129190000Y-105490000D02*
X129190000Y-101540000D01*
D12*
X104120000Y-104410000D02*
X115020000Y-104410000D01*
X104120000Y-92410000D02*
X115020000Y-92410000D01*
X115020000Y-92410000D02*
X115020000Y-104410000D01*
X104120000Y-104410000D02*
X104120000Y-92410000D01*
D11*
X137110302Y-86805000D02*
X137110302Y-87605000D01*
X136710302Y-87205000D02*
X137510302Y-87205000D01*
X145201000Y-88987000D02*
X145201000Y-90053000D01*
X145161000Y-88752000D02*
X145161000Y-90288000D01*
X145121000Y-88572000D02*
X145121000Y-90468000D01*
X145081000Y-88422000D02*
X145081000Y-90618000D01*
X145041000Y-88291000D02*
X145041000Y-90749000D01*
X145001000Y-88174000D02*
X145001000Y-90866000D01*
X144961000Y-88067000D02*
X144961000Y-90973000D01*
X144921000Y-87968000D02*
X144921000Y-91072000D01*
X144881000Y-87875000D02*
X144881000Y-91165000D01*
X144841000Y-87789000D02*
X144841000Y-91251000D01*
X144801000Y-87707000D02*
X144801000Y-91333000D01*
X144761000Y-87630000D02*
X144761000Y-91410000D01*
X144721000Y-87556000D02*
X144721000Y-91484000D01*
X144681000Y-87486000D02*
X144681000Y-91554000D01*
X144641000Y-87418000D02*
X144641000Y-91622000D01*
X144601000Y-87354000D02*
X144601000Y-91686000D01*
X144561000Y-87292000D02*
X144561000Y-91748000D01*
X144521000Y-87233000D02*
X144521000Y-91807000D01*
X144481000Y-87175000D02*
X144481000Y-91865000D01*
X144441000Y-87120000D02*
X144441000Y-91920000D01*
X144401000Y-87066000D02*
X144401000Y-91974000D01*
X144361000Y-87015000D02*
X144361000Y-92025000D01*
X144321000Y-86964000D02*
X144321000Y-92076000D01*
X144281000Y-86916000D02*
X144281000Y-92124000D01*
X144241000Y-86869000D02*
X144241000Y-92171000D01*
X144201000Y-86823000D02*
X144201000Y-92217000D01*
X144161000Y-86779000D02*
X144161000Y-92261000D01*
X144121000Y-86736000D02*
X144121000Y-92304000D01*
X144081000Y-86694000D02*
X144081000Y-92346000D01*
X144041000Y-86653000D02*
X144041000Y-92387000D01*
X144001000Y-86613000D02*
X144001000Y-92427000D01*
X143961000Y-86575000D02*
X143961000Y-92465000D01*
X143921000Y-86537000D02*
X143921000Y-92503000D01*
X143881000Y-90560000D02*
X143881000Y-92539000D01*
X143881000Y-86501000D02*
X143881000Y-88480000D01*
X143841000Y-90560000D02*
X143841000Y-92575000D01*
X143841000Y-86465000D02*
X143841000Y-88480000D01*
X143801000Y-90560000D02*
X143801000Y-92610000D01*
X143801000Y-86430000D02*
X143801000Y-88480000D01*
X143761000Y-90560000D02*
X143761000Y-92644000D01*
X143761000Y-86396000D02*
X143761000Y-88480000D01*
X143721000Y-90560000D02*
X143721000Y-92676000D01*
X143721000Y-86364000D02*
X143721000Y-88480000D01*
X143681000Y-90560000D02*
X143681000Y-92709000D01*
X143681000Y-86331000D02*
X143681000Y-88480000D01*
X143641000Y-90560000D02*
X143641000Y-92740000D01*
X143641000Y-86300000D02*
X143641000Y-88480000D01*
X143601000Y-90560000D02*
X143601000Y-92770000D01*
X143601000Y-86270000D02*
X143601000Y-88480000D01*
X143561000Y-90560000D02*
X143561000Y-92800000D01*
X143561000Y-86240000D02*
X143561000Y-88480000D01*
X143521000Y-90560000D02*
X143521000Y-92829000D01*
X143521000Y-86211000D02*
X143521000Y-88480000D01*
X143481000Y-90560000D02*
X143481000Y-92858000D01*
X143481000Y-86182000D02*
X143481000Y-88480000D01*
X143441000Y-90560000D02*
X143441000Y-92885000D01*
X143441000Y-86155000D02*
X143441000Y-88480000D01*
X143401000Y-90560000D02*
X143401000Y-92912000D01*
X143401000Y-86128000D02*
X143401000Y-88480000D01*
X143361000Y-90560000D02*
X143361000Y-92938000D01*
X143361000Y-86102000D02*
X143361000Y-88480000D01*
X143321000Y-90560000D02*
X143321000Y-92964000D01*
X143321000Y-86076000D02*
X143321000Y-88480000D01*
X143281000Y-90560000D02*
X143281000Y-92989000D01*
X143281000Y-86051000D02*
X143281000Y-88480000D01*
X143241000Y-90560000D02*
X143241000Y-93013000D01*
X143241000Y-86027000D02*
X143241000Y-88480000D01*
X143201000Y-90560000D02*
X143201000Y-93037000D01*
X143201000Y-86003000D02*
X143201000Y-88480000D01*
X143161000Y-90560000D02*
X143161000Y-93060000D01*
X143161000Y-85980000D02*
X143161000Y-88480000D01*
X143121000Y-90560000D02*
X143121000Y-93082000D01*
X143121000Y-85958000D02*
X143121000Y-88480000D01*
X143081000Y-90560000D02*
X143081000Y-93104000D01*
X143081000Y-85936000D02*
X143081000Y-88480000D01*
X143041000Y-90560000D02*
X143041000Y-93126000D01*
X143041000Y-85914000D02*
X143041000Y-88480000D01*
X143001000Y-90560000D02*
X143001000Y-93147000D01*
X143001000Y-85893000D02*
X143001000Y-88480000D01*
X142961000Y-90560000D02*
X142961000Y-93167000D01*
X142961000Y-85873000D02*
X142961000Y-88480000D01*
X142921000Y-90560000D02*
X142921000Y-93186000D01*
X142921000Y-85854000D02*
X142921000Y-88480000D01*
X142881000Y-90560000D02*
X142881000Y-93206000D01*
X142881000Y-85834000D02*
X142881000Y-88480000D01*
X142841000Y-90560000D02*
X142841000Y-93224000D01*
X142841000Y-85816000D02*
X142841000Y-88480000D01*
X142801000Y-90560000D02*
X142801000Y-93242000D01*
X142801000Y-85798000D02*
X142801000Y-88480000D01*
X142761000Y-90560000D02*
X142761000Y-93260000D01*
X142761000Y-85780000D02*
X142761000Y-88480000D01*
X142721000Y-90560000D02*
X142721000Y-93277000D01*
X142721000Y-85763000D02*
X142721000Y-88480000D01*
X142681000Y-90560000D02*
X142681000Y-93294000D01*
X142681000Y-85746000D02*
X142681000Y-88480000D01*
X142641000Y-90560000D02*
X142641000Y-93310000D01*
X142641000Y-85730000D02*
X142641000Y-88480000D01*
X142601000Y-90560000D02*
X142601000Y-93325000D01*
X142601000Y-85715000D02*
X142601000Y-88480000D01*
X142561000Y-90560000D02*
X142561000Y-93341000D01*
X142561000Y-85699000D02*
X142561000Y-88480000D01*
X142521000Y-90560000D02*
X142521000Y-93355000D01*
X142521000Y-85685000D02*
X142521000Y-88480000D01*
X142481000Y-90560000D02*
X142481000Y-93370000D01*
X142481000Y-85670000D02*
X142481000Y-88480000D01*
X142441000Y-90560000D02*
X142441000Y-93383000D01*
X142441000Y-85657000D02*
X142441000Y-88480000D01*
X142401000Y-90560000D02*
X142401000Y-93397000D01*
X142401000Y-85643000D02*
X142401000Y-88480000D01*
X142361000Y-90560000D02*
X142361000Y-93409000D01*
X142361000Y-85631000D02*
X142361000Y-88480000D01*
X142321000Y-90560000D02*
X142321000Y-93422000D01*
X142321000Y-85618000D02*
X142321000Y-88480000D01*
X142281000Y-90560000D02*
X142281000Y-93434000D01*
X142281000Y-85606000D02*
X142281000Y-88480000D01*
X142241000Y-90560000D02*
X142241000Y-93445000D01*
X142241000Y-85595000D02*
X142241000Y-88480000D01*
X142201000Y-90560000D02*
X142201000Y-93456000D01*
X142201000Y-85584000D02*
X142201000Y-88480000D01*
X142161000Y-90560000D02*
X142161000Y-93467000D01*
X142161000Y-85573000D02*
X142161000Y-88480000D01*
X142121000Y-90560000D02*
X142121000Y-93477000D01*
X142121000Y-85563000D02*
X142121000Y-88480000D01*
X142081000Y-90560000D02*
X142081000Y-93487000D01*
X142081000Y-85553000D02*
X142081000Y-88480000D01*
X142041000Y-90560000D02*
X142041000Y-93496000D01*
X142041000Y-85544000D02*
X142041000Y-88480000D01*
X142001000Y-90560000D02*
X142001000Y-93505000D01*
X142001000Y-85535000D02*
X142001000Y-88480000D01*
X141961000Y-90560000D02*
X141961000Y-93514000D01*
X141961000Y-85526000D02*
X141961000Y-88480000D01*
X141921000Y-90560000D02*
X141921000Y-93522000D01*
X141921000Y-85518000D02*
X141921000Y-88480000D01*
X141881000Y-90560000D02*
X141881000Y-93530000D01*
X141881000Y-85510000D02*
X141881000Y-88480000D01*
X141841000Y-90560000D02*
X141841000Y-93537000D01*
X141841000Y-85503000D02*
X141841000Y-88480000D01*
X141800000Y-85496000D02*
X141800000Y-93544000D01*
X141760000Y-85490000D02*
X141760000Y-93550000D01*
X141720000Y-85483000D02*
X141720000Y-93557000D01*
X141680000Y-85478000D02*
X141680000Y-93562000D01*
X141640000Y-85472000D02*
X141640000Y-93568000D01*
X141600000Y-85468000D02*
X141600000Y-93572000D01*
X141560000Y-85463000D02*
X141560000Y-93577000D01*
X141520000Y-85459000D02*
X141520000Y-93581000D01*
X141480000Y-85455000D02*
X141480000Y-93585000D01*
X141440000Y-85452000D02*
X141440000Y-93588000D01*
X141400000Y-85449000D02*
X141400000Y-93591000D01*
X141360000Y-85446000D02*
X141360000Y-93594000D01*
X141320000Y-85444000D02*
X141320000Y-93596000D01*
X141280000Y-85443000D02*
X141280000Y-93597000D01*
X141240000Y-85441000D02*
X141240000Y-93599000D01*
X141200000Y-85440000D02*
X141200000Y-93600000D01*
X141160000Y-85440000D02*
X141160000Y-93600000D01*
X141120000Y-85440000D02*
X141120000Y-93600000D01*
X145240000Y-89520000D02*
G75*
G03X145240000Y-89520000I-4120000J0D01*
G01*
X127745000Y-87290000D02*
X127745000Y-97060000D01*
X117975000Y-87290000D02*
X117975000Y-97060000D01*
X127745000Y-87290000D02*
X117975000Y-87290000D01*
X127745000Y-97060000D02*
X117975000Y-97060000D01*
X141372064Y-111470000D02*
X140167936Y-111470000D01*
X141372064Y-113290000D02*
X140167936Y-113290000D01*
X140167936Y-109480000D02*
X141372064Y-109480000D01*
X140167936Y-107660000D02*
X141372064Y-107660000D01*
X113970000Y-106030000D02*
X113970000Y-111110000D01*
X111430000Y-106030000D02*
X113970000Y-106030000D01*
X111430000Y-111110000D02*
X111430000Y-106030000D01*
X113970000Y-111110000D02*
X111430000Y-111110000D01*
D12*
X156840000Y-89870000D02*
X145940000Y-89870000D01*
X156840000Y-101870000D02*
X145940000Y-101870000D01*
X145940000Y-101870000D02*
X145940000Y-89870000D01*
X156840000Y-89870000D02*
X156840000Y-101870000D01*
D13*
X127250000Y-111420000D02*
X127250000Y-113320000D01*
D11*
X125390000Y-113380000D02*
X129690000Y-113380000D01*
X125390000Y-111380000D02*
X125390000Y-113380000D01*
X129690000Y-111380000D02*
X125390000Y-111380000D01*
D13*
X120420000Y-111420000D02*
X120420000Y-113320000D01*
D11*
X118560000Y-113380000D02*
X122860000Y-113380000D01*
X118560000Y-111380000D02*
X118560000Y-113380000D01*
X122860000Y-111380000D02*
X118560000Y-111380000D01*
X134957936Y-113290000D02*
X136162064Y-113290000D01*
X134957936Y-111470000D02*
X136162064Y-111470000D01*
X135844775Y-91245000D02*
X135844775Y-90745000D01*
X136094775Y-90995000D02*
X135594775Y-90995000D01*
X130689000Y-89804000D02*
X130689000Y-89236000D01*
X130729000Y-90038000D02*
X130729000Y-89002000D01*
X130769000Y-90197000D02*
X130769000Y-88843000D01*
X130809000Y-90325000D02*
X130809000Y-88715000D01*
X130849000Y-90435000D02*
X130849000Y-88605000D01*
X130889000Y-90531000D02*
X130889000Y-88509000D01*
X130929000Y-90618000D02*
X130929000Y-88422000D01*
X130969000Y-90698000D02*
X130969000Y-88342000D01*
X131009000Y-90771000D02*
X131009000Y-88269000D01*
X131049000Y-90839000D02*
X131049000Y-88201000D01*
X131089000Y-90903000D02*
X131089000Y-88137000D01*
X131129000Y-90963000D02*
X131129000Y-88077000D01*
X131169000Y-91020000D02*
X131169000Y-88020000D01*
X131209000Y-91074000D02*
X131209000Y-87966000D01*
X131249000Y-91125000D02*
X131249000Y-87915000D01*
X131289000Y-88480000D02*
X131289000Y-87867000D01*
X131289000Y-91173000D02*
X131289000Y-90560000D01*
X131329000Y-88480000D02*
X131329000Y-87821000D01*
X131329000Y-91219000D02*
X131329000Y-90560000D01*
X131369000Y-88480000D02*
X131369000Y-87777000D01*
X131369000Y-91263000D02*
X131369000Y-90560000D01*
X131409000Y-88480000D02*
X131409000Y-87735000D01*
X131409000Y-91305000D02*
X131409000Y-90560000D01*
X131449000Y-88480000D02*
X131449000Y-87694000D01*
X131449000Y-91346000D02*
X131449000Y-90560000D01*
X131489000Y-88480000D02*
X131489000Y-87656000D01*
X131489000Y-91384000D02*
X131489000Y-90560000D01*
X131529000Y-88480000D02*
X131529000Y-87619000D01*
X131529000Y-91421000D02*
X131529000Y-90560000D01*
X131569000Y-88480000D02*
X131569000Y-87583000D01*
X131569000Y-91457000D02*
X131569000Y-90560000D01*
X131609000Y-88480000D02*
X131609000Y-87549000D01*
X131609000Y-91491000D02*
X131609000Y-90560000D01*
X131649000Y-88480000D02*
X131649000Y-87516000D01*
X131649000Y-91524000D02*
X131649000Y-90560000D01*
X131689000Y-88480000D02*
X131689000Y-87485000D01*
X131689000Y-91555000D02*
X131689000Y-90560000D01*
X131729000Y-88480000D02*
X131729000Y-87455000D01*
X131729000Y-91585000D02*
X131729000Y-90560000D01*
X131769000Y-88480000D02*
X131769000Y-87425000D01*
X131769000Y-91615000D02*
X131769000Y-90560000D01*
X131809000Y-88480000D02*
X131809000Y-87398000D01*
X131809000Y-91642000D02*
X131809000Y-90560000D01*
X131849000Y-88480000D02*
X131849000Y-87371000D01*
X131849000Y-91669000D02*
X131849000Y-90560000D01*
X131889000Y-88480000D02*
X131889000Y-87345000D01*
X131889000Y-91695000D02*
X131889000Y-90560000D01*
X131929000Y-88480000D02*
X131929000Y-87320000D01*
X131929000Y-91720000D02*
X131929000Y-90560000D01*
X131969000Y-88480000D02*
X131969000Y-87296000D01*
X131969000Y-91744000D02*
X131969000Y-90560000D01*
X132009000Y-88480000D02*
X132009000Y-87273000D01*
X132009000Y-91767000D02*
X132009000Y-90560000D01*
X132049000Y-88480000D02*
X132049000Y-87252000D01*
X132049000Y-91788000D02*
X132049000Y-90560000D01*
X132089000Y-88480000D02*
X132089000Y-87230000D01*
X132089000Y-91810000D02*
X132089000Y-90560000D01*
X132129000Y-88480000D02*
X132129000Y-87210000D01*
X132129000Y-91830000D02*
X132129000Y-90560000D01*
X132169000Y-88480000D02*
X132169000Y-87191000D01*
X132169000Y-91849000D02*
X132169000Y-90560000D01*
X132209000Y-88480000D02*
X132209000Y-87172000D01*
X132209000Y-91868000D02*
X132209000Y-90560000D01*
X132249000Y-88480000D02*
X132249000Y-87155000D01*
X132249000Y-91885000D02*
X132249000Y-90560000D01*
X132289000Y-88480000D02*
X132289000Y-87138000D01*
X132289000Y-91902000D02*
X132289000Y-90560000D01*
X132329000Y-88480000D02*
X132329000Y-87122000D01*
X132329000Y-91918000D02*
X132329000Y-90560000D01*
X132369000Y-88480000D02*
X132369000Y-87106000D01*
X132369000Y-91934000D02*
X132369000Y-90560000D01*
X132409000Y-88480000D02*
X132409000Y-87092000D01*
X132409000Y-91948000D02*
X132409000Y-90560000D01*
X132449000Y-88480000D02*
X132449000Y-87078000D01*
X132449000Y-91962000D02*
X132449000Y-90560000D01*
X132489000Y-88480000D02*
X132489000Y-87065000D01*
X132489000Y-91975000D02*
X132489000Y-90560000D01*
X132529000Y-88480000D02*
X132529000Y-87052000D01*
X132529000Y-91988000D02*
X132529000Y-90560000D01*
X132569000Y-88480000D02*
X132569000Y-87040000D01*
X132569000Y-92000000D02*
X132569000Y-90560000D01*
X132610000Y-88480000D02*
X132610000Y-87029000D01*
X132610000Y-92011000D02*
X132610000Y-90560000D01*
X132650000Y-88480000D02*
X132650000Y-87019000D01*
X132650000Y-92021000D02*
X132650000Y-90560000D01*
X132690000Y-88480000D02*
X132690000Y-87009000D01*
X132690000Y-92031000D02*
X132690000Y-90560000D01*
X132730000Y-88480000D02*
X132730000Y-87000000D01*
X132730000Y-92040000D02*
X132730000Y-90560000D01*
X132770000Y-88480000D02*
X132770000Y-86992000D01*
X132770000Y-92048000D02*
X132770000Y-90560000D01*
X132810000Y-88480000D02*
X132810000Y-86984000D01*
X132810000Y-92056000D02*
X132810000Y-90560000D01*
X132850000Y-88480000D02*
X132850000Y-86977000D01*
X132850000Y-92063000D02*
X132850000Y-90560000D01*
X132890000Y-88480000D02*
X132890000Y-86970000D01*
X132890000Y-92070000D02*
X132890000Y-90560000D01*
X132930000Y-88480000D02*
X132930000Y-86964000D01*
X132930000Y-92076000D02*
X132930000Y-90560000D01*
X132970000Y-88480000D02*
X132970000Y-86959000D01*
X132970000Y-92081000D02*
X132970000Y-90560000D01*
X133010000Y-88480000D02*
X133010000Y-86955000D01*
X133010000Y-92085000D02*
X133010000Y-90560000D01*
X133050000Y-88480000D02*
X133050000Y-86951000D01*
X133050000Y-92089000D02*
X133050000Y-90560000D01*
X133090000Y-88480000D02*
X133090000Y-86947000D01*
X133090000Y-92093000D02*
X133090000Y-90560000D01*
X133130000Y-88480000D02*
X133130000Y-86944000D01*
X133130000Y-92096000D02*
X133130000Y-90560000D01*
X133170000Y-88480000D02*
X133170000Y-86942000D01*
X133170000Y-92098000D02*
X133170000Y-90560000D01*
X133210000Y-88480000D02*
X133210000Y-86941000D01*
X133210000Y-92099000D02*
X133210000Y-90560000D01*
X133250000Y-92100000D02*
X133250000Y-90560000D01*
X133250000Y-88480000D02*
X133250000Y-86940000D01*
X133290000Y-92100000D02*
X133290000Y-90560000D01*
X133290000Y-88480000D02*
X133290000Y-86940000D01*
X135910000Y-89520000D02*
G75*
G03X135910000Y-89520000I-2620000J0D01*
G01*
X141372064Y-102580000D02*
X140167936Y-102580000D01*
X141372064Y-104400000D02*
X140167936Y-104400000D01*
X124414775Y-105215000D02*
X124414775Y-104715000D01*
X124664775Y-104965000D02*
X124164775Y-104965000D01*
X119259000Y-103774000D02*
X119259000Y-103206000D01*
X119299000Y-104008000D02*
X119299000Y-102972000D01*
X119339000Y-104167000D02*
X119339000Y-102813000D01*
X119379000Y-104295000D02*
X119379000Y-102685000D01*
X119419000Y-104405000D02*
X119419000Y-102575000D01*
X119459000Y-104501000D02*
X119459000Y-102479000D01*
X119499000Y-104588000D02*
X119499000Y-102392000D01*
X119539000Y-104668000D02*
X119539000Y-102312000D01*
X119579000Y-104741000D02*
X119579000Y-102239000D01*
X119619000Y-104809000D02*
X119619000Y-102171000D01*
X119659000Y-104873000D02*
X119659000Y-102107000D01*
X119699000Y-104933000D02*
X119699000Y-102047000D01*
X119739000Y-104990000D02*
X119739000Y-101990000D01*
X119779000Y-105044000D02*
X119779000Y-101936000D01*
X119819000Y-105095000D02*
X119819000Y-101885000D01*
X119859000Y-102450000D02*
X119859000Y-101837000D01*
X119859000Y-105143000D02*
X119859000Y-104530000D01*
X119899000Y-102450000D02*
X119899000Y-101791000D01*
X119899000Y-105189000D02*
X119899000Y-104530000D01*
X119939000Y-102450000D02*
X119939000Y-101747000D01*
X119939000Y-105233000D02*
X119939000Y-104530000D01*
X119979000Y-102450000D02*
X119979000Y-101705000D01*
X119979000Y-105275000D02*
X119979000Y-104530000D01*
X120019000Y-102450000D02*
X120019000Y-101664000D01*
X120019000Y-105316000D02*
X120019000Y-104530000D01*
X120059000Y-102450000D02*
X120059000Y-101626000D01*
X120059000Y-105354000D02*
X120059000Y-104530000D01*
X120099000Y-102450000D02*
X120099000Y-101589000D01*
X120099000Y-105391000D02*
X120099000Y-104530000D01*
X120139000Y-102450000D02*
X120139000Y-101553000D01*
X120139000Y-105427000D02*
X120139000Y-104530000D01*
X120179000Y-102450000D02*
X120179000Y-101519000D01*
X120179000Y-105461000D02*
X120179000Y-104530000D01*
X120219000Y-102450000D02*
X120219000Y-101486000D01*
X120219000Y-105494000D02*
X120219000Y-104530000D01*
X120259000Y-102450000D02*
X120259000Y-101455000D01*
X120259000Y-105525000D02*
X120259000Y-104530000D01*
X120299000Y-102450000D02*
X120299000Y-101425000D01*
X120299000Y-105555000D02*
X120299000Y-104530000D01*
X120339000Y-102450000D02*
X120339000Y-101395000D01*
X120339000Y-105585000D02*
X120339000Y-104530000D01*
X120379000Y-102450000D02*
X120379000Y-101368000D01*
X120379000Y-105612000D02*
X120379000Y-104530000D01*
X120419000Y-102450000D02*
X120419000Y-101341000D01*
X120419000Y-105639000D02*
X120419000Y-104530000D01*
X120459000Y-102450000D02*
X120459000Y-101315000D01*
X120459000Y-105665000D02*
X120459000Y-104530000D01*
X120499000Y-102450000D02*
X120499000Y-101290000D01*
X120499000Y-105690000D02*
X120499000Y-104530000D01*
X120539000Y-102450000D02*
X120539000Y-101266000D01*
X120539000Y-105714000D02*
X120539000Y-104530000D01*
X120579000Y-102450000D02*
X120579000Y-101243000D01*
X120579000Y-105737000D02*
X120579000Y-104530000D01*
X120619000Y-102450000D02*
X120619000Y-101222000D01*
X120619000Y-105758000D02*
X120619000Y-104530000D01*
X120659000Y-102450000D02*
X120659000Y-101200000D01*
X120659000Y-105780000D02*
X120659000Y-104530000D01*
X120699000Y-102450000D02*
X120699000Y-101180000D01*
X120699000Y-105800000D02*
X120699000Y-104530000D01*
X120739000Y-102450000D02*
X120739000Y-101161000D01*
X120739000Y-105819000D02*
X120739000Y-104530000D01*
X120779000Y-102450000D02*
X120779000Y-101142000D01*
X120779000Y-105838000D02*
X120779000Y-104530000D01*
X120819000Y-102450000D02*
X120819000Y-101125000D01*
X120819000Y-105855000D02*
X120819000Y-104530000D01*
X120859000Y-102450000D02*
X120859000Y-101108000D01*
X120859000Y-105872000D02*
X120859000Y-104530000D01*
X120899000Y-102450000D02*
X120899000Y-101092000D01*
X120899000Y-105888000D02*
X120899000Y-104530000D01*
X120939000Y-102450000D02*
X120939000Y-101076000D01*
X120939000Y-105904000D02*
X120939000Y-104530000D01*
X120979000Y-102450000D02*
X120979000Y-101062000D01*
X120979000Y-105918000D02*
X120979000Y-104530000D01*
X121019000Y-102450000D02*
X121019000Y-101048000D01*
X121019000Y-105932000D02*
X121019000Y-104530000D01*
X121059000Y-102450000D02*
X121059000Y-101035000D01*
X121059000Y-105945000D02*
X121059000Y-104530000D01*
X121099000Y-102450000D02*
X121099000Y-101022000D01*
X121099000Y-105958000D02*
X121099000Y-104530000D01*
X121139000Y-102450000D02*
X121139000Y-101010000D01*
X121139000Y-105970000D02*
X121139000Y-104530000D01*
X121180000Y-102450000D02*
X121180000Y-100999000D01*
X121180000Y-105981000D02*
X121180000Y-104530000D01*
X121220000Y-102450000D02*
X121220000Y-100989000D01*
X121220000Y-105991000D02*
X121220000Y-104530000D01*
X121260000Y-102450000D02*
X121260000Y-100979000D01*
X121260000Y-106001000D02*
X121260000Y-104530000D01*
X121300000Y-102450000D02*
X121300000Y-100970000D01*
X121300000Y-106010000D02*
X121300000Y-104530000D01*
X121340000Y-102450000D02*
X121340000Y-100962000D01*
X121340000Y-106018000D02*
X121340000Y-104530000D01*
X121380000Y-102450000D02*
X121380000Y-100954000D01*
X121380000Y-106026000D02*
X121380000Y-104530000D01*
X121420000Y-102450000D02*
X121420000Y-100947000D01*
X121420000Y-106033000D02*
X121420000Y-104530000D01*
X121460000Y-102450000D02*
X121460000Y-100940000D01*
X121460000Y-106040000D02*
X121460000Y-104530000D01*
X121500000Y-102450000D02*
X121500000Y-100934000D01*
X121500000Y-106046000D02*
X121500000Y-104530000D01*
X121540000Y-102450000D02*
X121540000Y-100929000D01*
X121540000Y-106051000D02*
X121540000Y-104530000D01*
X121580000Y-102450000D02*
X121580000Y-100925000D01*
X121580000Y-106055000D02*
X121580000Y-104530000D01*
X121620000Y-102450000D02*
X121620000Y-100921000D01*
X121620000Y-106059000D02*
X121620000Y-104530000D01*
X121660000Y-102450000D02*
X121660000Y-100917000D01*
X121660000Y-106063000D02*
X121660000Y-104530000D01*
X121700000Y-102450000D02*
X121700000Y-100914000D01*
X121700000Y-106066000D02*
X121700000Y-104530000D01*
X121740000Y-102450000D02*
X121740000Y-100912000D01*
X121740000Y-106068000D02*
X121740000Y-104530000D01*
X121780000Y-102450000D02*
X121780000Y-100911000D01*
X121780000Y-106069000D02*
X121780000Y-104530000D01*
X121820000Y-106070000D02*
X121820000Y-104530000D01*
X121820000Y-102450000D02*
X121820000Y-100910000D01*
X121860000Y-106070000D02*
X121860000Y-104530000D01*
X121860000Y-102450000D02*
X121860000Y-100910000D01*
X124480000Y-103490000D02*
G75*
G03X124480000Y-103490000I-2620000J0D01*
G01*
X114702064Y-88610000D02*
X113497936Y-88610000D01*
X114702064Y-90430000D02*
X113497936Y-90430000D01*
D12*
X127802380Y-104251904D02*
X128611904Y-104251904D01*
X128707142Y-104204285D01*
X128754761Y-104156666D01*
X128802380Y-104061428D01*
X128802380Y-103870952D01*
X128754761Y-103775714D01*
X128707142Y-103728095D01*
X128611904Y-103680476D01*
X127802380Y-103680476D01*
X128802380Y-102680476D02*
X128802380Y-103251904D01*
X128802380Y-102966190D02*
X127802380Y-102966190D01*
X127945238Y-103061428D01*
X128040476Y-103156666D01*
X128088095Y-103251904D01*
X105786666Y-105862380D02*
X105786666Y-106576666D01*
X105739047Y-106719523D01*
X105643809Y-106814761D01*
X105500952Y-106862380D01*
X105405714Y-106862380D01*
X106215238Y-105957619D02*
X106262857Y-105910000D01*
X106358095Y-105862380D01*
X106596190Y-105862380D01*
X106691428Y-105910000D01*
X106739047Y-105957619D01*
X106786666Y-106052857D01*
X106786666Y-106148095D01*
X106739047Y-106290952D01*
X106167619Y-106862380D01*
X106786666Y-106862380D01*
X140953333Y-84627142D02*
X140905714Y-84674761D01*
X140762857Y-84722380D01*
X140667619Y-84722380D01*
X140524761Y-84674761D01*
X140429523Y-84579523D01*
X140381904Y-84484285D01*
X140334285Y-84293809D01*
X140334285Y-84150952D01*
X140381904Y-83960476D01*
X140429523Y-83865238D01*
X140524761Y-83770000D01*
X140667619Y-83722380D01*
X140762857Y-83722380D01*
X140905714Y-83770000D01*
X140953333Y-83817619D01*
X141810476Y-83722380D02*
X141620000Y-83722380D01*
X141524761Y-83770000D01*
X141477142Y-83817619D01*
X141381904Y-83960476D01*
X141334285Y-84150952D01*
X141334285Y-84531904D01*
X141381904Y-84627142D01*
X141429523Y-84674761D01*
X141524761Y-84722380D01*
X141715238Y-84722380D01*
X141810476Y-84674761D01*
X141858095Y-84627142D01*
X141905714Y-84531904D01*
X141905714Y-84293809D01*
X141858095Y-84198571D01*
X141810476Y-84150952D01*
X141715238Y-84103333D01*
X141524761Y-84103333D01*
X141429523Y-84150952D01*
X141381904Y-84198571D01*
X141334285Y-84293809D01*
X129327380Y-92770238D02*
X128851190Y-93103571D01*
X129327380Y-93341666D02*
X128327380Y-93341666D01*
X128327380Y-92960714D01*
X128375000Y-92865476D01*
X128422619Y-92817857D01*
X128517857Y-92770238D01*
X128660714Y-92770238D01*
X128755952Y-92817857D01*
X128803571Y-92865476D01*
X128851190Y-92960714D01*
X128851190Y-93341666D01*
X128327380Y-92484523D02*
X129327380Y-92151190D01*
X128327380Y-91817857D01*
X129327380Y-90960714D02*
X129327380Y-91532142D01*
X129327380Y-91246428D02*
X128327380Y-91246428D01*
X128470238Y-91341666D01*
X128565476Y-91436904D01*
X128613095Y-91532142D01*
X140603333Y-114652380D02*
X140270000Y-114176190D01*
X140031904Y-114652380D02*
X140031904Y-113652380D01*
X140412857Y-113652380D01*
X140508095Y-113700000D01*
X140555714Y-113747619D01*
X140603333Y-113842857D01*
X140603333Y-113985714D01*
X140555714Y-114080952D01*
X140508095Y-114128571D01*
X140412857Y-114176190D01*
X140031904Y-114176190D01*
X140984285Y-113747619D02*
X141031904Y-113700000D01*
X141127142Y-113652380D01*
X141365238Y-113652380D01*
X141460476Y-113700000D01*
X141508095Y-113747619D01*
X141555714Y-113842857D01*
X141555714Y-113938095D01*
X141508095Y-114080952D01*
X140936666Y-114652380D01*
X141555714Y-114652380D01*
X140603333Y-107202380D02*
X140270000Y-106726190D01*
X140031904Y-107202380D02*
X140031904Y-106202380D01*
X140412857Y-106202380D01*
X140508095Y-106250000D01*
X140555714Y-106297619D01*
X140603333Y-106392857D01*
X140603333Y-106535714D01*
X140555714Y-106630952D01*
X140508095Y-106678571D01*
X140412857Y-106726190D01*
X140031904Y-106726190D01*
X141555714Y-107202380D02*
X140984285Y-107202380D01*
X141270000Y-107202380D02*
X141270000Y-106202380D01*
X141174761Y-106345238D01*
X141079523Y-106440476D01*
X140984285Y-106488095D01*
X111461904Y-113602380D02*
X111461904Y-112602380D01*
X111842857Y-112602380D01*
X111938095Y-112650000D01*
X111985714Y-112697619D01*
X112033333Y-112792857D01*
X112033333Y-112935714D01*
X111985714Y-113030952D01*
X111938095Y-113078571D01*
X111842857Y-113126190D01*
X111461904Y-113126190D01*
X112461904Y-113602380D02*
X112461904Y-112602380D01*
X112842857Y-112602380D01*
X112938095Y-112650000D01*
X112985714Y-112697619D01*
X113033333Y-112792857D01*
X113033333Y-112935714D01*
X112985714Y-113030952D01*
X112938095Y-113078571D01*
X112842857Y-113126190D01*
X112461904Y-113126190D01*
X113366666Y-112602380D02*
X113985714Y-112602380D01*
X113652380Y-112983333D01*
X113795238Y-112983333D01*
X113890476Y-113030952D01*
X113938095Y-113078571D01*
X113985714Y-113173809D01*
X113985714Y-113411904D01*
X113938095Y-113507142D01*
X113890476Y-113554761D01*
X113795238Y-113602380D01*
X113509523Y-113602380D01*
X113414285Y-113554761D01*
X113366666Y-113507142D01*
X107270952Y-109022380D02*
X107461428Y-109022380D01*
X107556666Y-108974761D01*
X107604285Y-108927142D01*
X107699523Y-108784285D01*
X107747142Y-108593809D01*
X107747142Y-108212857D01*
X107699523Y-108117619D01*
X107651904Y-108070000D01*
X107556666Y-108022380D01*
X107366190Y-108022380D01*
X107270952Y-108070000D01*
X107223333Y-108117619D01*
X107175714Y-108212857D01*
X107175714Y-108450952D01*
X107223333Y-108546190D01*
X107270952Y-108593809D01*
X107366190Y-108641428D01*
X107556666Y-108641428D01*
X107651904Y-108593809D01*
X107699523Y-108546190D01*
X107747142Y-108450952D01*
X108032857Y-108022380D02*
X108366190Y-109022380D01*
X108699523Y-108022380D01*
X109032857Y-109022380D02*
X109032857Y-108022380D01*
X109270952Y-108022380D01*
X109413809Y-108070000D01*
X109509047Y-108165238D01*
X109556666Y-108260476D01*
X109604285Y-108450952D01*
X109604285Y-108593809D01*
X109556666Y-108784285D01*
X109509047Y-108879523D01*
X109413809Y-108974761D01*
X109270952Y-109022380D01*
X109032857Y-109022380D01*
X110604285Y-108927142D02*
X110556666Y-108974761D01*
X110413809Y-109022380D01*
X110318571Y-109022380D01*
X110175714Y-108974761D01*
X110080476Y-108879523D01*
X110032857Y-108784285D01*
X109985238Y-108593809D01*
X109985238Y-108450952D01*
X110032857Y-108260476D01*
X110080476Y-108165238D01*
X110175714Y-108070000D01*
X110318571Y-108022380D01*
X110413809Y-108022380D01*
X110556666Y-108070000D01*
X110604285Y-108117619D01*
X109779047Y-107371428D02*
X110540952Y-107371428D01*
X109779047Y-109911428D02*
X110540952Y-109911428D01*
X110160000Y-110292380D02*
X110160000Y-109530476D01*
X154506666Y-87322380D02*
X154506666Y-88036666D01*
X154459047Y-88179523D01*
X154363809Y-88274761D01*
X154220952Y-88322380D01*
X154125714Y-88322380D01*
X154887619Y-87322380D02*
X155506666Y-87322380D01*
X155173333Y-87703333D01*
X155316190Y-87703333D01*
X155411428Y-87750952D01*
X155459047Y-87798571D01*
X155506666Y-87893809D01*
X155506666Y-88131904D01*
X155459047Y-88227142D01*
X155411428Y-88274761D01*
X155316190Y-88322380D01*
X155030476Y-88322380D01*
X154935238Y-88274761D01*
X154887619Y-88227142D01*
X127201904Y-110832380D02*
X127201904Y-109832380D01*
X127440000Y-109832380D01*
X127582857Y-109880000D01*
X127678095Y-109975238D01*
X127725714Y-110070476D01*
X127773333Y-110260952D01*
X127773333Y-110403809D01*
X127725714Y-110594285D01*
X127678095Y-110689523D01*
X127582857Y-110784761D01*
X127440000Y-110832380D01*
X127201904Y-110832380D01*
X128154285Y-109927619D02*
X128201904Y-109880000D01*
X128297142Y-109832380D01*
X128535238Y-109832380D01*
X128630476Y-109880000D01*
X128678095Y-109927619D01*
X128725714Y-110022857D01*
X128725714Y-110118095D01*
X128678095Y-110260952D01*
X128106666Y-110832380D01*
X128725714Y-110832380D01*
X120371904Y-110832380D02*
X120371904Y-109832380D01*
X120610000Y-109832380D01*
X120752857Y-109880000D01*
X120848095Y-109975238D01*
X120895714Y-110070476D01*
X120943333Y-110260952D01*
X120943333Y-110403809D01*
X120895714Y-110594285D01*
X120848095Y-110689523D01*
X120752857Y-110784761D01*
X120610000Y-110832380D01*
X120371904Y-110832380D01*
X121895714Y-110832380D02*
X121324285Y-110832380D01*
X121610000Y-110832380D02*
X121610000Y-109832380D01*
X121514761Y-109975238D01*
X121419523Y-110070476D01*
X121324285Y-110118095D01*
X135393333Y-110917142D02*
X135345714Y-110964761D01*
X135202857Y-111012380D01*
X135107619Y-111012380D01*
X134964761Y-110964761D01*
X134869523Y-110869523D01*
X134821904Y-110774285D01*
X134774285Y-110583809D01*
X134774285Y-110440952D01*
X134821904Y-110250476D01*
X134869523Y-110155238D01*
X134964761Y-110060000D01*
X135107619Y-110012380D01*
X135202857Y-110012380D01*
X135345714Y-110060000D01*
X135393333Y-110107619D01*
X136298095Y-110012380D02*
X135821904Y-110012380D01*
X135774285Y-110488571D01*
X135821904Y-110440952D01*
X135917142Y-110393333D01*
X136155238Y-110393333D01*
X136250476Y-110440952D01*
X136298095Y-110488571D01*
X136345714Y-110583809D01*
X136345714Y-110821904D01*
X136298095Y-110917142D01*
X136250476Y-110964761D01*
X136155238Y-111012380D01*
X135917142Y-111012380D01*
X135821904Y-110964761D01*
X135774285Y-110917142D01*
X133123333Y-93627142D02*
X133075714Y-93674761D01*
X132932857Y-93722380D01*
X132837619Y-93722380D01*
X132694761Y-93674761D01*
X132599523Y-93579523D01*
X132551904Y-93484285D01*
X132504285Y-93293809D01*
X132504285Y-93150952D01*
X132551904Y-92960476D01*
X132599523Y-92865238D01*
X132694761Y-92770000D01*
X132837619Y-92722380D01*
X132932857Y-92722380D01*
X133075714Y-92770000D01*
X133123333Y-92817619D01*
X133980476Y-93055714D02*
X133980476Y-93722380D01*
X133742380Y-92674761D02*
X133504285Y-93389047D01*
X134123333Y-93389047D01*
X140603333Y-105667142D02*
X140555714Y-105714761D01*
X140412857Y-105762380D01*
X140317619Y-105762380D01*
X140174761Y-105714761D01*
X140079523Y-105619523D01*
X140031904Y-105524285D01*
X139984285Y-105333809D01*
X139984285Y-105190952D01*
X140031904Y-105000476D01*
X140079523Y-104905238D01*
X140174761Y-104810000D01*
X140317619Y-104762380D01*
X140412857Y-104762380D01*
X140555714Y-104810000D01*
X140603333Y-104857619D01*
X140936666Y-104762380D02*
X141555714Y-104762380D01*
X141222380Y-105143333D01*
X141365238Y-105143333D01*
X141460476Y-105190952D01*
X141508095Y-105238571D01*
X141555714Y-105333809D01*
X141555714Y-105571904D01*
X141508095Y-105667142D01*
X141460476Y-105714761D01*
X141365238Y-105762380D01*
X141079523Y-105762380D01*
X140984285Y-105714761D01*
X140936666Y-105667142D01*
X121693333Y-107597142D02*
X121645714Y-107644761D01*
X121502857Y-107692380D01*
X121407619Y-107692380D01*
X121264761Y-107644761D01*
X121169523Y-107549523D01*
X121121904Y-107454285D01*
X121074285Y-107263809D01*
X121074285Y-107120952D01*
X121121904Y-106930476D01*
X121169523Y-106835238D01*
X121264761Y-106740000D01*
X121407619Y-106692380D01*
X121502857Y-106692380D01*
X121645714Y-106740000D01*
X121693333Y-106787619D01*
X122074285Y-106787619D02*
X122121904Y-106740000D01*
X122217142Y-106692380D01*
X122455238Y-106692380D01*
X122550476Y-106740000D01*
X122598095Y-106787619D01*
X122645714Y-106882857D01*
X122645714Y-106978095D01*
X122598095Y-107120952D01*
X122026666Y-107692380D01*
X122645714Y-107692380D01*
X113933333Y-91697142D02*
X113885714Y-91744761D01*
X113742857Y-91792380D01*
X113647619Y-91792380D01*
X113504761Y-91744761D01*
X113409523Y-91649523D01*
X113361904Y-91554285D01*
X113314285Y-91363809D01*
X113314285Y-91220952D01*
X113361904Y-91030476D01*
X113409523Y-90935238D01*
X113504761Y-90840000D01*
X113647619Y-90792380D01*
X113742857Y-90792380D01*
X113885714Y-90840000D01*
X113933333Y-90887619D01*
X114885714Y-91792380D02*
X114314285Y-91792380D01*
X114600000Y-91792380D02*
X114600000Y-90792380D01*
X114504761Y-90935238D01*
X114409523Y-91030476D01*
X114314285Y-91078095D01*
M02*
