G04 #@! TF.GenerationSoftware,KiCad,Pcbnew,(5.1.5-0-10_14)*
G04 #@! TF.CreationDate,2020-02-11T13:30:23+00:00*
G04 #@! TF.ProjectId,K1889054_A2000_01,4b313838-3930-4353-945f-41323030305f,1.0*
G04 #@! TF.SameCoordinates,Original*
G04 #@! TF.FileFunction,OtherDrawing,Comment*
%FSLAX46Y46*%
G04 Gerber Fmt 4.6, Leading zero omitted, Abs format (unit mm)*
G04 Created by KiCad (PCBNEW (5.1.5-0-10_14)) date 2020-02-11 13:30:23*
%MOMM*%
%LPD*%
G04 APERTURE LIST*
%ADD10C,0.150000*%
G04 APERTURE END LIST*
D10*
X167885714Y-103666666D02*
X168552380Y-103666666D01*
X167504761Y-103904761D02*
X168219047Y-104142857D01*
X168219047Y-103523809D01*
X167552380Y-102952380D02*
X167552380Y-102857142D01*
X167600000Y-102761904D01*
X167647619Y-102714285D01*
X167742857Y-102666666D01*
X167933333Y-102619047D01*
X168171428Y-102619047D01*
X168361904Y-102666666D01*
X168457142Y-102714285D01*
X168504761Y-102761904D01*
X168552380Y-102857142D01*
X168552380Y-102952380D01*
X168504761Y-103047619D01*
X168457142Y-103095238D01*
X168361904Y-103142857D01*
X168171428Y-103190476D01*
X167933333Y-103190476D01*
X167742857Y-103142857D01*
X167647619Y-103095238D01*
X167600000Y-103047619D01*
X167552380Y-102952380D01*
X168457142Y-102190476D02*
X168504761Y-102142857D01*
X168552380Y-102190476D01*
X168504761Y-102238095D01*
X168457142Y-102190476D01*
X168552380Y-102190476D01*
X167552380Y-101523809D02*
X167552380Y-101428571D01*
X167600000Y-101333333D01*
X167647619Y-101285714D01*
X167742857Y-101238095D01*
X167933333Y-101190476D01*
X168171428Y-101190476D01*
X168361904Y-101238095D01*
X168457142Y-101285714D01*
X168504761Y-101333333D01*
X168552380Y-101428571D01*
X168552380Y-101523809D01*
X168504761Y-101619047D01*
X168457142Y-101666666D01*
X168361904Y-101714285D01*
X168171428Y-101761904D01*
X167933333Y-101761904D01*
X167742857Y-101714285D01*
X167647619Y-101666666D01*
X167600000Y-101619047D01*
X167552380Y-101523809D01*
X167552380Y-100571428D02*
X167552380Y-100476190D01*
X167600000Y-100380952D01*
X167647619Y-100333333D01*
X167742857Y-100285714D01*
X167933333Y-100238095D01*
X168171428Y-100238095D01*
X168361904Y-100285714D01*
X168457142Y-100333333D01*
X168504761Y-100380952D01*
X168552380Y-100476190D01*
X168552380Y-100571428D01*
X168504761Y-100666666D01*
X168457142Y-100714285D01*
X168361904Y-100761904D01*
X168171428Y-100809523D01*
X167933333Y-100809523D01*
X167742857Y-100761904D01*
X167647619Y-100714285D01*
X167600000Y-100666666D01*
X167552380Y-100571428D01*
X167552380Y-99619047D02*
X167552380Y-99523809D01*
X167600000Y-99428571D01*
X167647619Y-99380952D01*
X167742857Y-99333333D01*
X167933333Y-99285714D01*
X168171428Y-99285714D01*
X168361904Y-99333333D01*
X168457142Y-99380952D01*
X168504761Y-99428571D01*
X168552380Y-99523809D01*
X168552380Y-99619047D01*
X168504761Y-99714285D01*
X168457142Y-99761904D01*
X168361904Y-99809523D01*
X168171428Y-99857142D01*
X167933333Y-99857142D01*
X167742857Y-99809523D01*
X167647619Y-99761904D01*
X167600000Y-99714285D01*
X167552380Y-99619047D01*
X168552380Y-98095238D02*
X167885714Y-98095238D01*
X167980952Y-98095238D02*
X167933333Y-98047619D01*
X167885714Y-97952380D01*
X167885714Y-97809523D01*
X167933333Y-97714285D01*
X168028571Y-97666666D01*
X168552380Y-97666666D01*
X168028571Y-97666666D02*
X167933333Y-97619047D01*
X167885714Y-97523809D01*
X167885714Y-97380952D01*
X167933333Y-97285714D01*
X168028571Y-97238095D01*
X168552380Y-97238095D01*
X168552380Y-96761904D02*
X167885714Y-96761904D01*
X167980952Y-96761904D02*
X167933333Y-96714285D01*
X167885714Y-96619047D01*
X167885714Y-96476190D01*
X167933333Y-96380952D01*
X168028571Y-96333333D01*
X168552380Y-96333333D01*
X168028571Y-96333333D02*
X167933333Y-96285714D01*
X167885714Y-96190476D01*
X167885714Y-96047619D01*
X167933333Y-95952380D01*
X168028571Y-95904761D01*
X168552380Y-95904761D01*
X166800000Y-120000000D02*
X166800000Y-80000000D01*
X160000000Y-120000000D02*
X167386421Y-120000000D01*
X160000000Y-80000000D02*
X167386421Y-80000000D01*
X166800000Y-80000000D02*
X167386421Y-81126504D01*
X166800000Y-80000000D02*
X166213579Y-81126504D01*
X166800000Y-120000000D02*
X167386421Y-118873496D01*
X166800000Y-120000000D02*
X166213579Y-118873496D01*
X126304509Y-128641399D02*
X126114033Y-128640764D01*
X126018637Y-128688066D01*
X125970860Y-128735526D01*
X125875146Y-128878065D01*
X125826892Y-129068381D01*
X125825622Y-129449331D01*
X125872924Y-129544728D01*
X125920384Y-129592505D01*
X126015463Y-129640441D01*
X126205938Y-129641076D01*
X126301334Y-129593775D01*
X126349112Y-129546315D01*
X126397048Y-129451236D01*
X126397841Y-129213142D01*
X126350540Y-129117746D01*
X126303080Y-129069968D01*
X126208001Y-129022032D01*
X126017526Y-129021397D01*
X125922130Y-129068699D01*
X125874352Y-129116159D01*
X125826416Y-129211237D01*
X127018790Y-128643780D02*
X127114028Y-128644098D01*
X127209107Y-128692034D01*
X127256567Y-128739811D01*
X127303868Y-128835208D01*
X127350852Y-129025842D01*
X127350058Y-129263936D01*
X127301805Y-129454252D01*
X127253868Y-129549331D01*
X127206091Y-129596791D01*
X127110695Y-129644092D01*
X127015457Y-129643775D01*
X126920378Y-129595838D01*
X126872918Y-129548061D01*
X126825617Y-129452665D01*
X126778633Y-129262031D01*
X126779427Y-129023937D01*
X126827680Y-128833620D01*
X126875617Y-128738542D01*
X126923394Y-128691082D01*
X127018790Y-128643780D01*
X127777675Y-129551077D02*
X127825135Y-129598854D01*
X127777358Y-129646314D01*
X127729897Y-129598537D01*
X127777675Y-129551077D01*
X127777358Y-129646314D01*
X128447354Y-128648542D02*
X128542591Y-128648860D01*
X128637670Y-128696796D01*
X128685130Y-128744573D01*
X128732432Y-128839970D01*
X128779415Y-129030604D01*
X128778622Y-129268697D01*
X128730368Y-129459014D01*
X128682432Y-129554093D01*
X128634654Y-129601553D01*
X128539258Y-129648854D01*
X128444021Y-129648537D01*
X128348942Y-129600600D01*
X128301482Y-129552823D01*
X128254180Y-129457427D01*
X128207196Y-129266793D01*
X128207990Y-129028699D01*
X128256244Y-128838382D01*
X128304180Y-128743304D01*
X128351958Y-128695843D01*
X128447354Y-128648542D01*
X129399729Y-128651717D02*
X129494967Y-128652034D01*
X129590046Y-128699970D01*
X129637506Y-128747748D01*
X129684807Y-128843144D01*
X129731791Y-129033778D01*
X129730997Y-129271872D01*
X129682744Y-129462188D01*
X129634808Y-129557267D01*
X129587030Y-129604727D01*
X129491634Y-129652029D01*
X129396396Y-129651711D01*
X129301317Y-129603775D01*
X129253857Y-129555997D01*
X129206556Y-129460601D01*
X129159572Y-129269967D01*
X129160366Y-129031873D01*
X129208619Y-128841557D01*
X129256556Y-128746478D01*
X129304333Y-128699018D01*
X129399729Y-128651717D01*
X130352105Y-128654891D02*
X130447343Y-128655209D01*
X130542422Y-128703145D01*
X130589882Y-128750923D01*
X130637183Y-128846319D01*
X130684167Y-129036953D01*
X130683373Y-129275047D01*
X130635119Y-129465363D01*
X130587183Y-129560442D01*
X130539406Y-129607902D01*
X130444009Y-129655203D01*
X130348772Y-129654886D01*
X130253693Y-129606950D01*
X130206233Y-129559172D01*
X130158932Y-129463776D01*
X130111948Y-129273142D01*
X130112741Y-129035048D01*
X130160995Y-128844732D01*
X130208931Y-128749653D01*
X130256709Y-128702193D01*
X130352105Y-128654891D01*
X131872573Y-129659965D02*
X131874795Y-128993302D01*
X131874478Y-129088540D02*
X131922255Y-129041080D01*
X132017651Y-128993778D01*
X132160508Y-128994255D01*
X132255587Y-129042191D01*
X132302888Y-129137587D01*
X132301142Y-129661394D01*
X132302888Y-129137587D02*
X132350824Y-129042508D01*
X132446221Y-128995207D01*
X132589077Y-128995683D01*
X132684156Y-129043619D01*
X132731457Y-129139016D01*
X132729711Y-129662822D01*
X133205899Y-129664410D02*
X133208121Y-128997747D01*
X133207804Y-129092984D02*
X133255581Y-129045524D01*
X133350977Y-128998223D01*
X133493834Y-128998699D01*
X133588913Y-129046635D01*
X133636214Y-129142031D01*
X133634468Y-129665838D01*
X133636214Y-129142031D02*
X133684150Y-129046953D01*
X133779546Y-128999651D01*
X133922403Y-129000128D01*
X134017482Y-129048064D01*
X134064783Y-129143460D01*
X134063037Y-129667267D01*
X99973663Y-127801245D02*
X159973663Y-128001245D01*
X100000000Y-119900000D02*
X99971708Y-128387663D01*
X160000000Y-120100000D02*
X159971708Y-128587663D01*
X159973663Y-128001245D02*
X158845211Y-128583907D01*
X159973663Y-128001245D02*
X158849120Y-127411073D01*
X99973663Y-127801245D02*
X101098206Y-128391417D01*
X99973663Y-127801245D02*
X101102115Y-127218583D01*
M02*
