G04 #@! TF.GenerationSoftware,KiCad,Pcbnew,(5.1.5-0-10_14)*
G04 #@! TF.CreationDate,2020-02-11T13:30:23+00:00*
G04 #@! TF.ProjectId,K1889054_A2000_01,4b313838-3930-4353-945f-41323030305f,1.0*
G04 #@! TF.SameCoordinates,Original*
G04 #@! TF.FileFunction,Other,Comment*
%FSLAX46Y46*%
G04 Gerber Fmt 4.6, Leading zero omitted, Abs format (unit mm)*
G04 Created by KiCad (PCBNEW (5.1.5-0-10_14)) date 2020-02-11 13:30:23*
%MOMM*%
%LPD*%
G04 APERTURE LIST*
%ADD10C,0.300000*%
%ADD11C,0.150000*%
G04 APERTURE END LIST*
D10*
X170821428Y-63828571D02*
X170821428Y-62328571D01*
X171392857Y-62328571D01*
X171535714Y-62400000D01*
X171607142Y-62471428D01*
X171678571Y-62614285D01*
X171678571Y-62828571D01*
X171607142Y-62971428D01*
X171535714Y-63042857D01*
X171392857Y-63114285D01*
X170821428Y-63114285D01*
X172535714Y-63828571D02*
X172392857Y-63757142D01*
X172321428Y-63614285D01*
X172321428Y-62328571D01*
X173678571Y-63757142D02*
X173535714Y-63828571D01*
X173250000Y-63828571D01*
X173107142Y-63757142D01*
X173035714Y-63614285D01*
X173035714Y-63042857D01*
X173107142Y-62900000D01*
X173250000Y-62828571D01*
X173535714Y-62828571D01*
X173678571Y-62900000D01*
X173750000Y-63042857D01*
X173750000Y-63185714D01*
X173035714Y-63328571D01*
X175035714Y-63828571D02*
X175035714Y-63042857D01*
X174964285Y-62900000D01*
X174821428Y-62828571D01*
X174535714Y-62828571D01*
X174392857Y-62900000D01*
X175035714Y-63757142D02*
X174892857Y-63828571D01*
X174535714Y-63828571D01*
X174392857Y-63757142D01*
X174321428Y-63614285D01*
X174321428Y-63471428D01*
X174392857Y-63328571D01*
X174535714Y-63257142D01*
X174892857Y-63257142D01*
X175035714Y-63185714D01*
X175678571Y-63757142D02*
X175821428Y-63828571D01*
X176107142Y-63828571D01*
X176250000Y-63757142D01*
X176321428Y-63614285D01*
X176321428Y-63542857D01*
X176250000Y-63400000D01*
X176107142Y-63328571D01*
X175892857Y-63328571D01*
X175750000Y-63257142D01*
X175678571Y-63114285D01*
X175678571Y-63042857D01*
X175750000Y-62900000D01*
X175892857Y-62828571D01*
X176107142Y-62828571D01*
X176250000Y-62900000D01*
X177535714Y-63757142D02*
X177392857Y-63828571D01*
X177107142Y-63828571D01*
X176964285Y-63757142D01*
X176892857Y-63614285D01*
X176892857Y-63042857D01*
X176964285Y-62900000D01*
X177107142Y-62828571D01*
X177392857Y-62828571D01*
X177535714Y-62900000D01*
X177607142Y-63042857D01*
X177607142Y-63185714D01*
X176892857Y-63328571D01*
X179178571Y-62828571D02*
X179750000Y-62828571D01*
X179392857Y-63828571D02*
X179392857Y-62542857D01*
X179464285Y-62400000D01*
X179607142Y-62328571D01*
X179750000Y-62328571D01*
X180250000Y-63828571D02*
X180250000Y-62828571D01*
X180250000Y-62328571D02*
X180178571Y-62400000D01*
X180250000Y-62471428D01*
X180321428Y-62400000D01*
X180250000Y-62328571D01*
X180250000Y-62471428D01*
X181178571Y-63828571D02*
X181035714Y-63757142D01*
X180964285Y-63614285D01*
X180964285Y-62328571D01*
X181964285Y-63828571D02*
X181821428Y-63757142D01*
X181750000Y-63614285D01*
X181750000Y-62328571D01*
X183678571Y-63828571D02*
X183678571Y-62828571D01*
X183678571Y-62328571D02*
X183607142Y-62400000D01*
X183678571Y-62471428D01*
X183750000Y-62400000D01*
X183678571Y-62328571D01*
X183678571Y-62471428D01*
X184392857Y-62828571D02*
X184392857Y-63828571D01*
X184392857Y-62971428D02*
X184464285Y-62900000D01*
X184607142Y-62828571D01*
X184821428Y-62828571D01*
X184964285Y-62900000D01*
X185035714Y-63042857D01*
X185035714Y-63828571D01*
X186749999Y-63828571D02*
X187535714Y-62828571D01*
X186749999Y-62828571D02*
X187535714Y-63828571D01*
X188178571Y-62328571D02*
X188035714Y-62614285D01*
X188749999Y-63757142D02*
X188892857Y-63828571D01*
X189178571Y-63828571D01*
X189321428Y-63757142D01*
X189392857Y-63614285D01*
X189392857Y-63542857D01*
X189321428Y-63400000D01*
X189178571Y-63328571D01*
X188964285Y-63328571D01*
X188821428Y-63257142D01*
X188749999Y-63114285D01*
X188749999Y-63042857D01*
X188821428Y-62900000D01*
X188964285Y-62828571D01*
X189178571Y-62828571D01*
X189321428Y-62900000D01*
X191035714Y-62828571D02*
X191321428Y-63828571D01*
X191607142Y-63114285D01*
X191892857Y-63828571D01*
X192178571Y-62828571D01*
X192749999Y-63828571D02*
X192749999Y-62828571D01*
X192749999Y-62328571D02*
X192678571Y-62400000D01*
X192749999Y-62471428D01*
X192821428Y-62400000D01*
X192749999Y-62328571D01*
X192749999Y-62471428D01*
X193249999Y-62828571D02*
X193821428Y-62828571D01*
X193464285Y-62328571D02*
X193464285Y-63614285D01*
X193535714Y-63757142D01*
X193678571Y-63828571D01*
X193821428Y-63828571D01*
X194321428Y-63828571D02*
X194321428Y-62328571D01*
X194964285Y-63828571D02*
X194964285Y-63042857D01*
X194892857Y-62900000D01*
X194749999Y-62828571D01*
X194535714Y-62828571D01*
X194392857Y-62900000D01*
X194321428Y-62971428D01*
X197464285Y-63757142D02*
X197321428Y-63828571D01*
X197035714Y-63828571D01*
X196892857Y-63757142D01*
X196821428Y-63685714D01*
X196749999Y-63542857D01*
X196749999Y-63114285D01*
X196821428Y-62971428D01*
X196892857Y-62900000D01*
X197035714Y-62828571D01*
X197321428Y-62828571D01*
X197464285Y-62900000D01*
X198321428Y-63828571D02*
X198178571Y-63757142D01*
X198107142Y-63685714D01*
X198035714Y-63542857D01*
X198035714Y-63114285D01*
X198107142Y-62971428D01*
X198178571Y-62900000D01*
X198321428Y-62828571D01*
X198535714Y-62828571D01*
X198678571Y-62900000D01*
X198749999Y-62971428D01*
X198821428Y-63114285D01*
X198821428Y-63542857D01*
X198749999Y-63685714D01*
X198678571Y-63757142D01*
X198535714Y-63828571D01*
X198321428Y-63828571D01*
X199464285Y-63828571D02*
X199464285Y-62828571D01*
X199464285Y-63114285D02*
X199535714Y-62971428D01*
X199607142Y-62900000D01*
X199749999Y-62828571D01*
X199892857Y-62828571D01*
X200392857Y-63828571D02*
X200392857Y-62828571D01*
X200392857Y-63114285D02*
X200464285Y-62971428D01*
X200535714Y-62900000D01*
X200678571Y-62828571D01*
X200821428Y-62828571D01*
X201892857Y-63757142D02*
X201749999Y-63828571D01*
X201464285Y-63828571D01*
X201321428Y-63757142D01*
X201249999Y-63614285D01*
X201249999Y-63042857D01*
X201321428Y-62900000D01*
X201464285Y-62828571D01*
X201749999Y-62828571D01*
X201892857Y-62900000D01*
X201964285Y-63042857D01*
X201964285Y-63185714D01*
X201249999Y-63328571D01*
X203249999Y-63757142D02*
X203107142Y-63828571D01*
X202821428Y-63828571D01*
X202678571Y-63757142D01*
X202607142Y-63685714D01*
X202535714Y-63542857D01*
X202535714Y-63114285D01*
X202607142Y-62971428D01*
X202678571Y-62900000D01*
X202821428Y-62828571D01*
X203107142Y-62828571D01*
X203249999Y-62900000D01*
X203678571Y-62828571D02*
X204250000Y-62828571D01*
X203892857Y-62328571D02*
X203892857Y-63614285D01*
X203964285Y-63757142D01*
X204107142Y-63828571D01*
X204250000Y-63828571D01*
X172500000Y-66378571D02*
X172500000Y-65378571D01*
X172500000Y-64878571D02*
X172428571Y-64950000D01*
X172500000Y-65021428D01*
X172571428Y-64950000D01*
X172500000Y-64878571D01*
X172500000Y-65021428D01*
X173214285Y-65378571D02*
X173214285Y-66378571D01*
X173214285Y-65521428D02*
X173285714Y-65450000D01*
X173428571Y-65378571D01*
X173642857Y-65378571D01*
X173785714Y-65450000D01*
X173857142Y-65592857D01*
X173857142Y-66378571D01*
X174357142Y-65378571D02*
X174928571Y-65378571D01*
X174571428Y-66378571D02*
X174571428Y-65092857D01*
X174642857Y-64950000D01*
X174785714Y-64878571D01*
X174928571Y-64878571D01*
X175642857Y-66378571D02*
X175500000Y-66307142D01*
X175428571Y-66235714D01*
X175357142Y-66092857D01*
X175357142Y-65664285D01*
X175428571Y-65521428D01*
X175500000Y-65450000D01*
X175642857Y-65378571D01*
X175857142Y-65378571D01*
X176000000Y-65450000D01*
X176071428Y-65521428D01*
X176142857Y-65664285D01*
X176142857Y-66092857D01*
X176071428Y-66235714D01*
X176000000Y-66307142D01*
X175857142Y-66378571D01*
X175642857Y-66378571D01*
X176785714Y-66378571D02*
X176785714Y-65378571D01*
X176785714Y-65664285D02*
X176857142Y-65521428D01*
X176928571Y-65450000D01*
X177071428Y-65378571D01*
X177214285Y-65378571D01*
X177714285Y-66378571D02*
X177714285Y-65378571D01*
X177714285Y-65521428D02*
X177785714Y-65450000D01*
X177928571Y-65378571D01*
X178142857Y-65378571D01*
X178285714Y-65450000D01*
X178357142Y-65592857D01*
X178357142Y-66378571D01*
X178357142Y-65592857D02*
X178428571Y-65450000D01*
X178571428Y-65378571D01*
X178785714Y-65378571D01*
X178928571Y-65450000D01*
X179000000Y-65592857D01*
X179000000Y-66378571D01*
X180357142Y-66378571D02*
X180357142Y-65592857D01*
X180285714Y-65450000D01*
X180142857Y-65378571D01*
X179857142Y-65378571D01*
X179714285Y-65450000D01*
X180357142Y-66307142D02*
X180214285Y-66378571D01*
X179857142Y-66378571D01*
X179714285Y-66307142D01*
X179642857Y-66164285D01*
X179642857Y-66021428D01*
X179714285Y-65878571D01*
X179857142Y-65807142D01*
X180214285Y-65807142D01*
X180357142Y-65735714D01*
X180857142Y-65378571D02*
X181428571Y-65378571D01*
X181071428Y-64878571D02*
X181071428Y-66164285D01*
X181142857Y-66307142D01*
X181285714Y-66378571D01*
X181428571Y-66378571D01*
X181928571Y-66378571D02*
X181928571Y-65378571D01*
X181928571Y-64878571D02*
X181857142Y-64950000D01*
X181928571Y-65021428D01*
X182000000Y-64950000D01*
X181928571Y-64878571D01*
X181928571Y-65021428D01*
X182857142Y-66378571D02*
X182714285Y-66307142D01*
X182642857Y-66235714D01*
X182571428Y-66092857D01*
X182571428Y-65664285D01*
X182642857Y-65521428D01*
X182714285Y-65450000D01*
X182857142Y-65378571D01*
X183071428Y-65378571D01*
X183214285Y-65450000D01*
X183285714Y-65521428D01*
X183357142Y-65664285D01*
X183357142Y-66092857D01*
X183285714Y-66235714D01*
X183214285Y-66307142D01*
X183071428Y-66378571D01*
X182857142Y-66378571D01*
X184000000Y-65378571D02*
X184000000Y-66378571D01*
X184000000Y-65521428D02*
X184071428Y-65450000D01*
X184214285Y-65378571D01*
X184428571Y-65378571D01*
X184571428Y-65450000D01*
X184642857Y-65592857D01*
X184642857Y-66378571D01*
X186500000Y-66378571D02*
X186500000Y-64878571D01*
X186500000Y-65450000D02*
X186642857Y-65378571D01*
X186928571Y-65378571D01*
X187071428Y-65450000D01*
X187142857Y-65521428D01*
X187214285Y-65664285D01*
X187214285Y-66092857D01*
X187142857Y-66235714D01*
X187071428Y-66307142D01*
X186928571Y-66378571D01*
X186642857Y-66378571D01*
X186500000Y-66307142D01*
X188428571Y-66307142D02*
X188285714Y-66378571D01*
X188000000Y-66378571D01*
X187857142Y-66307142D01*
X187785714Y-66164285D01*
X187785714Y-65592857D01*
X187857142Y-65450000D01*
X188000000Y-65378571D01*
X188285714Y-65378571D01*
X188428571Y-65450000D01*
X188500000Y-65592857D01*
X188500000Y-65735714D01*
X187785714Y-65878571D01*
X189357142Y-66378571D02*
X189214285Y-66307142D01*
X189142857Y-66164285D01*
X189142857Y-64878571D01*
X190142857Y-66378571D02*
X190000000Y-66307142D01*
X189928571Y-66235714D01*
X189857142Y-66092857D01*
X189857142Y-65664285D01*
X189928571Y-65521428D01*
X190000000Y-65450000D01*
X190142857Y-65378571D01*
X190357142Y-65378571D01*
X190500000Y-65450000D01*
X190571428Y-65521428D01*
X190642857Y-65664285D01*
X190642857Y-66092857D01*
X190571428Y-66235714D01*
X190500000Y-66307142D01*
X190357142Y-66378571D01*
X190142857Y-66378571D01*
X191142857Y-65378571D02*
X191428571Y-66378571D01*
X191714285Y-65664285D01*
X192000000Y-66378571D01*
X192285714Y-65378571D01*
X193785714Y-65378571D02*
X194357142Y-65378571D01*
X194000000Y-66378571D02*
X194000000Y-65092857D01*
X194071428Y-64950000D01*
X194214285Y-64878571D01*
X194357142Y-64878571D01*
X195071428Y-66378571D02*
X194928571Y-66307142D01*
X194857142Y-66235714D01*
X194785714Y-66092857D01*
X194785714Y-65664285D01*
X194857142Y-65521428D01*
X194928571Y-65450000D01*
X195071428Y-65378571D01*
X195285714Y-65378571D01*
X195428571Y-65450000D01*
X195500000Y-65521428D01*
X195571428Y-65664285D01*
X195571428Y-66092857D01*
X195500000Y-66235714D01*
X195428571Y-66307142D01*
X195285714Y-66378571D01*
X195071428Y-66378571D01*
X196214285Y-66378571D02*
X196214285Y-65378571D01*
X196214285Y-65664285D02*
X196285714Y-65521428D01*
X196357142Y-65450000D01*
X196500000Y-65378571D01*
X196642857Y-65378571D01*
X198142857Y-65378571D02*
X198500000Y-66378571D01*
X198857142Y-65378571D02*
X198500000Y-66378571D01*
X198357142Y-66735714D01*
X198285714Y-66807142D01*
X198142857Y-66878571D01*
X199642857Y-66378571D02*
X199500000Y-66307142D01*
X199428571Y-66235714D01*
X199357142Y-66092857D01*
X199357142Y-65664285D01*
X199428571Y-65521428D01*
X199500000Y-65450000D01*
X199642857Y-65378571D01*
X199857142Y-65378571D01*
X200000000Y-65450000D01*
X200071428Y-65521428D01*
X200142857Y-65664285D01*
X200142857Y-66092857D01*
X200071428Y-66235714D01*
X200000000Y-66307142D01*
X199857142Y-66378571D01*
X199642857Y-66378571D01*
X201428571Y-65378571D02*
X201428571Y-66378571D01*
X200785714Y-65378571D02*
X200785714Y-66164285D01*
X200857142Y-66307142D01*
X201000000Y-66378571D01*
X201214285Y-66378571D01*
X201357142Y-66307142D01*
X201428571Y-66235714D01*
X202142857Y-66378571D02*
X202142857Y-65378571D01*
X202142857Y-65664285D02*
X202214285Y-65521428D01*
X202285714Y-65450000D01*
X202428571Y-65378571D01*
X202571428Y-65378571D01*
X184821428Y-68928571D02*
X184821428Y-67428571D01*
X184821428Y-68000000D02*
X184964285Y-67928571D01*
X185250000Y-67928571D01*
X185392857Y-68000000D01*
X185464285Y-68071428D01*
X185535714Y-68214285D01*
X185535714Y-68642857D01*
X185464285Y-68785714D01*
X185392857Y-68857142D01*
X185250000Y-68928571D01*
X184964285Y-68928571D01*
X184821428Y-68857142D01*
X186392857Y-68928571D02*
X186250000Y-68857142D01*
X186178571Y-68785714D01*
X186107142Y-68642857D01*
X186107142Y-68214285D01*
X186178571Y-68071428D01*
X186250000Y-68000000D01*
X186392857Y-67928571D01*
X186607142Y-67928571D01*
X186750000Y-68000000D01*
X186821428Y-68071428D01*
X186892857Y-68214285D01*
X186892857Y-68642857D01*
X186821428Y-68785714D01*
X186750000Y-68857142D01*
X186607142Y-68928571D01*
X186392857Y-68928571D01*
X188178571Y-68928571D02*
X188178571Y-68142857D01*
X188107142Y-68000000D01*
X187964285Y-67928571D01*
X187678571Y-67928571D01*
X187535714Y-68000000D01*
X188178571Y-68857142D02*
X188035714Y-68928571D01*
X187678571Y-68928571D01*
X187535714Y-68857142D01*
X187464285Y-68714285D01*
X187464285Y-68571428D01*
X187535714Y-68428571D01*
X187678571Y-68357142D01*
X188035714Y-68357142D01*
X188178571Y-68285714D01*
X188892857Y-68928571D02*
X188892857Y-67928571D01*
X188892857Y-68214285D02*
X188964285Y-68071428D01*
X189035714Y-68000000D01*
X189178571Y-67928571D01*
X189321428Y-67928571D01*
X190464285Y-68928571D02*
X190464285Y-67428571D01*
X190464285Y-68857142D02*
X190321428Y-68928571D01*
X190035714Y-68928571D01*
X189892857Y-68857142D01*
X189821428Y-68785714D01*
X189750000Y-68642857D01*
X189750000Y-68214285D01*
X189821428Y-68071428D01*
X189892857Y-68000000D01*
X190035714Y-67928571D01*
X190321428Y-67928571D01*
X190464285Y-68000000D01*
X191178571Y-68785714D02*
X191250000Y-68857142D01*
X191178571Y-68928571D01*
X191107142Y-68857142D01*
X191178571Y-68785714D01*
X191178571Y-68928571D01*
D11*
X173383904Y-72474580D02*
X173383904Y-71474580D01*
X173764857Y-71474580D01*
X173860095Y-71522200D01*
X173907714Y-71569819D01*
X173955333Y-71665057D01*
X173955333Y-71807914D01*
X173907714Y-71903152D01*
X173860095Y-71950771D01*
X173764857Y-71998390D01*
X173383904Y-71998390D01*
X174955333Y-72379342D02*
X174907714Y-72426961D01*
X174764857Y-72474580D01*
X174669619Y-72474580D01*
X174526761Y-72426961D01*
X174431523Y-72331723D01*
X174383904Y-72236485D01*
X174336285Y-72046009D01*
X174336285Y-71903152D01*
X174383904Y-71712676D01*
X174431523Y-71617438D01*
X174526761Y-71522200D01*
X174669619Y-71474580D01*
X174764857Y-71474580D01*
X174907714Y-71522200D01*
X174955333Y-71569819D01*
X175717238Y-71950771D02*
X175860095Y-71998390D01*
X175907714Y-72046009D01*
X175955333Y-72141247D01*
X175955333Y-72284104D01*
X175907714Y-72379342D01*
X175860095Y-72426961D01*
X175764857Y-72474580D01*
X175383904Y-72474580D01*
X175383904Y-71474580D01*
X175717238Y-71474580D01*
X175812476Y-71522200D01*
X175860095Y-71569819D01*
X175907714Y-71665057D01*
X175907714Y-71760295D01*
X175860095Y-71855533D01*
X175812476Y-71903152D01*
X175717238Y-71950771D01*
X175383904Y-71950771D01*
X177717238Y-72474580D02*
X177383904Y-71998390D01*
X177145809Y-72474580D02*
X177145809Y-71474580D01*
X177526761Y-71474580D01*
X177622000Y-71522200D01*
X177669619Y-71569819D01*
X177717238Y-71665057D01*
X177717238Y-71807914D01*
X177669619Y-71903152D01*
X177622000Y-71950771D01*
X177526761Y-71998390D01*
X177145809Y-71998390D01*
X178526761Y-72426961D02*
X178431523Y-72474580D01*
X178241047Y-72474580D01*
X178145809Y-72426961D01*
X178098190Y-72331723D01*
X178098190Y-71950771D01*
X178145809Y-71855533D01*
X178241047Y-71807914D01*
X178431523Y-71807914D01*
X178526761Y-71855533D01*
X178574380Y-71950771D01*
X178574380Y-72046009D01*
X178098190Y-72141247D01*
X178860095Y-71807914D02*
X179241047Y-71807914D01*
X179002952Y-72474580D02*
X179002952Y-71617438D01*
X179050571Y-71522200D01*
X179145809Y-71474580D01*
X179241047Y-71474580D01*
X179955333Y-72426961D02*
X179860095Y-72474580D01*
X179669619Y-72474580D01*
X179574380Y-72426961D01*
X179526761Y-72331723D01*
X179526761Y-71950771D01*
X179574380Y-71855533D01*
X179669619Y-71807914D01*
X179860095Y-71807914D01*
X179955333Y-71855533D01*
X180002952Y-71950771D01*
X180002952Y-72046009D01*
X179526761Y-72141247D01*
X180431523Y-72474580D02*
X180431523Y-71807914D01*
X180431523Y-71998390D02*
X180479142Y-71903152D01*
X180526761Y-71855533D01*
X180622000Y-71807914D01*
X180717238Y-71807914D01*
X181431523Y-72426961D02*
X181336285Y-72474580D01*
X181145809Y-72474580D01*
X181050571Y-72426961D01*
X181002952Y-72331723D01*
X181002952Y-71950771D01*
X181050571Y-71855533D01*
X181145809Y-71807914D01*
X181336285Y-71807914D01*
X181431523Y-71855533D01*
X181479142Y-71950771D01*
X181479142Y-72046009D01*
X181002952Y-72141247D01*
X181907714Y-71807914D02*
X181907714Y-72474580D01*
X181907714Y-71903152D02*
X181955333Y-71855533D01*
X182050571Y-71807914D01*
X182193428Y-71807914D01*
X182288666Y-71855533D01*
X182336285Y-71950771D01*
X182336285Y-72474580D01*
X183241047Y-72426961D02*
X183145809Y-72474580D01*
X182955333Y-72474580D01*
X182860095Y-72426961D01*
X182812476Y-72379342D01*
X182764857Y-72284104D01*
X182764857Y-71998390D01*
X182812476Y-71903152D01*
X182860095Y-71855533D01*
X182955333Y-71807914D01*
X183145809Y-71807914D01*
X183241047Y-71855533D01*
X184050571Y-72426961D02*
X183955333Y-72474580D01*
X183764857Y-72474580D01*
X183669619Y-72426961D01*
X183622000Y-72331723D01*
X183622000Y-71950771D01*
X183669619Y-71855533D01*
X183764857Y-71807914D01*
X183955333Y-71807914D01*
X184050571Y-71855533D01*
X184098190Y-71950771D01*
X184098190Y-72046009D01*
X183622000Y-72141247D01*
X184526761Y-72379342D02*
X184574380Y-72426961D01*
X184526761Y-72474580D01*
X184479142Y-72426961D01*
X184526761Y-72379342D01*
X184526761Y-72474580D01*
X184526761Y-71855533D02*
X184574380Y-71903152D01*
X184526761Y-71950771D01*
X184479142Y-71903152D01*
X184526761Y-71855533D01*
X184526761Y-71950771D01*
X185764857Y-72474580D02*
X185764857Y-71474580D01*
X185860095Y-72093628D02*
X186145809Y-72474580D01*
X186145809Y-71807914D02*
X185764857Y-72188866D01*
X187098190Y-72474580D02*
X186526761Y-72474580D01*
X186812476Y-72474580D02*
X186812476Y-71474580D01*
X186717238Y-71617438D01*
X186622000Y-71712676D01*
X186526761Y-71760295D01*
X187669619Y-71903152D02*
X187574380Y-71855533D01*
X187526761Y-71807914D01*
X187479142Y-71712676D01*
X187479142Y-71665057D01*
X187526761Y-71569819D01*
X187574380Y-71522200D01*
X187669619Y-71474580D01*
X187860095Y-71474580D01*
X187955333Y-71522200D01*
X188002952Y-71569819D01*
X188050571Y-71665057D01*
X188050571Y-71712676D01*
X188002952Y-71807914D01*
X187955333Y-71855533D01*
X187860095Y-71903152D01*
X187669619Y-71903152D01*
X187574380Y-71950771D01*
X187526761Y-71998390D01*
X187479142Y-72093628D01*
X187479142Y-72284104D01*
X187526761Y-72379342D01*
X187574380Y-72426961D01*
X187669619Y-72474580D01*
X187860095Y-72474580D01*
X187955333Y-72426961D01*
X188002952Y-72379342D01*
X188050571Y-72284104D01*
X188050571Y-72093628D01*
X188002952Y-71998390D01*
X187955333Y-71950771D01*
X187860095Y-71903152D01*
X188622000Y-71903152D02*
X188526761Y-71855533D01*
X188479142Y-71807914D01*
X188431523Y-71712676D01*
X188431523Y-71665057D01*
X188479142Y-71569819D01*
X188526761Y-71522200D01*
X188622000Y-71474580D01*
X188812476Y-71474580D01*
X188907714Y-71522200D01*
X188955333Y-71569819D01*
X189002952Y-71665057D01*
X189002952Y-71712676D01*
X188955333Y-71807914D01*
X188907714Y-71855533D01*
X188812476Y-71903152D01*
X188622000Y-71903152D01*
X188526761Y-71950771D01*
X188479142Y-71998390D01*
X188431523Y-72093628D01*
X188431523Y-72284104D01*
X188479142Y-72379342D01*
X188526761Y-72426961D01*
X188622000Y-72474580D01*
X188812476Y-72474580D01*
X188907714Y-72426961D01*
X188955333Y-72379342D01*
X189002952Y-72284104D01*
X189002952Y-72093628D01*
X188955333Y-71998390D01*
X188907714Y-71950771D01*
X188812476Y-71903152D01*
X189479142Y-72474580D02*
X189669619Y-72474580D01*
X189764857Y-72426961D01*
X189812476Y-72379342D01*
X189907714Y-72236485D01*
X189955333Y-72046009D01*
X189955333Y-71665057D01*
X189907714Y-71569819D01*
X189860095Y-71522200D01*
X189764857Y-71474580D01*
X189574380Y-71474580D01*
X189479142Y-71522200D01*
X189431523Y-71569819D01*
X189383904Y-71665057D01*
X189383904Y-71903152D01*
X189431523Y-71998390D01*
X189479142Y-72046009D01*
X189574380Y-72093628D01*
X189764857Y-72093628D01*
X189860095Y-72046009D01*
X189907714Y-71998390D01*
X189955333Y-71903152D01*
X190574380Y-71474580D02*
X190669619Y-71474580D01*
X190764857Y-71522200D01*
X190812476Y-71569819D01*
X190860095Y-71665057D01*
X190907714Y-71855533D01*
X190907714Y-72093628D01*
X190860095Y-72284104D01*
X190812476Y-72379342D01*
X190764857Y-72426961D01*
X190669619Y-72474580D01*
X190574380Y-72474580D01*
X190479142Y-72426961D01*
X190431523Y-72379342D01*
X190383904Y-72284104D01*
X190336285Y-72093628D01*
X190336285Y-71855533D01*
X190383904Y-71665057D01*
X190431523Y-71569819D01*
X190479142Y-71522200D01*
X190574380Y-71474580D01*
X191812476Y-71474580D02*
X191336285Y-71474580D01*
X191288666Y-71950771D01*
X191336285Y-71903152D01*
X191431523Y-71855533D01*
X191669619Y-71855533D01*
X191764857Y-71903152D01*
X191812476Y-71950771D01*
X191860095Y-72046009D01*
X191860095Y-72284104D01*
X191812476Y-72379342D01*
X191764857Y-72426961D01*
X191669619Y-72474580D01*
X191431523Y-72474580D01*
X191336285Y-72426961D01*
X191288666Y-72379342D01*
X192717238Y-71807914D02*
X192717238Y-72474580D01*
X192479142Y-71426961D02*
X192241047Y-72141247D01*
X192860095Y-72141247D01*
X193002952Y-72569819D02*
X193764857Y-72569819D01*
X193955333Y-72188866D02*
X194431523Y-72188866D01*
X193860095Y-72474580D02*
X194193428Y-71474580D01*
X194526761Y-72474580D01*
X194812476Y-71569819D02*
X194860095Y-71522200D01*
X194955333Y-71474580D01*
X195193428Y-71474580D01*
X195288666Y-71522200D01*
X195336285Y-71569819D01*
X195383904Y-71665057D01*
X195383904Y-71760295D01*
X195336285Y-71903152D01*
X194764857Y-72474580D01*
X195383904Y-72474580D01*
X196002952Y-71474580D02*
X196098190Y-71474580D01*
X196193428Y-71522200D01*
X196241047Y-71569819D01*
X196288666Y-71665057D01*
X196336285Y-71855533D01*
X196336285Y-72093628D01*
X196288666Y-72284104D01*
X196241047Y-72379342D01*
X196193428Y-72426961D01*
X196098190Y-72474580D01*
X196002952Y-72474580D01*
X195907714Y-72426961D01*
X195860095Y-72379342D01*
X195812476Y-72284104D01*
X195764857Y-72093628D01*
X195764857Y-71855533D01*
X195812476Y-71665057D01*
X195860095Y-71569819D01*
X195907714Y-71522200D01*
X196002952Y-71474580D01*
X196955333Y-71474580D02*
X197050571Y-71474580D01*
X197145809Y-71522200D01*
X197193428Y-71569819D01*
X197241047Y-71665057D01*
X197288666Y-71855533D01*
X197288666Y-72093628D01*
X197241047Y-72284104D01*
X197193428Y-72379342D01*
X197145809Y-72426961D01*
X197050571Y-72474580D01*
X196955333Y-72474580D01*
X196860095Y-72426961D01*
X196812476Y-72379342D01*
X196764857Y-72284104D01*
X196717238Y-72093628D01*
X196717238Y-71855533D01*
X196764857Y-71665057D01*
X196812476Y-71569819D01*
X196860095Y-71522200D01*
X196955333Y-71474580D01*
X197907714Y-71474580D02*
X198002952Y-71474580D01*
X198098190Y-71522200D01*
X198145809Y-71569819D01*
X198193428Y-71665057D01*
X198241047Y-71855533D01*
X198241047Y-72093628D01*
X198193428Y-72284104D01*
X198145809Y-72379342D01*
X198098190Y-72426961D01*
X198002952Y-72474580D01*
X197907714Y-72474580D01*
X197812476Y-72426961D01*
X197764857Y-72379342D01*
X197717238Y-72284104D01*
X197669619Y-72093628D01*
X197669619Y-71855533D01*
X197717238Y-71665057D01*
X197764857Y-71569819D01*
X197812476Y-71522200D01*
X197907714Y-71474580D01*
X198431523Y-72569819D02*
X199193428Y-72569819D01*
X199622000Y-71474580D02*
X199717238Y-71474580D01*
X199812476Y-71522200D01*
X199860095Y-71569819D01*
X199907714Y-71665057D01*
X199955333Y-71855533D01*
X199955333Y-72093628D01*
X199907714Y-72284104D01*
X199860095Y-72379342D01*
X199812476Y-72426961D01*
X199717238Y-72474580D01*
X199622000Y-72474580D01*
X199526761Y-72426961D01*
X199479142Y-72379342D01*
X199431523Y-72284104D01*
X199383904Y-72093628D01*
X199383904Y-71855533D01*
X199431523Y-71665057D01*
X199479142Y-71569819D01*
X199526761Y-71522200D01*
X199622000Y-71474580D01*
X200907714Y-72474580D02*
X200336285Y-72474580D01*
X200622000Y-72474580D02*
X200622000Y-71474580D01*
X200526761Y-71617438D01*
X200431523Y-71712676D01*
X200336285Y-71760295D01*
X181479142Y-74029342D02*
X181431523Y-74076961D01*
X181288666Y-74124580D01*
X181193428Y-74124580D01*
X181050571Y-74076961D01*
X180955333Y-73981723D01*
X180907714Y-73886485D01*
X180860095Y-73696009D01*
X180860095Y-73553152D01*
X180907714Y-73362676D01*
X180955333Y-73267438D01*
X181050571Y-73172200D01*
X181193428Y-73124580D01*
X181288666Y-73124580D01*
X181431523Y-73172200D01*
X181479142Y-73219819D01*
X182050571Y-74124580D02*
X181955333Y-74076961D01*
X181907714Y-74029342D01*
X181860095Y-73934104D01*
X181860095Y-73648390D01*
X181907714Y-73553152D01*
X181955333Y-73505533D01*
X182050571Y-73457914D01*
X182193428Y-73457914D01*
X182288666Y-73505533D01*
X182336285Y-73553152D01*
X182383904Y-73648390D01*
X182383904Y-73934104D01*
X182336285Y-74029342D01*
X182288666Y-74076961D01*
X182193428Y-74124580D01*
X182050571Y-74124580D01*
X182812476Y-73457914D02*
X182812476Y-74457914D01*
X182812476Y-73505533D02*
X182907714Y-73457914D01*
X183098190Y-73457914D01*
X183193428Y-73505533D01*
X183241047Y-73553152D01*
X183288666Y-73648390D01*
X183288666Y-73934104D01*
X183241047Y-74029342D01*
X183193428Y-74076961D01*
X183098190Y-74124580D01*
X182907714Y-74124580D01*
X182812476Y-74076961D01*
X183717238Y-73457914D02*
X183717238Y-74457914D01*
X183717238Y-73505533D02*
X183812476Y-73457914D01*
X184002952Y-73457914D01*
X184098190Y-73505533D01*
X184145809Y-73553152D01*
X184193428Y-73648390D01*
X184193428Y-73934104D01*
X184145809Y-74029342D01*
X184098190Y-74076961D01*
X184002952Y-74124580D01*
X183812476Y-74124580D01*
X183717238Y-74076961D01*
X185002952Y-74076961D02*
X184907714Y-74124580D01*
X184717238Y-74124580D01*
X184622000Y-74076961D01*
X184574380Y-73981723D01*
X184574380Y-73600771D01*
X184622000Y-73505533D01*
X184717238Y-73457914D01*
X184907714Y-73457914D01*
X185002952Y-73505533D01*
X185050571Y-73600771D01*
X185050571Y-73696009D01*
X184574380Y-73791247D01*
X185479142Y-74124580D02*
X185479142Y-73457914D01*
X185479142Y-73648390D02*
X185526761Y-73553152D01*
X185574380Y-73505533D01*
X185669619Y-73457914D01*
X185764857Y-73457914D01*
X187336285Y-74124580D02*
X186860095Y-74124580D01*
X186860095Y-73124580D01*
X188098190Y-74124580D02*
X188098190Y-73600771D01*
X188050571Y-73505533D01*
X187955333Y-73457914D01*
X187764857Y-73457914D01*
X187669619Y-73505533D01*
X188098190Y-74076961D02*
X188002952Y-74124580D01*
X187764857Y-74124580D01*
X187669619Y-74076961D01*
X187622000Y-73981723D01*
X187622000Y-73886485D01*
X187669619Y-73791247D01*
X187764857Y-73743628D01*
X188002952Y-73743628D01*
X188098190Y-73696009D01*
X188479142Y-73457914D02*
X188717238Y-74124580D01*
X188955333Y-73457914D02*
X188717238Y-74124580D01*
X188622000Y-74362676D01*
X188574380Y-74410295D01*
X188479142Y-74457914D01*
X189717238Y-74076961D02*
X189622000Y-74124580D01*
X189431523Y-74124580D01*
X189336285Y-74076961D01*
X189288666Y-73981723D01*
X189288666Y-73600771D01*
X189336285Y-73505533D01*
X189431523Y-73457914D01*
X189622000Y-73457914D01*
X189717238Y-73505533D01*
X189764857Y-73600771D01*
X189764857Y-73696009D01*
X189288666Y-73791247D01*
X190193428Y-74124580D02*
X190193428Y-73457914D01*
X190193428Y-73648390D02*
X190241047Y-73553152D01*
X190288666Y-73505533D01*
X190383904Y-73457914D01*
X190479142Y-73457914D01*
X190764857Y-74076961D02*
X190860095Y-74124580D01*
X191050571Y-74124580D01*
X191145809Y-74076961D01*
X191193428Y-73981723D01*
X191193428Y-73934104D01*
X191145809Y-73838866D01*
X191050571Y-73791247D01*
X190907714Y-73791247D01*
X190812476Y-73743628D01*
X190764857Y-73648390D01*
X190764857Y-73600771D01*
X190812476Y-73505533D01*
X190907714Y-73457914D01*
X191050571Y-73457914D01*
X191145809Y-73505533D01*
X191622000Y-74029342D02*
X191669619Y-74076961D01*
X191622000Y-74124580D01*
X191574380Y-74076961D01*
X191622000Y-74029342D01*
X191622000Y-74124580D01*
X191622000Y-73505533D02*
X191669619Y-73553152D01*
X191622000Y-73600771D01*
X191574380Y-73553152D01*
X191622000Y-73505533D01*
X191622000Y-73600771D01*
X192812476Y-73219819D02*
X192860095Y-73172200D01*
X192955333Y-73124580D01*
X193193428Y-73124580D01*
X193288666Y-73172200D01*
X193336285Y-73219819D01*
X193383904Y-73315057D01*
X193383904Y-73410295D01*
X193336285Y-73553152D01*
X192764857Y-74124580D01*
X193383904Y-74124580D01*
X178407714Y-75250771D02*
X178550571Y-75298390D01*
X178598190Y-75346009D01*
X178645809Y-75441247D01*
X178645809Y-75584104D01*
X178598190Y-75679342D01*
X178550571Y-75726961D01*
X178455333Y-75774580D01*
X178074380Y-75774580D01*
X178074380Y-74774580D01*
X178407714Y-74774580D01*
X178502952Y-74822200D01*
X178550571Y-74869819D01*
X178598190Y-74965057D01*
X178598190Y-75060295D01*
X178550571Y-75155533D01*
X178502952Y-75203152D01*
X178407714Y-75250771D01*
X178074380Y-75250771D01*
X179217238Y-75774580D02*
X179122000Y-75726961D01*
X179074380Y-75679342D01*
X179026761Y-75584104D01*
X179026761Y-75298390D01*
X179074380Y-75203152D01*
X179122000Y-75155533D01*
X179217238Y-75107914D01*
X179360095Y-75107914D01*
X179455333Y-75155533D01*
X179502952Y-75203152D01*
X179550571Y-75298390D01*
X179550571Y-75584104D01*
X179502952Y-75679342D01*
X179455333Y-75726961D01*
X179360095Y-75774580D01*
X179217238Y-75774580D01*
X180407714Y-75774580D02*
X180407714Y-75250771D01*
X180360095Y-75155533D01*
X180264857Y-75107914D01*
X180074380Y-75107914D01*
X179979142Y-75155533D01*
X180407714Y-75726961D02*
X180312476Y-75774580D01*
X180074380Y-75774580D01*
X179979142Y-75726961D01*
X179931523Y-75631723D01*
X179931523Y-75536485D01*
X179979142Y-75441247D01*
X180074380Y-75393628D01*
X180312476Y-75393628D01*
X180407714Y-75346009D01*
X180883904Y-75774580D02*
X180883904Y-75107914D01*
X180883904Y-75298390D02*
X180931523Y-75203152D01*
X180979142Y-75155533D01*
X181074380Y-75107914D01*
X181169619Y-75107914D01*
X181931523Y-75774580D02*
X181931523Y-74774580D01*
X181931523Y-75726961D02*
X181836285Y-75774580D01*
X181645809Y-75774580D01*
X181550571Y-75726961D01*
X181502952Y-75679342D01*
X181455333Y-75584104D01*
X181455333Y-75298390D01*
X181502952Y-75203152D01*
X181550571Y-75155533D01*
X181645809Y-75107914D01*
X181836285Y-75107914D01*
X181931523Y-75155533D01*
X183026761Y-74774580D02*
X183598190Y-74774580D01*
X183312476Y-75774580D02*
X183312476Y-74774580D01*
X183931523Y-75774580D02*
X183931523Y-74774580D01*
X184360095Y-75774580D02*
X184360095Y-75250771D01*
X184312476Y-75155533D01*
X184217238Y-75107914D01*
X184074380Y-75107914D01*
X183979142Y-75155533D01*
X183931523Y-75203152D01*
X184836285Y-75774580D02*
X184836285Y-75107914D01*
X184836285Y-74774580D02*
X184788666Y-74822200D01*
X184836285Y-74869819D01*
X184883904Y-74822200D01*
X184836285Y-74774580D01*
X184836285Y-74869819D01*
X185741047Y-75726961D02*
X185645809Y-75774580D01*
X185455333Y-75774580D01*
X185360095Y-75726961D01*
X185312476Y-75679342D01*
X185264857Y-75584104D01*
X185264857Y-75298390D01*
X185312476Y-75203152D01*
X185360095Y-75155533D01*
X185455333Y-75107914D01*
X185645809Y-75107914D01*
X185741047Y-75155533D01*
X186169619Y-75774580D02*
X186169619Y-74774580D01*
X186264857Y-75393628D02*
X186550571Y-75774580D01*
X186550571Y-75107914D02*
X186169619Y-75488866D01*
X186979142Y-75107914D02*
X186979142Y-75774580D01*
X186979142Y-75203152D02*
X187026761Y-75155533D01*
X187122000Y-75107914D01*
X187264857Y-75107914D01*
X187360095Y-75155533D01*
X187407714Y-75250771D01*
X187407714Y-75774580D01*
X188264857Y-75726961D02*
X188169619Y-75774580D01*
X187979142Y-75774580D01*
X187883904Y-75726961D01*
X187836285Y-75631723D01*
X187836285Y-75250771D01*
X187883904Y-75155533D01*
X187979142Y-75107914D01*
X188169619Y-75107914D01*
X188264857Y-75155533D01*
X188312476Y-75250771D01*
X188312476Y-75346009D01*
X187836285Y-75441247D01*
X188693428Y-75726961D02*
X188788666Y-75774580D01*
X188979142Y-75774580D01*
X189074380Y-75726961D01*
X189122000Y-75631723D01*
X189122000Y-75584104D01*
X189074380Y-75488866D01*
X188979142Y-75441247D01*
X188836285Y-75441247D01*
X188741047Y-75393628D01*
X188693428Y-75298390D01*
X188693428Y-75250771D01*
X188741047Y-75155533D01*
X188836285Y-75107914D01*
X188979142Y-75107914D01*
X189074380Y-75155533D01*
X189502952Y-75726961D02*
X189598190Y-75774580D01*
X189788666Y-75774580D01*
X189883904Y-75726961D01*
X189931523Y-75631723D01*
X189931523Y-75584104D01*
X189883904Y-75488866D01*
X189788666Y-75441247D01*
X189645809Y-75441247D01*
X189550571Y-75393628D01*
X189502952Y-75298390D01*
X189502952Y-75250771D01*
X189550571Y-75155533D01*
X189645809Y-75107914D01*
X189788666Y-75107914D01*
X189883904Y-75155533D01*
X190360095Y-75679342D02*
X190407714Y-75726961D01*
X190360095Y-75774580D01*
X190312476Y-75726961D01*
X190360095Y-75679342D01*
X190360095Y-75774580D01*
X190360095Y-75155533D02*
X190407714Y-75203152D01*
X190360095Y-75250771D01*
X190312476Y-75203152D01*
X190360095Y-75155533D01*
X190360095Y-75250771D01*
X192121999Y-75774580D02*
X191550571Y-75774580D01*
X191836285Y-75774580D02*
X191836285Y-74774580D01*
X191741047Y-74917438D01*
X191645809Y-75012676D01*
X191550571Y-75060295D01*
X192550571Y-75679342D02*
X192598190Y-75726961D01*
X192550571Y-75774580D01*
X192502952Y-75726961D01*
X192550571Y-75679342D01*
X192550571Y-75774580D01*
X193455333Y-74774580D02*
X193264857Y-74774580D01*
X193169619Y-74822200D01*
X193121999Y-74869819D01*
X193026761Y-75012676D01*
X192979142Y-75203152D01*
X192979142Y-75584104D01*
X193026761Y-75679342D01*
X193074380Y-75726961D01*
X193169619Y-75774580D01*
X193360095Y-75774580D01*
X193455333Y-75726961D01*
X193502952Y-75679342D01*
X193550571Y-75584104D01*
X193550571Y-75346009D01*
X193502952Y-75250771D01*
X193455333Y-75203152D01*
X193360095Y-75155533D01*
X193169619Y-75155533D01*
X193074380Y-75203152D01*
X193026761Y-75250771D01*
X192979142Y-75346009D01*
X193979142Y-75774580D02*
X193979142Y-75107914D01*
X193979142Y-75203152D02*
X194026761Y-75155533D01*
X194121999Y-75107914D01*
X194264857Y-75107914D01*
X194360095Y-75155533D01*
X194407714Y-75250771D01*
X194407714Y-75774580D01*
X194407714Y-75250771D02*
X194455333Y-75155533D01*
X194550571Y-75107914D01*
X194693428Y-75107914D01*
X194788666Y-75155533D01*
X194836285Y-75250771D01*
X194836285Y-75774580D01*
X195312476Y-75774580D02*
X195312476Y-75107914D01*
X195312476Y-75203152D02*
X195360095Y-75155533D01*
X195455333Y-75107914D01*
X195598190Y-75107914D01*
X195693428Y-75155533D01*
X195741047Y-75250771D01*
X195741047Y-75774580D01*
X195741047Y-75250771D02*
X195788666Y-75155533D01*
X195883904Y-75107914D01*
X196026761Y-75107914D01*
X196121999Y-75155533D01*
X196169619Y-75250771D01*
X196169619Y-75774580D01*
X182336285Y-77424580D02*
X182336285Y-76424580D01*
X182669619Y-77138866D01*
X183002952Y-76424580D01*
X183002952Y-77424580D01*
X183907714Y-77424580D02*
X183907714Y-76900771D01*
X183860095Y-76805533D01*
X183764857Y-76757914D01*
X183574380Y-76757914D01*
X183479142Y-76805533D01*
X183907714Y-77376961D02*
X183812476Y-77424580D01*
X183574380Y-77424580D01*
X183479142Y-77376961D01*
X183431523Y-77281723D01*
X183431523Y-77186485D01*
X183479142Y-77091247D01*
X183574380Y-77043628D01*
X183812476Y-77043628D01*
X183907714Y-76996009D01*
X184241047Y-76757914D02*
X184622000Y-76757914D01*
X184383904Y-76424580D02*
X184383904Y-77281723D01*
X184431523Y-77376961D01*
X184526761Y-77424580D01*
X184622000Y-77424580D01*
X185336285Y-77376961D02*
X185241047Y-77424580D01*
X185050571Y-77424580D01*
X184955333Y-77376961D01*
X184907714Y-77281723D01*
X184907714Y-76900771D01*
X184955333Y-76805533D01*
X185050571Y-76757914D01*
X185241047Y-76757914D01*
X185336285Y-76805533D01*
X185383904Y-76900771D01*
X185383904Y-76996009D01*
X184907714Y-77091247D01*
X185812476Y-77424580D02*
X185812476Y-76757914D01*
X185812476Y-76948390D02*
X185860095Y-76853152D01*
X185907714Y-76805533D01*
X186002952Y-76757914D01*
X186098190Y-76757914D01*
X186431523Y-77424580D02*
X186431523Y-76757914D01*
X186431523Y-76424580D02*
X186383904Y-76472200D01*
X186431523Y-76519819D01*
X186479142Y-76472200D01*
X186431523Y-76424580D01*
X186431523Y-76519819D01*
X187336285Y-77424580D02*
X187336285Y-76900771D01*
X187288666Y-76805533D01*
X187193428Y-76757914D01*
X187002952Y-76757914D01*
X186907714Y-76805533D01*
X187336285Y-77376961D02*
X187241047Y-77424580D01*
X187002952Y-77424580D01*
X186907714Y-77376961D01*
X186860095Y-77281723D01*
X186860095Y-77186485D01*
X186907714Y-77091247D01*
X187002952Y-77043628D01*
X187241047Y-77043628D01*
X187336285Y-76996009D01*
X187955333Y-77424580D02*
X187860095Y-77376961D01*
X187812476Y-77281723D01*
X187812476Y-76424580D01*
X188336285Y-77329342D02*
X188383904Y-77376961D01*
X188336285Y-77424580D01*
X188288666Y-77376961D01*
X188336285Y-77329342D01*
X188336285Y-77424580D01*
X188336285Y-76805533D02*
X188383904Y-76853152D01*
X188336285Y-76900771D01*
X188288666Y-76853152D01*
X188336285Y-76805533D01*
X188336285Y-76900771D01*
X189907714Y-76900771D02*
X189574380Y-76900771D01*
X189574380Y-77424580D02*
X189574380Y-76424580D01*
X190050571Y-76424580D01*
X191002952Y-77424580D02*
X190669619Y-76948390D01*
X190431523Y-77424580D02*
X190431523Y-76424580D01*
X190812476Y-76424580D01*
X190907714Y-76472200D01*
X190955333Y-76519819D01*
X191002952Y-76615057D01*
X191002952Y-76757914D01*
X190955333Y-76853152D01*
X190907714Y-76900771D01*
X190812476Y-76948390D01*
X190431523Y-76948390D01*
X191860095Y-76757914D02*
X191860095Y-77424580D01*
X191622000Y-76376961D02*
X191383904Y-77091247D01*
X192002952Y-77091247D01*
X176622000Y-79074580D02*
X176622000Y-78074580D01*
X177002952Y-78074580D01*
X177098190Y-78122200D01*
X177145809Y-78169819D01*
X177193428Y-78265057D01*
X177193428Y-78407914D01*
X177145809Y-78503152D01*
X177098190Y-78550771D01*
X177002952Y-78598390D01*
X176622000Y-78598390D01*
X178193428Y-78979342D02*
X178145809Y-79026961D01*
X178002952Y-79074580D01*
X177907714Y-79074580D01*
X177764857Y-79026961D01*
X177669619Y-78931723D01*
X177622000Y-78836485D01*
X177574380Y-78646009D01*
X177574380Y-78503152D01*
X177622000Y-78312676D01*
X177669619Y-78217438D01*
X177764857Y-78122200D01*
X177907714Y-78074580D01*
X178002952Y-78074580D01*
X178145809Y-78122200D01*
X178193428Y-78169819D01*
X178955333Y-78550771D02*
X179098190Y-78598390D01*
X179145809Y-78646009D01*
X179193428Y-78741247D01*
X179193428Y-78884104D01*
X179145809Y-78979342D01*
X179098190Y-79026961D01*
X179002952Y-79074580D01*
X178622000Y-79074580D01*
X178622000Y-78074580D01*
X178955333Y-78074580D01*
X179050571Y-78122200D01*
X179098190Y-78169819D01*
X179145809Y-78265057D01*
X179145809Y-78360295D01*
X179098190Y-78455533D01*
X179050571Y-78503152D01*
X178955333Y-78550771D01*
X178622000Y-78550771D01*
X180383904Y-79074580D02*
X180383904Y-78074580D01*
X180622000Y-78074580D01*
X180764857Y-78122200D01*
X180860095Y-78217438D01*
X180907714Y-78312676D01*
X180955333Y-78503152D01*
X180955333Y-78646009D01*
X180907714Y-78836485D01*
X180860095Y-78931723D01*
X180764857Y-79026961D01*
X180622000Y-79074580D01*
X180383904Y-79074580D01*
X181383904Y-79074580D02*
X181383904Y-78407914D01*
X181383904Y-78074580D02*
X181336285Y-78122200D01*
X181383904Y-78169819D01*
X181431523Y-78122200D01*
X181383904Y-78074580D01*
X181383904Y-78169819D01*
X181860095Y-79074580D02*
X181860095Y-78407914D01*
X181860095Y-78503152D02*
X181907714Y-78455533D01*
X182002952Y-78407914D01*
X182145809Y-78407914D01*
X182241047Y-78455533D01*
X182288666Y-78550771D01*
X182288666Y-79074580D01*
X182288666Y-78550771D02*
X182336285Y-78455533D01*
X182431523Y-78407914D01*
X182574380Y-78407914D01*
X182669619Y-78455533D01*
X182717238Y-78550771D01*
X182717238Y-79074580D01*
X183574380Y-79026961D02*
X183479142Y-79074580D01*
X183288666Y-79074580D01*
X183193428Y-79026961D01*
X183145809Y-78931723D01*
X183145809Y-78550771D01*
X183193428Y-78455533D01*
X183288666Y-78407914D01*
X183479142Y-78407914D01*
X183574380Y-78455533D01*
X183622000Y-78550771D01*
X183622000Y-78646009D01*
X183145809Y-78741247D01*
X184050571Y-78407914D02*
X184050571Y-79074580D01*
X184050571Y-78503152D02*
X184098190Y-78455533D01*
X184193428Y-78407914D01*
X184336285Y-78407914D01*
X184431523Y-78455533D01*
X184479142Y-78550771D01*
X184479142Y-79074580D01*
X184907714Y-79026961D02*
X185002952Y-79074580D01*
X185193428Y-79074580D01*
X185288666Y-79026961D01*
X185336285Y-78931723D01*
X185336285Y-78884104D01*
X185288666Y-78788866D01*
X185193428Y-78741247D01*
X185050571Y-78741247D01*
X184955333Y-78693628D01*
X184907714Y-78598390D01*
X184907714Y-78550771D01*
X184955333Y-78455533D01*
X185050571Y-78407914D01*
X185193428Y-78407914D01*
X185288666Y-78455533D01*
X185764857Y-79074580D02*
X185764857Y-78407914D01*
X185764857Y-78074580D02*
X185717238Y-78122200D01*
X185764857Y-78169819D01*
X185812476Y-78122200D01*
X185764857Y-78074580D01*
X185764857Y-78169819D01*
X186383904Y-79074580D02*
X186288666Y-79026961D01*
X186241047Y-78979342D01*
X186193428Y-78884104D01*
X186193428Y-78598390D01*
X186241047Y-78503152D01*
X186288666Y-78455533D01*
X186383904Y-78407914D01*
X186526761Y-78407914D01*
X186622000Y-78455533D01*
X186669619Y-78503152D01*
X186717238Y-78598390D01*
X186717238Y-78884104D01*
X186669619Y-78979342D01*
X186622000Y-79026961D01*
X186526761Y-79074580D01*
X186383904Y-79074580D01*
X187145809Y-78407914D02*
X187145809Y-79074580D01*
X187145809Y-78503152D02*
X187193428Y-78455533D01*
X187288666Y-78407914D01*
X187431523Y-78407914D01*
X187526761Y-78455533D01*
X187574380Y-78550771D01*
X187574380Y-79074580D01*
X188050571Y-78979342D02*
X188098190Y-79026961D01*
X188050571Y-79074580D01*
X188002952Y-79026961D01*
X188050571Y-78979342D01*
X188050571Y-79074580D01*
X188050571Y-78455533D02*
X188098190Y-78503152D01*
X188050571Y-78550771D01*
X188002952Y-78503152D01*
X188050571Y-78455533D01*
X188050571Y-78550771D01*
X189717238Y-78074580D02*
X189526761Y-78074580D01*
X189431523Y-78122200D01*
X189383904Y-78169819D01*
X189288666Y-78312676D01*
X189241047Y-78503152D01*
X189241047Y-78884104D01*
X189288666Y-78979342D01*
X189336285Y-79026961D01*
X189431523Y-79074580D01*
X189622000Y-79074580D01*
X189717238Y-79026961D01*
X189764857Y-78979342D01*
X189812476Y-78884104D01*
X189812476Y-78646009D01*
X189764857Y-78550771D01*
X189717238Y-78503152D01*
X189622000Y-78455533D01*
X189431523Y-78455533D01*
X189336285Y-78503152D01*
X189288666Y-78550771D01*
X189241047Y-78646009D01*
X190431523Y-78074580D02*
X190526761Y-78074580D01*
X190622000Y-78122200D01*
X190669619Y-78169819D01*
X190717238Y-78265057D01*
X190764857Y-78455533D01*
X190764857Y-78693628D01*
X190717238Y-78884104D01*
X190669619Y-78979342D01*
X190622000Y-79026961D01*
X190526761Y-79074580D01*
X190431523Y-79074580D01*
X190336285Y-79026961D01*
X190288666Y-78979342D01*
X190241047Y-78884104D01*
X190193428Y-78693628D01*
X190193428Y-78455533D01*
X190241047Y-78265057D01*
X190288666Y-78169819D01*
X190336285Y-78122200D01*
X190431523Y-78074580D01*
X191860095Y-79074580D02*
X192383904Y-78407914D01*
X191860095Y-78407914D02*
X192383904Y-79074580D01*
X193955333Y-78407914D02*
X193955333Y-79074580D01*
X193717238Y-78026961D02*
X193479142Y-78741247D01*
X194098190Y-78741247D01*
X194669619Y-78074580D02*
X194764857Y-78074580D01*
X194860095Y-78122200D01*
X194907714Y-78169819D01*
X194955333Y-78265057D01*
X195002952Y-78455533D01*
X195002952Y-78693628D01*
X194955333Y-78884104D01*
X194907714Y-78979342D01*
X194860095Y-79026961D01*
X194764857Y-79074580D01*
X194669619Y-79074580D01*
X194574380Y-79026961D01*
X194526761Y-78979342D01*
X194479142Y-78884104D01*
X194431523Y-78693628D01*
X194431523Y-78455533D01*
X194479142Y-78265057D01*
X194526761Y-78169819D01*
X194574380Y-78122200D01*
X194669619Y-78074580D01*
X195431523Y-79074580D02*
X195431523Y-78407914D01*
X195431523Y-78503152D02*
X195479142Y-78455533D01*
X195574380Y-78407914D01*
X195717238Y-78407914D01*
X195812476Y-78455533D01*
X195860095Y-78550771D01*
X195860095Y-79074580D01*
X195860095Y-78550771D02*
X195907714Y-78455533D01*
X196002952Y-78407914D01*
X196145809Y-78407914D01*
X196241047Y-78455533D01*
X196288666Y-78550771D01*
X196288666Y-79074580D01*
X196764857Y-79074580D02*
X196764857Y-78407914D01*
X196764857Y-78503152D02*
X196812476Y-78455533D01*
X196907714Y-78407914D01*
X197050571Y-78407914D01*
X197145809Y-78455533D01*
X197193428Y-78550771D01*
X197193428Y-79074580D01*
X197193428Y-78550771D02*
X197241047Y-78455533D01*
X197336285Y-78407914D01*
X197479142Y-78407914D01*
X197574380Y-78455533D01*
X197622000Y-78550771D01*
X197622000Y-79074580D01*
X178931523Y-80200771D02*
X178598190Y-80200771D01*
X178598190Y-80724580D02*
X178598190Y-79724580D01*
X179074380Y-79724580D01*
X179455333Y-80724580D02*
X179455333Y-80057914D01*
X179455333Y-79724580D02*
X179407714Y-79772200D01*
X179455333Y-79819819D01*
X179502952Y-79772200D01*
X179455333Y-79724580D01*
X179455333Y-79819819D01*
X179931523Y-80057914D02*
X179931523Y-80724580D01*
X179931523Y-80153152D02*
X179979142Y-80105533D01*
X180074380Y-80057914D01*
X180217238Y-80057914D01*
X180312476Y-80105533D01*
X180360095Y-80200771D01*
X180360095Y-80724580D01*
X180836285Y-80724580D02*
X180836285Y-80057914D01*
X180836285Y-79724580D02*
X180788666Y-79772200D01*
X180836285Y-79819819D01*
X180883904Y-79772200D01*
X180836285Y-79724580D01*
X180836285Y-79819819D01*
X181264857Y-80676961D02*
X181360095Y-80724580D01*
X181550571Y-80724580D01*
X181645809Y-80676961D01*
X181693428Y-80581723D01*
X181693428Y-80534104D01*
X181645809Y-80438866D01*
X181550571Y-80391247D01*
X181407714Y-80391247D01*
X181312476Y-80343628D01*
X181264857Y-80248390D01*
X181264857Y-80200771D01*
X181312476Y-80105533D01*
X181407714Y-80057914D01*
X181550571Y-80057914D01*
X181645809Y-80105533D01*
X182122000Y-80724580D02*
X182122000Y-79724580D01*
X182550571Y-80724580D02*
X182550571Y-80200771D01*
X182502952Y-80105533D01*
X182407714Y-80057914D01*
X182264857Y-80057914D01*
X182169619Y-80105533D01*
X182122000Y-80153152D01*
X183026761Y-80629342D02*
X183074380Y-80676961D01*
X183026761Y-80724580D01*
X182979142Y-80676961D01*
X183026761Y-80629342D01*
X183026761Y-80724580D01*
X183026761Y-80105533D02*
X183074380Y-80153152D01*
X183026761Y-80200771D01*
X182979142Y-80153152D01*
X183026761Y-80105533D01*
X183026761Y-80200771D01*
X184741047Y-80724580D02*
X184264857Y-80724580D01*
X184264857Y-79724580D01*
X185455333Y-80676961D02*
X185360095Y-80724580D01*
X185169619Y-80724580D01*
X185074380Y-80676961D01*
X185026761Y-80581723D01*
X185026761Y-80200771D01*
X185074380Y-80105533D01*
X185169619Y-80057914D01*
X185360095Y-80057914D01*
X185455333Y-80105533D01*
X185502952Y-80200771D01*
X185502952Y-80296009D01*
X185026761Y-80391247D01*
X186360095Y-80724580D02*
X186360095Y-80200771D01*
X186312476Y-80105533D01*
X186217238Y-80057914D01*
X186026761Y-80057914D01*
X185931523Y-80105533D01*
X186360095Y-80676961D02*
X186264857Y-80724580D01*
X186026761Y-80724580D01*
X185931523Y-80676961D01*
X185883904Y-80581723D01*
X185883904Y-80486485D01*
X185931523Y-80391247D01*
X186026761Y-80343628D01*
X186264857Y-80343628D01*
X186360095Y-80296009D01*
X187264857Y-80724580D02*
X187264857Y-79724580D01*
X187264857Y-80676961D02*
X187169619Y-80724580D01*
X186979142Y-80724580D01*
X186883904Y-80676961D01*
X186836285Y-80629342D01*
X186788666Y-80534104D01*
X186788666Y-80248390D01*
X186836285Y-80153152D01*
X186883904Y-80105533D01*
X186979142Y-80057914D01*
X187169619Y-80057914D01*
X187264857Y-80105533D01*
X188836285Y-80200771D02*
X188502952Y-80200771D01*
X188502952Y-80724580D02*
X188502952Y-79724580D01*
X188979142Y-79724580D01*
X189360095Y-80724580D02*
X189360095Y-80057914D01*
X189360095Y-80248390D02*
X189407714Y-80153152D01*
X189455333Y-80105533D01*
X189550571Y-80057914D01*
X189645809Y-80057914D01*
X190360095Y-80676961D02*
X190264857Y-80724580D01*
X190074380Y-80724580D01*
X189979142Y-80676961D01*
X189931523Y-80581723D01*
X189931523Y-80200771D01*
X189979142Y-80105533D01*
X190074380Y-80057914D01*
X190264857Y-80057914D01*
X190360095Y-80105533D01*
X190407714Y-80200771D01*
X190407714Y-80296009D01*
X189931523Y-80391247D01*
X191217238Y-80676961D02*
X191121999Y-80724580D01*
X190931523Y-80724580D01*
X190836285Y-80676961D01*
X190788666Y-80581723D01*
X190788666Y-80200771D01*
X190836285Y-80105533D01*
X190931523Y-80057914D01*
X191121999Y-80057914D01*
X191217238Y-80105533D01*
X191264857Y-80200771D01*
X191264857Y-80296009D01*
X190788666Y-80391247D01*
X192455333Y-80724580D02*
X192455333Y-79724580D01*
X192455333Y-80200771D02*
X193026761Y-80200771D01*
X193026761Y-80724580D02*
X193026761Y-79724580D01*
X193455333Y-80438866D02*
X193931523Y-80438866D01*
X193360095Y-80724580D02*
X193693428Y-79724580D01*
X194026761Y-80724580D01*
X194312476Y-80676961D02*
X194455333Y-80724580D01*
X194693428Y-80724580D01*
X194788666Y-80676961D01*
X194836285Y-80629342D01*
X194883904Y-80534104D01*
X194883904Y-80438866D01*
X194836285Y-80343628D01*
X194788666Y-80296009D01*
X194693428Y-80248390D01*
X194502952Y-80200771D01*
X194407714Y-80153152D01*
X194360095Y-80105533D01*
X194312476Y-80010295D01*
X194312476Y-79915057D01*
X194360095Y-79819819D01*
X194407714Y-79772200D01*
X194502952Y-79724580D01*
X194741047Y-79724580D01*
X194883904Y-79772200D01*
X195788666Y-80724580D02*
X195312476Y-80724580D01*
X195312476Y-79724580D01*
X180574380Y-82279342D02*
X180526761Y-82326961D01*
X180383904Y-82374580D01*
X180288666Y-82374580D01*
X180145809Y-82326961D01*
X180050571Y-82231723D01*
X180002952Y-82136485D01*
X179955333Y-81946009D01*
X179955333Y-81803152D01*
X180002952Y-81612676D01*
X180050571Y-81517438D01*
X180145809Y-81422200D01*
X180288666Y-81374580D01*
X180383904Y-81374580D01*
X180526761Y-81422200D01*
X180574380Y-81469819D01*
X181145809Y-82374580D02*
X181050571Y-82326961D01*
X181002952Y-82279342D01*
X180955333Y-82184104D01*
X180955333Y-81898390D01*
X181002952Y-81803152D01*
X181050571Y-81755533D01*
X181145809Y-81707914D01*
X181288666Y-81707914D01*
X181383904Y-81755533D01*
X181431523Y-81803152D01*
X181479142Y-81898390D01*
X181479142Y-82184104D01*
X181431523Y-82279342D01*
X181383904Y-82326961D01*
X181288666Y-82374580D01*
X181145809Y-82374580D01*
X181907714Y-81707914D02*
X181907714Y-82707914D01*
X181907714Y-81755533D02*
X182002952Y-81707914D01*
X182193428Y-81707914D01*
X182288666Y-81755533D01*
X182336285Y-81803152D01*
X182383904Y-81898390D01*
X182383904Y-82184104D01*
X182336285Y-82279342D01*
X182288666Y-82326961D01*
X182193428Y-82374580D01*
X182002952Y-82374580D01*
X181907714Y-82326961D01*
X182812476Y-81707914D02*
X182812476Y-82707914D01*
X182812476Y-81755533D02*
X182907714Y-81707914D01*
X183098190Y-81707914D01*
X183193428Y-81755533D01*
X183241047Y-81803152D01*
X183288666Y-81898390D01*
X183288666Y-82184104D01*
X183241047Y-82279342D01*
X183193428Y-82326961D01*
X183098190Y-82374580D01*
X182907714Y-82374580D01*
X182812476Y-82326961D01*
X184098190Y-82326961D02*
X184002952Y-82374580D01*
X183812476Y-82374580D01*
X183717238Y-82326961D01*
X183669619Y-82231723D01*
X183669619Y-81850771D01*
X183717238Y-81755533D01*
X183812476Y-81707914D01*
X184002952Y-81707914D01*
X184098190Y-81755533D01*
X184145809Y-81850771D01*
X184145809Y-81946009D01*
X183669619Y-82041247D01*
X184574380Y-82374580D02*
X184574380Y-81707914D01*
X184574380Y-81898390D02*
X184622000Y-81803152D01*
X184669619Y-81755533D01*
X184764857Y-81707914D01*
X184860095Y-81707914D01*
X185860095Y-81374580D02*
X186098190Y-82374580D01*
X186288666Y-81660295D01*
X186479142Y-82374580D01*
X186717238Y-81374580D01*
X187479142Y-82326961D02*
X187383904Y-82374580D01*
X187193428Y-82374580D01*
X187098190Y-82326961D01*
X187050571Y-82231723D01*
X187050571Y-81850771D01*
X187098190Y-81755533D01*
X187193428Y-81707914D01*
X187383904Y-81707914D01*
X187479142Y-81755533D01*
X187526761Y-81850771D01*
X187526761Y-81946009D01*
X187050571Y-82041247D01*
X187955333Y-82374580D02*
X187955333Y-81707914D01*
X187955333Y-81374580D02*
X187907714Y-81422200D01*
X187955333Y-81469819D01*
X188002952Y-81422200D01*
X187955333Y-81374580D01*
X187955333Y-81469819D01*
X188860095Y-81707914D02*
X188860095Y-82517438D01*
X188812476Y-82612676D01*
X188764857Y-82660295D01*
X188669619Y-82707914D01*
X188526761Y-82707914D01*
X188431523Y-82660295D01*
X188860095Y-82326961D02*
X188764857Y-82374580D01*
X188574380Y-82374580D01*
X188479142Y-82326961D01*
X188431523Y-82279342D01*
X188383904Y-82184104D01*
X188383904Y-81898390D01*
X188431523Y-81803152D01*
X188479142Y-81755533D01*
X188574380Y-81707914D01*
X188764857Y-81707914D01*
X188860095Y-81755533D01*
X189336285Y-82374580D02*
X189336285Y-81374580D01*
X189764857Y-82374580D02*
X189764857Y-81850771D01*
X189717238Y-81755533D01*
X189622000Y-81707914D01*
X189479142Y-81707914D01*
X189383904Y-81755533D01*
X189336285Y-81803152D01*
X190098190Y-81707914D02*
X190479142Y-81707914D01*
X190241047Y-81374580D02*
X190241047Y-82231723D01*
X190288666Y-82326961D01*
X190383904Y-82374580D01*
X190479142Y-82374580D01*
X190812476Y-82279342D02*
X190860095Y-82326961D01*
X190812476Y-82374580D01*
X190764857Y-82326961D01*
X190812476Y-82279342D01*
X190812476Y-82374580D01*
X190812476Y-81755533D02*
X190860095Y-81803152D01*
X190812476Y-81850771D01*
X190764857Y-81803152D01*
X190812476Y-81755533D01*
X190812476Y-81850771D01*
X192574380Y-82374580D02*
X192002952Y-82374580D01*
X192288666Y-82374580D02*
X192288666Y-81374580D01*
X192193428Y-81517438D01*
X192098190Y-81612676D01*
X192002952Y-81660295D01*
X193145809Y-82374580D02*
X193050571Y-82326961D01*
X193002952Y-82279342D01*
X192955333Y-82184104D01*
X192955333Y-81898390D01*
X193002952Y-81803152D01*
X193050571Y-81755533D01*
X193145809Y-81707914D01*
X193288666Y-81707914D01*
X193383904Y-81755533D01*
X193431523Y-81803152D01*
X193479142Y-81898390D01*
X193479142Y-82184104D01*
X193431523Y-82279342D01*
X193383904Y-82326961D01*
X193288666Y-82374580D01*
X193145809Y-82374580D01*
X193812476Y-81707914D02*
X194336285Y-81707914D01*
X193812476Y-82374580D01*
X194336285Y-82374580D01*
X184383904Y-84024580D02*
X184383904Y-83024580D01*
X184764857Y-83024580D01*
X184860095Y-83072200D01*
X184907714Y-83119819D01*
X184955333Y-83215057D01*
X184955333Y-83357914D01*
X184907714Y-83453152D01*
X184860095Y-83500771D01*
X184764857Y-83548390D01*
X184383904Y-83548390D01*
X185241047Y-83024580D02*
X185812476Y-83024580D01*
X185526761Y-84024580D02*
X185526761Y-83024580D01*
X186145809Y-84024580D02*
X186145809Y-83024580D01*
X186145809Y-83500771D02*
X186717238Y-83500771D01*
X186717238Y-84024580D02*
X186717238Y-83024580D01*
X187193428Y-83929342D02*
X187241047Y-83976961D01*
X187193428Y-84024580D01*
X187145809Y-83976961D01*
X187193428Y-83929342D01*
X187193428Y-84024580D01*
X187193428Y-83405533D02*
X187241047Y-83453152D01*
X187193428Y-83500771D01*
X187145809Y-83453152D01*
X187193428Y-83405533D01*
X187193428Y-83500771D01*
X188336285Y-83024580D02*
X188955333Y-83024580D01*
X188622000Y-83405533D01*
X188764857Y-83405533D01*
X188860095Y-83453152D01*
X188907714Y-83500771D01*
X188955333Y-83596009D01*
X188955333Y-83834104D01*
X188907714Y-83929342D01*
X188860095Y-83976961D01*
X188764857Y-84024580D01*
X188479142Y-84024580D01*
X188383904Y-83976961D01*
X188336285Y-83929342D01*
X189907714Y-84024580D02*
X189336285Y-84024580D01*
X189622000Y-84024580D02*
X189622000Y-83024580D01*
X189526761Y-83167438D01*
X189431523Y-83262676D01*
X189336285Y-83310295D01*
X184336285Y-85674580D02*
X184336285Y-84674580D01*
X184907714Y-85674580D01*
X184907714Y-84674580D01*
X185383904Y-85674580D02*
X185383904Y-84674580D01*
X185764857Y-84674580D01*
X185860095Y-84722200D01*
X185907714Y-84769819D01*
X185955333Y-84865057D01*
X185955333Y-85007914D01*
X185907714Y-85103152D01*
X185860095Y-85150771D01*
X185764857Y-85198390D01*
X185383904Y-85198390D01*
X186241047Y-84674580D02*
X186812476Y-84674580D01*
X186526761Y-85674580D02*
X186526761Y-84674580D01*
X187145809Y-85674580D02*
X187145809Y-84674580D01*
X187145809Y-85150771D02*
X187717238Y-85150771D01*
X187717238Y-85674580D02*
X187717238Y-84674580D01*
X188193428Y-85579342D02*
X188241047Y-85626961D01*
X188193428Y-85674580D01*
X188145809Y-85626961D01*
X188193428Y-85579342D01*
X188193428Y-85674580D01*
X188193428Y-85055533D02*
X188241047Y-85103152D01*
X188193428Y-85150771D01*
X188145809Y-85103152D01*
X188193428Y-85055533D01*
X188193428Y-85150771D01*
X189860095Y-85007914D02*
X189860095Y-85674580D01*
X189622000Y-84626961D02*
X189383904Y-85341247D01*
X190002952Y-85341247D01*
X180122000Y-88974580D02*
X179788666Y-88498390D01*
X179550571Y-88974580D02*
X179550571Y-87974580D01*
X179931523Y-87974580D01*
X180026761Y-88022200D01*
X180074380Y-88069819D01*
X180122000Y-88165057D01*
X180122000Y-88307914D01*
X180074380Y-88403152D01*
X180026761Y-88450771D01*
X179931523Y-88498390D01*
X179550571Y-88498390D01*
X180931523Y-88926961D02*
X180836285Y-88974580D01*
X180645809Y-88974580D01*
X180550571Y-88926961D01*
X180502952Y-88831723D01*
X180502952Y-88450771D01*
X180550571Y-88355533D01*
X180645809Y-88307914D01*
X180836285Y-88307914D01*
X180931523Y-88355533D01*
X180979142Y-88450771D01*
X180979142Y-88546009D01*
X180502952Y-88641247D01*
X181360095Y-88926961D02*
X181455333Y-88974580D01*
X181645809Y-88974580D01*
X181741047Y-88926961D01*
X181788666Y-88831723D01*
X181788666Y-88784104D01*
X181741047Y-88688866D01*
X181645809Y-88641247D01*
X181502952Y-88641247D01*
X181407714Y-88593628D01*
X181360095Y-88498390D01*
X181360095Y-88450771D01*
X181407714Y-88355533D01*
X181502952Y-88307914D01*
X181645809Y-88307914D01*
X181741047Y-88355533D01*
X182217238Y-88974580D02*
X182217238Y-88307914D01*
X182217238Y-87974580D02*
X182169619Y-88022200D01*
X182217238Y-88069819D01*
X182264857Y-88022200D01*
X182217238Y-87974580D01*
X182217238Y-88069819D01*
X182645809Y-88926961D02*
X182741047Y-88974580D01*
X182931523Y-88974580D01*
X183026761Y-88926961D01*
X183074380Y-88831723D01*
X183074380Y-88784104D01*
X183026761Y-88688866D01*
X182931523Y-88641247D01*
X182788666Y-88641247D01*
X182693428Y-88593628D01*
X182645809Y-88498390D01*
X182645809Y-88450771D01*
X182693428Y-88355533D01*
X182788666Y-88307914D01*
X182931523Y-88307914D01*
X183026761Y-88355533D01*
X183360095Y-88307914D02*
X183741047Y-88307914D01*
X183502952Y-87974580D02*
X183502952Y-88831723D01*
X183550571Y-88926961D01*
X183645809Y-88974580D01*
X183741047Y-88974580D01*
X185407714Y-88879342D02*
X185360095Y-88926961D01*
X185217238Y-88974580D01*
X185122000Y-88974580D01*
X184979142Y-88926961D01*
X184883904Y-88831723D01*
X184836285Y-88736485D01*
X184788666Y-88546009D01*
X184788666Y-88403152D01*
X184836285Y-88212676D01*
X184883904Y-88117438D01*
X184979142Y-88022200D01*
X185122000Y-87974580D01*
X185217238Y-87974580D01*
X185360095Y-88022200D01*
X185407714Y-88069819D01*
X185979142Y-88974580D02*
X185883904Y-88926961D01*
X185836285Y-88879342D01*
X185788666Y-88784104D01*
X185788666Y-88498390D01*
X185836285Y-88403152D01*
X185883904Y-88355533D01*
X185979142Y-88307914D01*
X186122000Y-88307914D01*
X186217238Y-88355533D01*
X186264857Y-88403152D01*
X186312476Y-88498390D01*
X186312476Y-88784104D01*
X186264857Y-88879342D01*
X186217238Y-88926961D01*
X186122000Y-88974580D01*
X185979142Y-88974580D01*
X186883904Y-88974580D02*
X186788666Y-88926961D01*
X186741047Y-88831723D01*
X186741047Y-87974580D01*
X187407714Y-88974580D02*
X187312476Y-88926961D01*
X187264857Y-88879342D01*
X187217238Y-88784104D01*
X187217238Y-88498390D01*
X187264857Y-88403152D01*
X187312476Y-88355533D01*
X187407714Y-88307914D01*
X187550571Y-88307914D01*
X187645809Y-88355533D01*
X187693428Y-88403152D01*
X187741047Y-88498390D01*
X187741047Y-88784104D01*
X187693428Y-88879342D01*
X187645809Y-88926961D01*
X187550571Y-88974580D01*
X187407714Y-88974580D01*
X188598190Y-88307914D02*
X188598190Y-88974580D01*
X188169619Y-88307914D02*
X188169619Y-88831723D01*
X188217238Y-88926961D01*
X188312476Y-88974580D01*
X188455333Y-88974580D01*
X188550571Y-88926961D01*
X188598190Y-88879342D01*
X189074380Y-88974580D02*
X189074380Y-88307914D01*
X189074380Y-88498390D02*
X189122000Y-88403152D01*
X189169619Y-88355533D01*
X189264857Y-88307914D01*
X189360095Y-88307914D01*
X189693428Y-88879342D02*
X189741047Y-88926961D01*
X189693428Y-88974580D01*
X189645809Y-88926961D01*
X189693428Y-88879342D01*
X189693428Y-88974580D01*
X189693428Y-88355533D02*
X189741047Y-88403152D01*
X189693428Y-88450771D01*
X189645809Y-88403152D01*
X189693428Y-88355533D01*
X189693428Y-88450771D01*
X191455333Y-88022200D02*
X191360095Y-87974580D01*
X191217238Y-87974580D01*
X191074380Y-88022200D01*
X190979142Y-88117438D01*
X190931523Y-88212676D01*
X190883904Y-88403152D01*
X190883904Y-88546009D01*
X190931523Y-88736485D01*
X190979142Y-88831723D01*
X191074380Y-88926961D01*
X191217238Y-88974580D01*
X191312476Y-88974580D01*
X191455333Y-88926961D01*
X191502952Y-88879342D01*
X191502952Y-88546009D01*
X191312476Y-88546009D01*
X191931523Y-88974580D02*
X191931523Y-88307914D01*
X191931523Y-88498390D02*
X191979142Y-88403152D01*
X192026761Y-88355533D01*
X192122000Y-88307914D01*
X192217238Y-88307914D01*
X192931523Y-88926961D02*
X192836285Y-88974580D01*
X192645809Y-88974580D01*
X192550571Y-88926961D01*
X192502952Y-88831723D01*
X192502952Y-88450771D01*
X192550571Y-88355533D01*
X192645809Y-88307914D01*
X192836285Y-88307914D01*
X192931523Y-88355533D01*
X192979142Y-88450771D01*
X192979142Y-88546009D01*
X192502952Y-88641247D01*
X193788666Y-88926961D02*
X193693428Y-88974580D01*
X193502952Y-88974580D01*
X193407714Y-88926961D01*
X193360095Y-88831723D01*
X193360095Y-88450771D01*
X193407714Y-88355533D01*
X193502952Y-88307914D01*
X193693428Y-88307914D01*
X193788666Y-88355533D01*
X193836285Y-88450771D01*
X193836285Y-88546009D01*
X193360095Y-88641247D01*
X194264857Y-88307914D02*
X194264857Y-88974580D01*
X194264857Y-88403152D02*
X194312476Y-88355533D01*
X194407714Y-88307914D01*
X194550571Y-88307914D01*
X194645809Y-88355533D01*
X194693428Y-88450771D01*
X194693428Y-88974580D01*
X175741047Y-91274580D02*
X176312476Y-91274580D01*
X176026761Y-92274580D02*
X176026761Y-91274580D01*
X176788666Y-92274580D02*
X176693428Y-92226961D01*
X176645809Y-92179342D01*
X176598190Y-92084104D01*
X176598190Y-91798390D01*
X176645809Y-91703152D01*
X176693428Y-91655533D01*
X176788666Y-91607914D01*
X176931523Y-91607914D01*
X177026761Y-91655533D01*
X177074380Y-91703152D01*
X177122000Y-91798390D01*
X177122000Y-92084104D01*
X177074380Y-92179342D01*
X177026761Y-92226961D01*
X176931523Y-92274580D01*
X176788666Y-92274580D01*
X177550571Y-91607914D02*
X177550571Y-92607914D01*
X177550571Y-91655533D02*
X177645809Y-91607914D01*
X177836285Y-91607914D01*
X177931523Y-91655533D01*
X177979142Y-91703152D01*
X178026761Y-91798390D01*
X178026761Y-92084104D01*
X177979142Y-92179342D01*
X177931523Y-92226961D01*
X177836285Y-92274580D01*
X177645809Y-92274580D01*
X177550571Y-92226961D01*
X179169619Y-92226961D02*
X179312476Y-92274580D01*
X179550571Y-92274580D01*
X179645809Y-92226961D01*
X179693428Y-92179342D01*
X179741047Y-92084104D01*
X179741047Y-91988866D01*
X179693428Y-91893628D01*
X179645809Y-91846009D01*
X179550571Y-91798390D01*
X179360095Y-91750771D01*
X179264857Y-91703152D01*
X179217238Y-91655533D01*
X179169619Y-91560295D01*
X179169619Y-91465057D01*
X179217238Y-91369819D01*
X179264857Y-91322200D01*
X179360095Y-91274580D01*
X179598190Y-91274580D01*
X179741047Y-91322200D01*
X180169619Y-92274580D02*
X180169619Y-91607914D01*
X180169619Y-91274580D02*
X180122000Y-91322200D01*
X180169619Y-91369819D01*
X180217238Y-91322200D01*
X180169619Y-91274580D01*
X180169619Y-91369819D01*
X180788666Y-92274580D02*
X180693428Y-92226961D01*
X180645809Y-92131723D01*
X180645809Y-91274580D01*
X181169619Y-92274580D02*
X181169619Y-91274580D01*
X181264857Y-91893628D02*
X181550571Y-92274580D01*
X181550571Y-91607914D02*
X181169619Y-91988866D01*
X182693428Y-92226961D02*
X182836285Y-92274580D01*
X183074380Y-92274580D01*
X183169619Y-92226961D01*
X183217238Y-92179342D01*
X183264857Y-92084104D01*
X183264857Y-91988866D01*
X183217238Y-91893628D01*
X183169619Y-91846009D01*
X183074380Y-91798390D01*
X182883904Y-91750771D01*
X182788666Y-91703152D01*
X182741047Y-91655533D01*
X182693428Y-91560295D01*
X182693428Y-91465057D01*
X182741047Y-91369819D01*
X182788666Y-91322200D01*
X182883904Y-91274580D01*
X183122000Y-91274580D01*
X183264857Y-91322200D01*
X184122000Y-92226961D02*
X184026761Y-92274580D01*
X183836285Y-92274580D01*
X183741047Y-92226961D01*
X183693428Y-92179342D01*
X183645809Y-92084104D01*
X183645809Y-91798390D01*
X183693428Y-91703152D01*
X183741047Y-91655533D01*
X183836285Y-91607914D01*
X184026761Y-91607914D01*
X184122000Y-91655533D01*
X184550571Y-92274580D02*
X184550571Y-91607914D01*
X184550571Y-91798390D02*
X184598190Y-91703152D01*
X184645809Y-91655533D01*
X184741047Y-91607914D01*
X184836285Y-91607914D01*
X185550571Y-92226961D02*
X185455333Y-92274580D01*
X185264857Y-92274580D01*
X185169619Y-92226961D01*
X185122000Y-92131723D01*
X185122000Y-91750771D01*
X185169619Y-91655533D01*
X185264857Y-91607914D01*
X185455333Y-91607914D01*
X185550571Y-91655533D01*
X185598190Y-91750771D01*
X185598190Y-91846009D01*
X185122000Y-91941247D01*
X186407714Y-92226961D02*
X186312476Y-92274580D01*
X186122000Y-92274580D01*
X186026761Y-92226961D01*
X185979142Y-92131723D01*
X185979142Y-91750771D01*
X186026761Y-91655533D01*
X186122000Y-91607914D01*
X186312476Y-91607914D01*
X186407714Y-91655533D01*
X186455333Y-91750771D01*
X186455333Y-91846009D01*
X185979142Y-91941247D01*
X186883904Y-91607914D02*
X186883904Y-92274580D01*
X186883904Y-91703152D02*
X186931523Y-91655533D01*
X187026761Y-91607914D01*
X187169619Y-91607914D01*
X187264857Y-91655533D01*
X187312476Y-91750771D01*
X187312476Y-92274580D01*
X189122000Y-92274580D02*
X188788666Y-91798390D01*
X188550571Y-92274580D02*
X188550571Y-91274580D01*
X188931523Y-91274580D01*
X189026761Y-91322200D01*
X189074380Y-91369819D01*
X189122000Y-91465057D01*
X189122000Y-91607914D01*
X189074380Y-91703152D01*
X189026761Y-91750771D01*
X188931523Y-91798390D01*
X188550571Y-91798390D01*
X189931523Y-92226961D02*
X189836285Y-92274580D01*
X189645809Y-92274580D01*
X189550571Y-92226961D01*
X189502952Y-92131723D01*
X189502952Y-91750771D01*
X189550571Y-91655533D01*
X189645809Y-91607914D01*
X189836285Y-91607914D01*
X189931523Y-91655533D01*
X189979142Y-91750771D01*
X189979142Y-91846009D01*
X189502952Y-91941247D01*
X190836285Y-91607914D02*
X190836285Y-92607914D01*
X190836285Y-92226961D02*
X190741047Y-92274580D01*
X190550571Y-92274580D01*
X190455333Y-92226961D01*
X190407714Y-92179342D01*
X190360095Y-92084104D01*
X190360095Y-91798390D01*
X190407714Y-91703152D01*
X190455333Y-91655533D01*
X190550571Y-91607914D01*
X190741047Y-91607914D01*
X190836285Y-91655533D01*
X191741047Y-91607914D02*
X191741047Y-92274580D01*
X191312476Y-91607914D02*
X191312476Y-92131723D01*
X191360095Y-92226961D01*
X191455333Y-92274580D01*
X191598190Y-92274580D01*
X191693428Y-92226961D01*
X191741047Y-92179342D01*
X192217238Y-92274580D02*
X192217238Y-91607914D01*
X192217238Y-91274580D02*
X192169619Y-91322200D01*
X192217238Y-91369819D01*
X192264857Y-91322200D01*
X192217238Y-91274580D01*
X192217238Y-91369819D01*
X192693428Y-92274580D02*
X192693428Y-91607914D01*
X192693428Y-91798390D02*
X192741047Y-91703152D01*
X192788666Y-91655533D01*
X192883904Y-91607914D01*
X192979142Y-91607914D01*
X193693428Y-92226961D02*
X193598190Y-92274580D01*
X193407714Y-92274580D01*
X193312476Y-92226961D01*
X193264857Y-92131723D01*
X193264857Y-91750771D01*
X193312476Y-91655533D01*
X193407714Y-91607914D01*
X193598190Y-91607914D01*
X193693428Y-91655533D01*
X193741047Y-91750771D01*
X193741047Y-91846009D01*
X193264857Y-91941247D01*
X194598190Y-92274580D02*
X194598190Y-91274580D01*
X194598190Y-92226961D02*
X194502952Y-92274580D01*
X194312476Y-92274580D01*
X194217238Y-92226961D01*
X194169619Y-92179342D01*
X194122000Y-92084104D01*
X194122000Y-91798390D01*
X194169619Y-91703152D01*
X194217238Y-91655533D01*
X194312476Y-91607914D01*
X194502952Y-91607914D01*
X194598190Y-91655533D01*
X195074380Y-92179342D02*
X195122000Y-92226961D01*
X195074380Y-92274580D01*
X195026761Y-92226961D01*
X195074380Y-92179342D01*
X195074380Y-92274580D01*
X195074380Y-91655533D02*
X195122000Y-91703152D01*
X195074380Y-91750771D01*
X195026761Y-91703152D01*
X195074380Y-91655533D01*
X195074380Y-91750771D01*
X196502952Y-91798390D02*
X196502952Y-92274580D01*
X196169619Y-91274580D02*
X196502952Y-91798390D01*
X196836285Y-91274580D01*
X197550571Y-92226961D02*
X197455333Y-92274580D01*
X197264857Y-92274580D01*
X197169619Y-92226961D01*
X197122000Y-92131723D01*
X197122000Y-91750771D01*
X197169619Y-91655533D01*
X197264857Y-91607914D01*
X197455333Y-91607914D01*
X197550571Y-91655533D01*
X197598190Y-91750771D01*
X197598190Y-91846009D01*
X197122000Y-91941247D01*
X197979142Y-92226961D02*
X198074380Y-92274580D01*
X198264857Y-92274580D01*
X198360095Y-92226961D01*
X198407714Y-92131723D01*
X198407714Y-92084104D01*
X198360095Y-91988866D01*
X198264857Y-91941247D01*
X198122000Y-91941247D01*
X198026761Y-91893628D01*
X197979142Y-91798390D01*
X197979142Y-91750771D01*
X198026761Y-91655533D01*
X198122000Y-91607914D01*
X198264857Y-91607914D01*
X198360095Y-91655533D01*
X175860095Y-92924580D02*
X176431523Y-92924580D01*
X176145809Y-93924580D02*
X176145809Y-92924580D01*
X176907714Y-93924580D02*
X176812476Y-93876961D01*
X176764857Y-93829342D01*
X176717238Y-93734104D01*
X176717238Y-93448390D01*
X176764857Y-93353152D01*
X176812476Y-93305533D01*
X176907714Y-93257914D01*
X177050571Y-93257914D01*
X177145809Y-93305533D01*
X177193428Y-93353152D01*
X177241047Y-93448390D01*
X177241047Y-93734104D01*
X177193428Y-93829342D01*
X177145809Y-93876961D01*
X177050571Y-93924580D01*
X176907714Y-93924580D01*
X177669619Y-93257914D02*
X177669619Y-94257914D01*
X177669619Y-93305533D02*
X177764857Y-93257914D01*
X177955333Y-93257914D01*
X178050571Y-93305533D01*
X178098190Y-93353152D01*
X178145809Y-93448390D01*
X178145809Y-93734104D01*
X178098190Y-93829342D01*
X178050571Y-93876961D01*
X177955333Y-93924580D01*
X177764857Y-93924580D01*
X177669619Y-93876961D01*
X179288666Y-93876961D02*
X179431523Y-93924580D01*
X179669619Y-93924580D01*
X179764857Y-93876961D01*
X179812476Y-93829342D01*
X179860095Y-93734104D01*
X179860095Y-93638866D01*
X179812476Y-93543628D01*
X179764857Y-93496009D01*
X179669619Y-93448390D01*
X179479142Y-93400771D01*
X179383904Y-93353152D01*
X179336285Y-93305533D01*
X179288666Y-93210295D01*
X179288666Y-93115057D01*
X179336285Y-93019819D01*
X179383904Y-92972200D01*
X179479142Y-92924580D01*
X179717238Y-92924580D01*
X179860095Y-92972200D01*
X180288666Y-93924580D02*
X180288666Y-93257914D01*
X180288666Y-92924580D02*
X180241047Y-92972200D01*
X180288666Y-93019819D01*
X180336285Y-92972200D01*
X180288666Y-92924580D01*
X180288666Y-93019819D01*
X180907714Y-93924580D02*
X180812476Y-93876961D01*
X180764857Y-93781723D01*
X180764857Y-92924580D01*
X181288666Y-93924580D02*
X181288666Y-92924580D01*
X181383904Y-93543628D02*
X181669619Y-93924580D01*
X181669619Y-93257914D02*
X181288666Y-93638866D01*
X182812476Y-93876961D02*
X182955333Y-93924580D01*
X183193428Y-93924580D01*
X183288666Y-93876961D01*
X183336285Y-93829342D01*
X183383904Y-93734104D01*
X183383904Y-93638866D01*
X183336285Y-93543628D01*
X183288666Y-93496009D01*
X183193428Y-93448390D01*
X183002952Y-93400771D01*
X182907714Y-93353152D01*
X182860095Y-93305533D01*
X182812476Y-93210295D01*
X182812476Y-93115057D01*
X182860095Y-93019819D01*
X182907714Y-92972200D01*
X183002952Y-92924580D01*
X183241047Y-92924580D01*
X183383904Y-92972200D01*
X184241047Y-93876961D02*
X184145809Y-93924580D01*
X183955333Y-93924580D01*
X183860095Y-93876961D01*
X183812476Y-93829342D01*
X183764857Y-93734104D01*
X183764857Y-93448390D01*
X183812476Y-93353152D01*
X183860095Y-93305533D01*
X183955333Y-93257914D01*
X184145809Y-93257914D01*
X184241047Y-93305533D01*
X184669619Y-93924580D02*
X184669619Y-93257914D01*
X184669619Y-93448390D02*
X184717238Y-93353152D01*
X184764857Y-93305533D01*
X184860095Y-93257914D01*
X184955333Y-93257914D01*
X185669619Y-93876961D02*
X185574380Y-93924580D01*
X185383904Y-93924580D01*
X185288666Y-93876961D01*
X185241047Y-93781723D01*
X185241047Y-93400771D01*
X185288666Y-93305533D01*
X185383904Y-93257914D01*
X185574380Y-93257914D01*
X185669619Y-93305533D01*
X185717238Y-93400771D01*
X185717238Y-93496009D01*
X185241047Y-93591247D01*
X186526761Y-93876961D02*
X186431523Y-93924580D01*
X186241047Y-93924580D01*
X186145809Y-93876961D01*
X186098190Y-93781723D01*
X186098190Y-93400771D01*
X186145809Y-93305533D01*
X186241047Y-93257914D01*
X186431523Y-93257914D01*
X186526761Y-93305533D01*
X186574380Y-93400771D01*
X186574380Y-93496009D01*
X186098190Y-93591247D01*
X187002952Y-93257914D02*
X187002952Y-93924580D01*
X187002952Y-93353152D02*
X187050571Y-93305533D01*
X187145809Y-93257914D01*
X187288666Y-93257914D01*
X187383904Y-93305533D01*
X187431523Y-93400771D01*
X187431523Y-93924580D01*
X189241047Y-93829342D02*
X189193428Y-93876961D01*
X189050571Y-93924580D01*
X188955333Y-93924580D01*
X188812476Y-93876961D01*
X188717238Y-93781723D01*
X188669619Y-93686485D01*
X188622000Y-93496009D01*
X188622000Y-93353152D01*
X188669619Y-93162676D01*
X188717238Y-93067438D01*
X188812476Y-92972200D01*
X188955333Y-92924580D01*
X189050571Y-92924580D01*
X189193428Y-92972200D01*
X189241047Y-93019819D01*
X189812476Y-93924580D02*
X189717238Y-93876961D01*
X189669619Y-93829342D01*
X189622000Y-93734104D01*
X189622000Y-93448390D01*
X189669619Y-93353152D01*
X189717238Y-93305533D01*
X189812476Y-93257914D01*
X189955333Y-93257914D01*
X190050571Y-93305533D01*
X190098190Y-93353152D01*
X190145809Y-93448390D01*
X190145809Y-93734104D01*
X190098190Y-93829342D01*
X190050571Y-93876961D01*
X189955333Y-93924580D01*
X189812476Y-93924580D01*
X190717238Y-93924580D02*
X190622000Y-93876961D01*
X190574380Y-93781723D01*
X190574380Y-92924580D01*
X191241047Y-93924580D02*
X191145809Y-93876961D01*
X191098190Y-93829342D01*
X191050571Y-93734104D01*
X191050571Y-93448390D01*
X191098190Y-93353152D01*
X191145809Y-93305533D01*
X191241047Y-93257914D01*
X191383904Y-93257914D01*
X191479142Y-93305533D01*
X191526761Y-93353152D01*
X191574380Y-93448390D01*
X191574380Y-93734104D01*
X191526761Y-93829342D01*
X191479142Y-93876961D01*
X191383904Y-93924580D01*
X191241047Y-93924580D01*
X192431523Y-93257914D02*
X192431523Y-93924580D01*
X192002952Y-93257914D02*
X192002952Y-93781723D01*
X192050571Y-93876961D01*
X192145809Y-93924580D01*
X192288666Y-93924580D01*
X192383904Y-93876961D01*
X192431523Y-93829342D01*
X192907714Y-93924580D02*
X192907714Y-93257914D01*
X192907714Y-93448390D02*
X192955333Y-93353152D01*
X193002952Y-93305533D01*
X193098190Y-93257914D01*
X193193428Y-93257914D01*
X193526761Y-93829342D02*
X193574380Y-93876961D01*
X193526761Y-93924580D01*
X193479142Y-93876961D01*
X193526761Y-93829342D01*
X193526761Y-93924580D01*
X193526761Y-93305533D02*
X193574380Y-93353152D01*
X193526761Y-93400771D01*
X193479142Y-93353152D01*
X193526761Y-93305533D01*
X193526761Y-93400771D01*
X194669619Y-92924580D02*
X194907714Y-93924580D01*
X195098190Y-93210295D01*
X195288666Y-93924580D01*
X195526761Y-92924580D01*
X195907714Y-93924580D02*
X195907714Y-92924580D01*
X196336285Y-93924580D02*
X196336285Y-93400771D01*
X196288666Y-93305533D01*
X196193428Y-93257914D01*
X196050571Y-93257914D01*
X195955333Y-93305533D01*
X195907714Y-93353152D01*
X196812476Y-93924580D02*
X196812476Y-93257914D01*
X196812476Y-92924580D02*
X196764857Y-92972200D01*
X196812476Y-93019819D01*
X196860095Y-92972200D01*
X196812476Y-92924580D01*
X196812476Y-93019819D01*
X197145809Y-93257914D02*
X197526761Y-93257914D01*
X197288666Y-92924580D02*
X197288666Y-93781723D01*
X197336285Y-93876961D01*
X197431523Y-93924580D01*
X197526761Y-93924580D01*
X198241047Y-93876961D02*
X198145809Y-93924580D01*
X197955333Y-93924580D01*
X197860095Y-93876961D01*
X197812476Y-93781723D01*
X197812476Y-93400771D01*
X197860095Y-93305533D01*
X197955333Y-93257914D01*
X198145809Y-93257914D01*
X198241047Y-93305533D01*
X198288666Y-93400771D01*
X198288666Y-93496009D01*
X197812476Y-93591247D01*
X175145809Y-95050771D02*
X175288666Y-95098390D01*
X175336285Y-95146009D01*
X175383904Y-95241247D01*
X175383904Y-95384104D01*
X175336285Y-95479342D01*
X175288666Y-95526961D01*
X175193428Y-95574580D01*
X174812476Y-95574580D01*
X174812476Y-94574580D01*
X175145809Y-94574580D01*
X175241047Y-94622200D01*
X175288666Y-94669819D01*
X175336285Y-94765057D01*
X175336285Y-94860295D01*
X175288666Y-94955533D01*
X175241047Y-95003152D01*
X175145809Y-95050771D01*
X174812476Y-95050771D01*
X175955333Y-95574580D02*
X175860095Y-95526961D01*
X175812476Y-95479342D01*
X175764857Y-95384104D01*
X175764857Y-95098390D01*
X175812476Y-95003152D01*
X175860095Y-94955533D01*
X175955333Y-94907914D01*
X176098190Y-94907914D01*
X176193428Y-94955533D01*
X176241047Y-95003152D01*
X176288666Y-95098390D01*
X176288666Y-95384104D01*
X176241047Y-95479342D01*
X176193428Y-95526961D01*
X176098190Y-95574580D01*
X175955333Y-95574580D01*
X176574380Y-94907914D02*
X176955333Y-94907914D01*
X176717238Y-94574580D02*
X176717238Y-95431723D01*
X176764857Y-95526961D01*
X176860095Y-95574580D01*
X176955333Y-95574580D01*
X177145809Y-94907914D02*
X177526761Y-94907914D01*
X177288666Y-94574580D02*
X177288666Y-95431723D01*
X177336285Y-95526961D01*
X177431523Y-95574580D01*
X177526761Y-95574580D01*
X178002952Y-95574580D02*
X177907714Y-95526961D01*
X177860095Y-95479342D01*
X177812476Y-95384104D01*
X177812476Y-95098390D01*
X177860095Y-95003152D01*
X177907714Y-94955533D01*
X178002952Y-94907914D01*
X178145809Y-94907914D01*
X178241047Y-94955533D01*
X178288666Y-95003152D01*
X178336285Y-95098390D01*
X178336285Y-95384104D01*
X178288666Y-95479342D01*
X178241047Y-95526961D01*
X178145809Y-95574580D01*
X178002952Y-95574580D01*
X178764857Y-95574580D02*
X178764857Y-94907914D01*
X178764857Y-95003152D02*
X178812476Y-94955533D01*
X178907714Y-94907914D01*
X179050571Y-94907914D01*
X179145809Y-94955533D01*
X179193428Y-95050771D01*
X179193428Y-95574580D01*
X179193428Y-95050771D02*
X179241047Y-94955533D01*
X179336285Y-94907914D01*
X179479142Y-94907914D01*
X179574380Y-94955533D01*
X179622000Y-95050771D01*
X179622000Y-95574580D01*
X180812476Y-95526961D02*
X180955333Y-95574580D01*
X181193428Y-95574580D01*
X181288666Y-95526961D01*
X181336285Y-95479342D01*
X181383904Y-95384104D01*
X181383904Y-95288866D01*
X181336285Y-95193628D01*
X181288666Y-95146009D01*
X181193428Y-95098390D01*
X181002952Y-95050771D01*
X180907714Y-95003152D01*
X180860095Y-94955533D01*
X180812476Y-94860295D01*
X180812476Y-94765057D01*
X180860095Y-94669819D01*
X180907714Y-94622200D01*
X181002952Y-94574580D01*
X181241047Y-94574580D01*
X181383904Y-94622200D01*
X181812476Y-95574580D02*
X181812476Y-94907914D01*
X181812476Y-94574580D02*
X181764857Y-94622200D01*
X181812476Y-94669819D01*
X181860095Y-94622200D01*
X181812476Y-94574580D01*
X181812476Y-94669819D01*
X182431523Y-95574580D02*
X182336285Y-95526961D01*
X182288666Y-95431723D01*
X182288666Y-94574580D01*
X182812476Y-95574580D02*
X182812476Y-94574580D01*
X182907714Y-95193628D02*
X183193428Y-95574580D01*
X183193428Y-94907914D02*
X182812476Y-95288866D01*
X184336285Y-95526961D02*
X184479142Y-95574580D01*
X184717238Y-95574580D01*
X184812476Y-95526961D01*
X184860095Y-95479342D01*
X184907714Y-95384104D01*
X184907714Y-95288866D01*
X184860095Y-95193628D01*
X184812476Y-95146009D01*
X184717238Y-95098390D01*
X184526761Y-95050771D01*
X184431523Y-95003152D01*
X184383904Y-94955533D01*
X184336285Y-94860295D01*
X184336285Y-94765057D01*
X184383904Y-94669819D01*
X184431523Y-94622200D01*
X184526761Y-94574580D01*
X184764857Y-94574580D01*
X184907714Y-94622200D01*
X185764857Y-95526961D02*
X185669619Y-95574580D01*
X185479142Y-95574580D01*
X185383904Y-95526961D01*
X185336285Y-95479342D01*
X185288666Y-95384104D01*
X185288666Y-95098390D01*
X185336285Y-95003152D01*
X185383904Y-94955533D01*
X185479142Y-94907914D01*
X185669619Y-94907914D01*
X185764857Y-94955533D01*
X186193428Y-95574580D02*
X186193428Y-94907914D01*
X186193428Y-95098390D02*
X186241047Y-95003152D01*
X186288666Y-94955533D01*
X186383904Y-94907914D01*
X186479142Y-94907914D01*
X187193428Y-95526961D02*
X187098190Y-95574580D01*
X186907714Y-95574580D01*
X186812476Y-95526961D01*
X186764857Y-95431723D01*
X186764857Y-95050771D01*
X186812476Y-94955533D01*
X186907714Y-94907914D01*
X187098190Y-94907914D01*
X187193428Y-94955533D01*
X187241047Y-95050771D01*
X187241047Y-95146009D01*
X186764857Y-95241247D01*
X188050571Y-95526961D02*
X187955333Y-95574580D01*
X187764857Y-95574580D01*
X187669619Y-95526961D01*
X187622000Y-95431723D01*
X187622000Y-95050771D01*
X187669619Y-94955533D01*
X187764857Y-94907914D01*
X187955333Y-94907914D01*
X188050571Y-94955533D01*
X188098190Y-95050771D01*
X188098190Y-95146009D01*
X187622000Y-95241247D01*
X188526761Y-94907914D02*
X188526761Y-95574580D01*
X188526761Y-95003152D02*
X188574380Y-94955533D01*
X188669619Y-94907914D01*
X188812476Y-94907914D01*
X188907714Y-94955533D01*
X188955333Y-95050771D01*
X188955333Y-95574580D01*
X190764857Y-95574580D02*
X190431523Y-95098390D01*
X190193428Y-95574580D02*
X190193428Y-94574580D01*
X190574380Y-94574580D01*
X190669619Y-94622200D01*
X190717238Y-94669819D01*
X190764857Y-94765057D01*
X190764857Y-94907914D01*
X190717238Y-95003152D01*
X190669619Y-95050771D01*
X190574380Y-95098390D01*
X190193428Y-95098390D01*
X191574380Y-95526961D02*
X191479142Y-95574580D01*
X191288666Y-95574580D01*
X191193428Y-95526961D01*
X191145809Y-95431723D01*
X191145809Y-95050771D01*
X191193428Y-94955533D01*
X191288666Y-94907914D01*
X191479142Y-94907914D01*
X191574380Y-94955533D01*
X191622000Y-95050771D01*
X191622000Y-95146009D01*
X191145809Y-95241247D01*
X192479142Y-94907914D02*
X192479142Y-95907914D01*
X192479142Y-95526961D02*
X192383904Y-95574580D01*
X192193428Y-95574580D01*
X192098190Y-95526961D01*
X192050571Y-95479342D01*
X192002952Y-95384104D01*
X192002952Y-95098390D01*
X192050571Y-95003152D01*
X192098190Y-94955533D01*
X192193428Y-94907914D01*
X192383904Y-94907914D01*
X192479142Y-94955533D01*
X193383904Y-94907914D02*
X193383904Y-95574580D01*
X192955333Y-94907914D02*
X192955333Y-95431723D01*
X193002952Y-95526961D01*
X193098190Y-95574580D01*
X193241047Y-95574580D01*
X193336285Y-95526961D01*
X193383904Y-95479342D01*
X193860095Y-95574580D02*
X193860095Y-94907914D01*
X193860095Y-94574580D02*
X193812476Y-94622200D01*
X193860095Y-94669819D01*
X193907714Y-94622200D01*
X193860095Y-94574580D01*
X193860095Y-94669819D01*
X194336285Y-95574580D02*
X194336285Y-94907914D01*
X194336285Y-95098390D02*
X194383904Y-95003152D01*
X194431523Y-94955533D01*
X194526761Y-94907914D01*
X194622000Y-94907914D01*
X195336285Y-95526961D02*
X195241047Y-95574580D01*
X195050571Y-95574580D01*
X194955333Y-95526961D01*
X194907714Y-95431723D01*
X194907714Y-95050771D01*
X194955333Y-94955533D01*
X195050571Y-94907914D01*
X195241047Y-94907914D01*
X195336285Y-94955533D01*
X195383904Y-95050771D01*
X195383904Y-95146009D01*
X194907714Y-95241247D01*
X196241047Y-95574580D02*
X196241047Y-94574580D01*
X196241047Y-95526961D02*
X196145809Y-95574580D01*
X195955333Y-95574580D01*
X195860095Y-95526961D01*
X195812476Y-95479342D01*
X195764857Y-95384104D01*
X195764857Y-95098390D01*
X195812476Y-95003152D01*
X195860095Y-94955533D01*
X195955333Y-94907914D01*
X196145809Y-94907914D01*
X196241047Y-94955533D01*
X196717238Y-95479342D02*
X196764857Y-95526961D01*
X196717238Y-95574580D01*
X196669619Y-95526961D01*
X196717238Y-95479342D01*
X196717238Y-95574580D01*
X196717238Y-94955533D02*
X196764857Y-95003152D01*
X196717238Y-95050771D01*
X196669619Y-95003152D01*
X196717238Y-94955533D01*
X196717238Y-95050771D01*
X197955333Y-95574580D02*
X197955333Y-94574580D01*
X198526761Y-95574580D01*
X198526761Y-94574580D01*
X199145809Y-95574580D02*
X199050571Y-95526961D01*
X199002952Y-95479342D01*
X198955333Y-95384104D01*
X198955333Y-95098390D01*
X199002952Y-95003152D01*
X199050571Y-94955533D01*
X199145809Y-94907914D01*
X199288666Y-94907914D01*
X199383904Y-94955533D01*
X199431523Y-95003152D01*
X199479142Y-95098390D01*
X199479142Y-95384104D01*
X199431523Y-95479342D01*
X199383904Y-95526961D01*
X199288666Y-95574580D01*
X199145809Y-95574580D01*
X175479142Y-96700771D02*
X175622000Y-96748390D01*
X175669619Y-96796009D01*
X175717238Y-96891247D01*
X175717238Y-97034104D01*
X175669619Y-97129342D01*
X175622000Y-97176961D01*
X175526761Y-97224580D01*
X175145809Y-97224580D01*
X175145809Y-96224580D01*
X175479142Y-96224580D01*
X175574380Y-96272200D01*
X175622000Y-96319819D01*
X175669619Y-96415057D01*
X175669619Y-96510295D01*
X175622000Y-96605533D01*
X175574380Y-96653152D01*
X175479142Y-96700771D01*
X175145809Y-96700771D01*
X176288666Y-97224580D02*
X176193428Y-97176961D01*
X176145809Y-97129342D01*
X176098190Y-97034104D01*
X176098190Y-96748390D01*
X176145809Y-96653152D01*
X176193428Y-96605533D01*
X176288666Y-96557914D01*
X176431523Y-96557914D01*
X176526761Y-96605533D01*
X176574380Y-96653152D01*
X176622000Y-96748390D01*
X176622000Y-97034104D01*
X176574380Y-97129342D01*
X176526761Y-97176961D01*
X176431523Y-97224580D01*
X176288666Y-97224580D01*
X176907714Y-96557914D02*
X177288666Y-96557914D01*
X177050571Y-96224580D02*
X177050571Y-97081723D01*
X177098190Y-97176961D01*
X177193428Y-97224580D01*
X177288666Y-97224580D01*
X177479142Y-96557914D02*
X177860095Y-96557914D01*
X177622000Y-96224580D02*
X177622000Y-97081723D01*
X177669619Y-97176961D01*
X177764857Y-97224580D01*
X177860095Y-97224580D01*
X178336285Y-97224580D02*
X178241047Y-97176961D01*
X178193428Y-97129342D01*
X178145809Y-97034104D01*
X178145809Y-96748390D01*
X178193428Y-96653152D01*
X178241047Y-96605533D01*
X178336285Y-96557914D01*
X178479142Y-96557914D01*
X178574380Y-96605533D01*
X178622000Y-96653152D01*
X178669619Y-96748390D01*
X178669619Y-97034104D01*
X178622000Y-97129342D01*
X178574380Y-97176961D01*
X178479142Y-97224580D01*
X178336285Y-97224580D01*
X179098190Y-97224580D02*
X179098190Y-96557914D01*
X179098190Y-96653152D02*
X179145809Y-96605533D01*
X179241047Y-96557914D01*
X179383904Y-96557914D01*
X179479142Y-96605533D01*
X179526761Y-96700771D01*
X179526761Y-97224580D01*
X179526761Y-96700771D02*
X179574380Y-96605533D01*
X179669619Y-96557914D01*
X179812476Y-96557914D01*
X179907714Y-96605533D01*
X179955333Y-96700771D01*
X179955333Y-97224580D01*
X181145809Y-97176961D02*
X181288666Y-97224580D01*
X181526761Y-97224580D01*
X181622000Y-97176961D01*
X181669619Y-97129342D01*
X181717238Y-97034104D01*
X181717238Y-96938866D01*
X181669619Y-96843628D01*
X181622000Y-96796009D01*
X181526761Y-96748390D01*
X181336285Y-96700771D01*
X181241047Y-96653152D01*
X181193428Y-96605533D01*
X181145809Y-96510295D01*
X181145809Y-96415057D01*
X181193428Y-96319819D01*
X181241047Y-96272200D01*
X181336285Y-96224580D01*
X181574380Y-96224580D01*
X181717238Y-96272200D01*
X182145809Y-97224580D02*
X182145809Y-96557914D01*
X182145809Y-96224580D02*
X182098190Y-96272200D01*
X182145809Y-96319819D01*
X182193428Y-96272200D01*
X182145809Y-96224580D01*
X182145809Y-96319819D01*
X182764857Y-97224580D02*
X182669619Y-97176961D01*
X182622000Y-97081723D01*
X182622000Y-96224580D01*
X183145809Y-97224580D02*
X183145809Y-96224580D01*
X183241047Y-96843628D02*
X183526761Y-97224580D01*
X183526761Y-96557914D02*
X183145809Y-96938866D01*
X184669619Y-97176961D02*
X184812476Y-97224580D01*
X185050571Y-97224580D01*
X185145809Y-97176961D01*
X185193428Y-97129342D01*
X185241047Y-97034104D01*
X185241047Y-96938866D01*
X185193428Y-96843628D01*
X185145809Y-96796009D01*
X185050571Y-96748390D01*
X184860095Y-96700771D01*
X184764857Y-96653152D01*
X184717238Y-96605533D01*
X184669619Y-96510295D01*
X184669619Y-96415057D01*
X184717238Y-96319819D01*
X184764857Y-96272200D01*
X184860095Y-96224580D01*
X185098190Y-96224580D01*
X185241047Y-96272200D01*
X186098190Y-97176961D02*
X186002952Y-97224580D01*
X185812476Y-97224580D01*
X185717238Y-97176961D01*
X185669619Y-97129342D01*
X185622000Y-97034104D01*
X185622000Y-96748390D01*
X185669619Y-96653152D01*
X185717238Y-96605533D01*
X185812476Y-96557914D01*
X186002952Y-96557914D01*
X186098190Y-96605533D01*
X186526761Y-97224580D02*
X186526761Y-96557914D01*
X186526761Y-96748390D02*
X186574380Y-96653152D01*
X186622000Y-96605533D01*
X186717238Y-96557914D01*
X186812476Y-96557914D01*
X187526761Y-97176961D02*
X187431523Y-97224580D01*
X187241047Y-97224580D01*
X187145809Y-97176961D01*
X187098190Y-97081723D01*
X187098190Y-96700771D01*
X187145809Y-96605533D01*
X187241047Y-96557914D01*
X187431523Y-96557914D01*
X187526761Y-96605533D01*
X187574380Y-96700771D01*
X187574380Y-96796009D01*
X187098190Y-96891247D01*
X188383904Y-97176961D02*
X188288666Y-97224580D01*
X188098190Y-97224580D01*
X188002952Y-97176961D01*
X187955333Y-97081723D01*
X187955333Y-96700771D01*
X188002952Y-96605533D01*
X188098190Y-96557914D01*
X188288666Y-96557914D01*
X188383904Y-96605533D01*
X188431523Y-96700771D01*
X188431523Y-96796009D01*
X187955333Y-96891247D01*
X188860095Y-96557914D02*
X188860095Y-97224580D01*
X188860095Y-96653152D02*
X188907714Y-96605533D01*
X189002952Y-96557914D01*
X189145809Y-96557914D01*
X189241047Y-96605533D01*
X189288666Y-96700771D01*
X189288666Y-97224580D01*
X191098190Y-97129342D02*
X191050571Y-97176961D01*
X190907714Y-97224580D01*
X190812476Y-97224580D01*
X190669619Y-97176961D01*
X190574380Y-97081723D01*
X190526761Y-96986485D01*
X190479142Y-96796009D01*
X190479142Y-96653152D01*
X190526761Y-96462676D01*
X190574380Y-96367438D01*
X190669619Y-96272200D01*
X190812476Y-96224580D01*
X190907714Y-96224580D01*
X191050571Y-96272200D01*
X191098190Y-96319819D01*
X191669619Y-97224580D02*
X191574380Y-97176961D01*
X191526761Y-97129342D01*
X191479142Y-97034104D01*
X191479142Y-96748390D01*
X191526761Y-96653152D01*
X191574380Y-96605533D01*
X191669619Y-96557914D01*
X191812476Y-96557914D01*
X191907714Y-96605533D01*
X191955333Y-96653152D01*
X192002952Y-96748390D01*
X192002952Y-97034104D01*
X191955333Y-97129342D01*
X191907714Y-97176961D01*
X191812476Y-97224580D01*
X191669619Y-97224580D01*
X192574380Y-97224580D02*
X192479142Y-97176961D01*
X192431523Y-97081723D01*
X192431523Y-96224580D01*
X193098190Y-97224580D02*
X193002952Y-97176961D01*
X192955333Y-97129342D01*
X192907714Y-97034104D01*
X192907714Y-96748390D01*
X192955333Y-96653152D01*
X193002952Y-96605533D01*
X193098190Y-96557914D01*
X193241047Y-96557914D01*
X193336285Y-96605533D01*
X193383904Y-96653152D01*
X193431523Y-96748390D01*
X193431523Y-97034104D01*
X193383904Y-97129342D01*
X193336285Y-97176961D01*
X193241047Y-97224580D01*
X193098190Y-97224580D01*
X194288666Y-96557914D02*
X194288666Y-97224580D01*
X193860095Y-96557914D02*
X193860095Y-97081723D01*
X193907714Y-97176961D01*
X194002952Y-97224580D01*
X194145809Y-97224580D01*
X194241047Y-97176961D01*
X194288666Y-97129342D01*
X194764857Y-97224580D02*
X194764857Y-96557914D01*
X194764857Y-96748390D02*
X194812476Y-96653152D01*
X194860095Y-96605533D01*
X194955333Y-96557914D01*
X195050571Y-96557914D01*
X195383904Y-97129342D02*
X195431523Y-97176961D01*
X195383904Y-97224580D01*
X195336285Y-97176961D01*
X195383904Y-97129342D01*
X195383904Y-97224580D01*
X195383904Y-96605533D02*
X195431523Y-96653152D01*
X195383904Y-96700771D01*
X195336285Y-96653152D01*
X195383904Y-96605533D01*
X195383904Y-96700771D01*
X196622000Y-97224580D02*
X196622000Y-96224580D01*
X197193428Y-97224580D01*
X197193428Y-96224580D01*
X198383904Y-96176961D02*
X197526761Y-97462676D01*
X198669619Y-96938866D02*
X199145809Y-96938866D01*
X198574380Y-97224580D02*
X198907714Y-96224580D01*
X199241047Y-97224580D01*
X179407714Y-100524580D02*
X179407714Y-99524580D01*
X179645809Y-99524580D01*
X179788666Y-99572200D01*
X179883904Y-99667438D01*
X179931523Y-99762676D01*
X179979142Y-99953152D01*
X179979142Y-100096009D01*
X179931523Y-100286485D01*
X179883904Y-100381723D01*
X179788666Y-100476961D01*
X179645809Y-100524580D01*
X179407714Y-100524580D01*
X180788666Y-100476961D02*
X180693428Y-100524580D01*
X180502952Y-100524580D01*
X180407714Y-100476961D01*
X180360095Y-100381723D01*
X180360095Y-100000771D01*
X180407714Y-99905533D01*
X180502952Y-99857914D01*
X180693428Y-99857914D01*
X180788666Y-99905533D01*
X180836285Y-100000771D01*
X180836285Y-100096009D01*
X180360095Y-100191247D01*
X181407714Y-100524580D02*
X181312476Y-100476961D01*
X181264857Y-100381723D01*
X181264857Y-99524580D01*
X181788666Y-100524580D02*
X181788666Y-99857914D01*
X181788666Y-99524580D02*
X181741047Y-99572200D01*
X181788666Y-99619819D01*
X181836285Y-99572200D01*
X181788666Y-99524580D01*
X181788666Y-99619819D01*
X182169619Y-99857914D02*
X182407714Y-100524580D01*
X182645809Y-99857914D01*
X183407714Y-100476961D02*
X183312476Y-100524580D01*
X183122000Y-100524580D01*
X183026761Y-100476961D01*
X182979142Y-100381723D01*
X182979142Y-100000771D01*
X183026761Y-99905533D01*
X183122000Y-99857914D01*
X183312476Y-99857914D01*
X183407714Y-99905533D01*
X183455333Y-100000771D01*
X183455333Y-100096009D01*
X182979142Y-100191247D01*
X183883904Y-100524580D02*
X183883904Y-99857914D01*
X183883904Y-100048390D02*
X183931523Y-99953152D01*
X183979142Y-99905533D01*
X184074380Y-99857914D01*
X184169619Y-99857914D01*
X184407714Y-99857914D02*
X184645809Y-100524580D01*
X184883904Y-99857914D02*
X184645809Y-100524580D01*
X184550571Y-100762676D01*
X184502952Y-100810295D01*
X184407714Y-100857914D01*
X186026761Y-100524580D02*
X186026761Y-99524580D01*
X186502952Y-99857914D02*
X186502952Y-100524580D01*
X186502952Y-99953152D02*
X186550571Y-99905533D01*
X186645809Y-99857914D01*
X186788666Y-99857914D01*
X186883904Y-99905533D01*
X186931523Y-100000771D01*
X186931523Y-100524580D01*
X187360095Y-100476961D02*
X187455333Y-100524580D01*
X187645809Y-100524580D01*
X187741047Y-100476961D01*
X187788666Y-100381723D01*
X187788666Y-100334104D01*
X187741047Y-100238866D01*
X187645809Y-100191247D01*
X187502952Y-100191247D01*
X187407714Y-100143628D01*
X187360095Y-100048390D01*
X187360095Y-100000771D01*
X187407714Y-99905533D01*
X187502952Y-99857914D01*
X187645809Y-99857914D01*
X187741047Y-99905533D01*
X188074380Y-99857914D02*
X188455333Y-99857914D01*
X188217238Y-99524580D02*
X188217238Y-100381723D01*
X188264857Y-100476961D01*
X188360095Y-100524580D01*
X188455333Y-100524580D01*
X188788666Y-100524580D02*
X188788666Y-99857914D01*
X188788666Y-100048390D02*
X188836285Y-99953152D01*
X188883904Y-99905533D01*
X188979142Y-99857914D01*
X189074380Y-99857914D01*
X189836285Y-99857914D02*
X189836285Y-100524580D01*
X189407714Y-99857914D02*
X189407714Y-100381723D01*
X189455333Y-100476961D01*
X189550571Y-100524580D01*
X189693428Y-100524580D01*
X189788666Y-100476961D01*
X189836285Y-100429342D01*
X190741047Y-100476961D02*
X190645809Y-100524580D01*
X190455333Y-100524580D01*
X190360095Y-100476961D01*
X190312476Y-100429342D01*
X190264857Y-100334104D01*
X190264857Y-100048390D01*
X190312476Y-99953152D01*
X190360095Y-99905533D01*
X190455333Y-99857914D01*
X190645809Y-99857914D01*
X190741047Y-99905533D01*
X191026761Y-99857914D02*
X191407714Y-99857914D01*
X191169619Y-99524580D02*
X191169619Y-100381723D01*
X191217238Y-100476961D01*
X191312476Y-100524580D01*
X191407714Y-100524580D01*
X191741047Y-100524580D02*
X191741047Y-99857914D01*
X191741047Y-99524580D02*
X191693428Y-99572200D01*
X191741047Y-99619819D01*
X191788666Y-99572200D01*
X191741047Y-99524580D01*
X191741047Y-99619819D01*
X192360095Y-100524580D02*
X192264857Y-100476961D01*
X192217238Y-100429342D01*
X192169619Y-100334104D01*
X192169619Y-100048390D01*
X192217238Y-99953152D01*
X192264857Y-99905533D01*
X192360095Y-99857914D01*
X192502952Y-99857914D01*
X192598190Y-99905533D01*
X192645809Y-99953152D01*
X192693428Y-100048390D01*
X192693428Y-100334104D01*
X192645809Y-100429342D01*
X192598190Y-100476961D01*
X192502952Y-100524580D01*
X192360095Y-100524580D01*
X193122000Y-99857914D02*
X193122000Y-100524580D01*
X193122000Y-99953152D02*
X193169619Y-99905533D01*
X193264857Y-99857914D01*
X193407714Y-99857914D01*
X193502952Y-99905533D01*
X193550571Y-100000771D01*
X193550571Y-100524580D01*
X193979142Y-100476961D02*
X194074380Y-100524580D01*
X194264857Y-100524580D01*
X194360095Y-100476961D01*
X194407714Y-100381723D01*
X194407714Y-100334104D01*
X194360095Y-100238866D01*
X194264857Y-100191247D01*
X194122000Y-100191247D01*
X194026761Y-100143628D01*
X193979142Y-100048390D01*
X193979142Y-100000771D01*
X194026761Y-99905533D01*
X194122000Y-99857914D01*
X194264857Y-99857914D01*
X194360095Y-99905533D01*
X194836285Y-100429342D02*
X194883904Y-100476961D01*
X194836285Y-100524580D01*
X194788666Y-100476961D01*
X194836285Y-100429342D01*
X194836285Y-100524580D01*
X194836285Y-99905533D02*
X194883904Y-99953152D01*
X194836285Y-100000771D01*
X194788666Y-99953152D01*
X194836285Y-99905533D01*
X194836285Y-100000771D01*
X181979142Y-102174580D02*
X181645809Y-101698390D01*
X181407714Y-102174580D02*
X181407714Y-101174580D01*
X181788666Y-101174580D01*
X181883904Y-101222200D01*
X181931523Y-101269819D01*
X181979142Y-101365057D01*
X181979142Y-101507914D01*
X181931523Y-101603152D01*
X181883904Y-101650771D01*
X181788666Y-101698390D01*
X181407714Y-101698390D01*
X182550571Y-102174580D02*
X182455333Y-102126961D01*
X182407714Y-102079342D01*
X182360095Y-101984104D01*
X182360095Y-101698390D01*
X182407714Y-101603152D01*
X182455333Y-101555533D01*
X182550571Y-101507914D01*
X182693428Y-101507914D01*
X182788666Y-101555533D01*
X182836285Y-101603152D01*
X182883904Y-101698390D01*
X182883904Y-101984104D01*
X182836285Y-102079342D01*
X182788666Y-102126961D01*
X182693428Y-102174580D01*
X182550571Y-102174580D01*
X183455333Y-102174580D02*
X183360095Y-102126961D01*
X183312476Y-102079342D01*
X183264857Y-101984104D01*
X183264857Y-101698390D01*
X183312476Y-101603152D01*
X183360095Y-101555533D01*
X183455333Y-101507914D01*
X183598190Y-101507914D01*
X183693428Y-101555533D01*
X183741047Y-101603152D01*
X183788666Y-101698390D01*
X183788666Y-101984104D01*
X183741047Y-102079342D01*
X183693428Y-102126961D01*
X183598190Y-102174580D01*
X183455333Y-102174580D01*
X184217238Y-102174580D02*
X184217238Y-101507914D01*
X184217238Y-101603152D02*
X184264857Y-101555533D01*
X184360095Y-101507914D01*
X184502952Y-101507914D01*
X184598190Y-101555533D01*
X184645809Y-101650771D01*
X184645809Y-102174580D01*
X184645809Y-101650771D02*
X184693428Y-101555533D01*
X184788666Y-101507914D01*
X184931523Y-101507914D01*
X185026761Y-101555533D01*
X185074380Y-101650771D01*
X185074380Y-102174580D01*
X185550571Y-102079342D02*
X185598190Y-102126961D01*
X185550571Y-102174580D01*
X185502952Y-102126961D01*
X185550571Y-102079342D01*
X185550571Y-102174580D01*
X185550571Y-101555533D02*
X185598190Y-101603152D01*
X185550571Y-101650771D01*
X185502952Y-101603152D01*
X185550571Y-101555533D01*
X185550571Y-101650771D01*
X186788666Y-102174580D02*
X186788666Y-101174580D01*
X187122000Y-101888866D01*
X187455333Y-101174580D01*
X187455333Y-102174580D01*
X188264857Y-101650771D02*
X188407714Y-101698390D01*
X188455333Y-101746009D01*
X188502952Y-101841247D01*
X188502952Y-101984104D01*
X188455333Y-102079342D01*
X188407714Y-102126961D01*
X188312476Y-102174580D01*
X187931523Y-102174580D01*
X187931523Y-101174580D01*
X188264857Y-101174580D01*
X188360095Y-101222200D01*
X188407714Y-101269819D01*
X188455333Y-101365057D01*
X188455333Y-101460295D01*
X188407714Y-101555533D01*
X188360095Y-101603152D01*
X188264857Y-101650771D01*
X187931523Y-101650771D01*
X189693428Y-101793628D02*
X190455333Y-101793628D01*
X190883904Y-101269819D02*
X190931523Y-101222200D01*
X191026761Y-101174580D01*
X191264857Y-101174580D01*
X191360095Y-101222200D01*
X191407714Y-101269819D01*
X191455333Y-101365057D01*
X191455333Y-101460295D01*
X191407714Y-101603152D01*
X190836285Y-102174580D01*
X191455333Y-102174580D01*
X191883904Y-102079342D02*
X191931523Y-102126961D01*
X191883904Y-102174580D01*
X191836285Y-102126961D01*
X191883904Y-102079342D01*
X191883904Y-102174580D01*
X192264857Y-101174580D02*
X192883904Y-101174580D01*
X192550571Y-101555533D01*
X192693428Y-101555533D01*
X192788666Y-101603152D01*
X192836285Y-101650771D01*
X192883904Y-101746009D01*
X192883904Y-101984104D01*
X192836285Y-102079342D01*
X192788666Y-102126961D01*
X192693428Y-102174580D01*
X192407714Y-102174580D01*
X192312476Y-102126961D01*
X192264857Y-102079342D01*
X170741047Y-104950771D02*
X170407714Y-104950771D01*
X170407714Y-105474580D02*
X170407714Y-104474580D01*
X170883904Y-104474580D01*
X171693428Y-105474580D02*
X171693428Y-104950771D01*
X171645809Y-104855533D01*
X171550571Y-104807914D01*
X171360095Y-104807914D01*
X171264857Y-104855533D01*
X171693428Y-105426961D02*
X171598190Y-105474580D01*
X171360095Y-105474580D01*
X171264857Y-105426961D01*
X171217238Y-105331723D01*
X171217238Y-105236485D01*
X171264857Y-105141247D01*
X171360095Y-105093628D01*
X171598190Y-105093628D01*
X171693428Y-105046009D01*
X172598190Y-105426961D02*
X172502952Y-105474580D01*
X172312476Y-105474580D01*
X172217238Y-105426961D01*
X172169619Y-105379342D01*
X172122000Y-105284104D01*
X172122000Y-104998390D01*
X172169619Y-104903152D01*
X172217238Y-104855533D01*
X172312476Y-104807914D01*
X172502952Y-104807914D01*
X172598190Y-104855533D01*
X173455333Y-104807914D02*
X173455333Y-105474580D01*
X173026761Y-104807914D02*
X173026761Y-105331723D01*
X173074380Y-105426961D01*
X173169619Y-105474580D01*
X173312476Y-105474580D01*
X173407714Y-105426961D01*
X173455333Y-105379342D01*
X174074380Y-105474580D02*
X173979142Y-105426961D01*
X173931523Y-105331723D01*
X173931523Y-104474580D01*
X174312476Y-104807914D02*
X174693428Y-104807914D01*
X174455333Y-104474580D02*
X174455333Y-105331723D01*
X174502952Y-105426961D01*
X174598190Y-105474580D01*
X174693428Y-105474580D01*
X174931523Y-104807914D02*
X175169619Y-105474580D01*
X175407714Y-104807914D02*
X175169619Y-105474580D01*
X175074380Y-105712676D01*
X175026761Y-105760295D01*
X174931523Y-105807914D01*
X176693428Y-105474580D02*
X176598190Y-105426961D01*
X176550571Y-105379342D01*
X176502952Y-105284104D01*
X176502952Y-104998390D01*
X176550571Y-104903152D01*
X176598190Y-104855533D01*
X176693428Y-104807914D01*
X176836285Y-104807914D01*
X176931523Y-104855533D01*
X176979142Y-104903152D01*
X177026761Y-104998390D01*
X177026761Y-105284104D01*
X176979142Y-105379342D01*
X176931523Y-105426961D01*
X176836285Y-105474580D01*
X176693428Y-105474580D01*
X177312476Y-104807914D02*
X177693428Y-104807914D01*
X177455333Y-105474580D02*
X177455333Y-104617438D01*
X177502952Y-104522200D01*
X177598190Y-104474580D01*
X177693428Y-104474580D01*
X178788666Y-105474580D02*
X178788666Y-104474580D01*
X179360095Y-105474580D01*
X179360095Y-104474580D01*
X180264857Y-105474580D02*
X180264857Y-104950771D01*
X180217238Y-104855533D01*
X180122000Y-104807914D01*
X179931523Y-104807914D01*
X179836285Y-104855533D01*
X180264857Y-105426961D02*
X180169619Y-105474580D01*
X179931523Y-105474580D01*
X179836285Y-105426961D01*
X179788666Y-105331723D01*
X179788666Y-105236485D01*
X179836285Y-105141247D01*
X179931523Y-105093628D01*
X180169619Y-105093628D01*
X180264857Y-105046009D01*
X180598190Y-104807914D02*
X180979142Y-104807914D01*
X180741047Y-104474580D02*
X180741047Y-105331723D01*
X180788666Y-105426961D01*
X180883904Y-105474580D01*
X180979142Y-105474580D01*
X181741047Y-104807914D02*
X181741047Y-105474580D01*
X181312476Y-104807914D02*
X181312476Y-105331723D01*
X181360095Y-105426961D01*
X181455333Y-105474580D01*
X181598190Y-105474580D01*
X181693428Y-105426961D01*
X181741047Y-105379342D01*
X182217238Y-105474580D02*
X182217238Y-104807914D01*
X182217238Y-104998390D02*
X182264857Y-104903152D01*
X182312476Y-104855533D01*
X182407714Y-104807914D01*
X182502952Y-104807914D01*
X183264857Y-105474580D02*
X183264857Y-104950771D01*
X183217238Y-104855533D01*
X183122000Y-104807914D01*
X182931523Y-104807914D01*
X182836285Y-104855533D01*
X183264857Y-105426961D02*
X183169619Y-105474580D01*
X182931523Y-105474580D01*
X182836285Y-105426961D01*
X182788666Y-105331723D01*
X182788666Y-105236485D01*
X182836285Y-105141247D01*
X182931523Y-105093628D01*
X183169619Y-105093628D01*
X183264857Y-105046009D01*
X183883904Y-105474580D02*
X183788666Y-105426961D01*
X183741047Y-105331723D01*
X183741047Y-104474580D01*
X185836285Y-105474580D02*
X185788666Y-105474580D01*
X185693428Y-105426961D01*
X185550571Y-105284104D01*
X185312476Y-104998390D01*
X185217238Y-104855533D01*
X185169619Y-104712676D01*
X185169619Y-104617438D01*
X185217238Y-104522200D01*
X185312476Y-104474580D01*
X185360095Y-104474580D01*
X185455333Y-104522200D01*
X185502952Y-104617438D01*
X185502952Y-104665057D01*
X185455333Y-104760295D01*
X185407714Y-104807914D01*
X185122000Y-104998390D01*
X185074380Y-105046009D01*
X185026761Y-105141247D01*
X185026761Y-105284104D01*
X185074380Y-105379342D01*
X185122000Y-105426961D01*
X185217238Y-105474580D01*
X185360095Y-105474580D01*
X185455333Y-105426961D01*
X185502952Y-105379342D01*
X185645809Y-105188866D01*
X185693428Y-105046009D01*
X185693428Y-104950771D01*
X187026761Y-105474580D02*
X187026761Y-104474580D01*
X187360095Y-105188866D01*
X187693428Y-104474580D01*
X187693428Y-105474580D01*
X188598190Y-105474580D02*
X188598190Y-104950771D01*
X188550571Y-104855533D01*
X188455333Y-104807914D01*
X188264857Y-104807914D01*
X188169619Y-104855533D01*
X188598190Y-105426961D02*
X188502952Y-105474580D01*
X188264857Y-105474580D01*
X188169619Y-105426961D01*
X188122000Y-105331723D01*
X188122000Y-105236485D01*
X188169619Y-105141247D01*
X188264857Y-105093628D01*
X188502952Y-105093628D01*
X188598190Y-105046009D01*
X188931523Y-104807914D02*
X189312476Y-104807914D01*
X189074380Y-104474580D02*
X189074380Y-105331723D01*
X189122000Y-105426961D01*
X189217238Y-105474580D01*
X189312476Y-105474580D01*
X189645809Y-105474580D02*
X189645809Y-104474580D01*
X190074380Y-105474580D02*
X190074380Y-104950771D01*
X190026761Y-104855533D01*
X189931523Y-104807914D01*
X189788666Y-104807914D01*
X189693428Y-104855533D01*
X189645809Y-104903152D01*
X190931523Y-105426961D02*
X190836285Y-105474580D01*
X190645809Y-105474580D01*
X190550571Y-105426961D01*
X190502952Y-105331723D01*
X190502952Y-104950771D01*
X190550571Y-104855533D01*
X190645809Y-104807914D01*
X190836285Y-104807914D01*
X190931523Y-104855533D01*
X190979142Y-104950771D01*
X190979142Y-105046009D01*
X190502952Y-105141247D01*
X191407714Y-105474580D02*
X191407714Y-104807914D01*
X191407714Y-104903152D02*
X191455333Y-104855533D01*
X191550571Y-104807914D01*
X191693428Y-104807914D01*
X191788666Y-104855533D01*
X191836285Y-104950771D01*
X191836285Y-105474580D01*
X191836285Y-104950771D02*
X191883904Y-104855533D01*
X191979142Y-104807914D01*
X192122000Y-104807914D01*
X192217238Y-104855533D01*
X192264857Y-104950771D01*
X192264857Y-105474580D01*
X193169619Y-105474580D02*
X193169619Y-104950771D01*
X193122000Y-104855533D01*
X193026761Y-104807914D01*
X192836285Y-104807914D01*
X192741047Y-104855533D01*
X193169619Y-105426961D02*
X193074380Y-105474580D01*
X192836285Y-105474580D01*
X192741047Y-105426961D01*
X192693428Y-105331723D01*
X192693428Y-105236485D01*
X192741047Y-105141247D01*
X192836285Y-105093628D01*
X193074380Y-105093628D01*
X193169619Y-105046009D01*
X193502952Y-104807914D02*
X193883904Y-104807914D01*
X193645809Y-104474580D02*
X193645809Y-105331723D01*
X193693428Y-105426961D01*
X193788666Y-105474580D01*
X193883904Y-105474580D01*
X194217238Y-105474580D02*
X194217238Y-104807914D01*
X194217238Y-104474580D02*
X194169619Y-104522200D01*
X194217238Y-104569819D01*
X194264857Y-104522200D01*
X194217238Y-104474580D01*
X194217238Y-104569819D01*
X195122000Y-105426961D02*
X195026761Y-105474580D01*
X194836285Y-105474580D01*
X194741047Y-105426961D01*
X194693428Y-105379342D01*
X194645809Y-105284104D01*
X194645809Y-104998390D01*
X194693428Y-104903152D01*
X194741047Y-104855533D01*
X194836285Y-104807914D01*
X195026761Y-104807914D01*
X195122000Y-104855533D01*
X195979142Y-105474580D02*
X195979142Y-104950771D01*
X195931523Y-104855533D01*
X195836285Y-104807914D01*
X195645809Y-104807914D01*
X195550571Y-104855533D01*
X195979142Y-105426961D02*
X195883904Y-105474580D01*
X195645809Y-105474580D01*
X195550571Y-105426961D01*
X195502952Y-105331723D01*
X195502952Y-105236485D01*
X195550571Y-105141247D01*
X195645809Y-105093628D01*
X195883904Y-105093628D01*
X195979142Y-105046009D01*
X196598190Y-105474580D02*
X196502952Y-105426961D01*
X196455333Y-105331723D01*
X196455333Y-104474580D01*
X197693428Y-105426961D02*
X197836285Y-105474580D01*
X198074380Y-105474580D01*
X198169619Y-105426961D01*
X198217238Y-105379342D01*
X198264857Y-105284104D01*
X198264857Y-105188866D01*
X198217238Y-105093628D01*
X198169619Y-105046009D01*
X198074380Y-104998390D01*
X197883904Y-104950771D01*
X197788666Y-104903152D01*
X197741047Y-104855533D01*
X197693428Y-104760295D01*
X197693428Y-104665057D01*
X197741047Y-104569819D01*
X197788666Y-104522200D01*
X197883904Y-104474580D01*
X198122000Y-104474580D01*
X198264857Y-104522200D01*
X199122000Y-105426961D02*
X199026761Y-105474580D01*
X198836285Y-105474580D01*
X198741047Y-105426961D01*
X198693428Y-105379342D01*
X198645809Y-105284104D01*
X198645809Y-104998390D01*
X198693428Y-104903152D01*
X198741047Y-104855533D01*
X198836285Y-104807914D01*
X199026761Y-104807914D01*
X199122000Y-104855533D01*
X199550571Y-105474580D02*
X199550571Y-104807914D01*
X199550571Y-104474580D02*
X199502952Y-104522200D01*
X199550571Y-104569819D01*
X199598190Y-104522200D01*
X199550571Y-104474580D01*
X199550571Y-104569819D01*
X200407714Y-105426961D02*
X200312476Y-105474580D01*
X200122000Y-105474580D01*
X200026761Y-105426961D01*
X199979142Y-105331723D01*
X199979142Y-104950771D01*
X200026761Y-104855533D01*
X200122000Y-104807914D01*
X200312476Y-104807914D01*
X200407714Y-104855533D01*
X200455333Y-104950771D01*
X200455333Y-105046009D01*
X199979142Y-105141247D01*
X200883904Y-104807914D02*
X200883904Y-105474580D01*
X200883904Y-104903152D02*
X200931523Y-104855533D01*
X201026761Y-104807914D01*
X201169619Y-104807914D01*
X201264857Y-104855533D01*
X201312476Y-104950771D01*
X201312476Y-105474580D01*
X202217238Y-105426961D02*
X202122000Y-105474580D01*
X201931523Y-105474580D01*
X201836285Y-105426961D01*
X201788666Y-105379342D01*
X201741047Y-105284104D01*
X201741047Y-104998390D01*
X201788666Y-104903152D01*
X201836285Y-104855533D01*
X201931523Y-104807914D01*
X202122000Y-104807914D01*
X202217238Y-104855533D01*
X203026761Y-105426961D02*
X202931523Y-105474580D01*
X202741047Y-105474580D01*
X202645809Y-105426961D01*
X202598190Y-105331723D01*
X202598190Y-104950771D01*
X202645809Y-104855533D01*
X202741047Y-104807914D01*
X202931523Y-104807914D01*
X203026761Y-104855533D01*
X203074380Y-104950771D01*
X203074380Y-105046009D01*
X202598190Y-105141247D01*
X203455333Y-105426961D02*
X203550571Y-105474580D01*
X203741047Y-105474580D01*
X203836285Y-105426961D01*
X203883904Y-105331723D01*
X203883904Y-105284104D01*
X203836285Y-105188866D01*
X203741047Y-105141247D01*
X203598190Y-105141247D01*
X203502952Y-105093628D01*
X203455333Y-104998390D01*
X203455333Y-104950771D01*
X203502952Y-104855533D01*
X203598190Y-104807914D01*
X203741047Y-104807914D01*
X203836285Y-104855533D01*
X177241047Y-107124580D02*
X177241047Y-106124580D01*
X177479142Y-106124580D01*
X177622000Y-106172200D01*
X177717238Y-106267438D01*
X177764857Y-106362676D01*
X177812476Y-106553152D01*
X177812476Y-106696009D01*
X177764857Y-106886485D01*
X177717238Y-106981723D01*
X177622000Y-107076961D01*
X177479142Y-107124580D01*
X177241047Y-107124580D01*
X178622000Y-107076961D02*
X178526761Y-107124580D01*
X178336285Y-107124580D01*
X178241047Y-107076961D01*
X178193428Y-106981723D01*
X178193428Y-106600771D01*
X178241047Y-106505533D01*
X178336285Y-106457914D01*
X178526761Y-106457914D01*
X178622000Y-106505533D01*
X178669619Y-106600771D01*
X178669619Y-106696009D01*
X178193428Y-106791247D01*
X179098190Y-106457914D02*
X179098190Y-107457914D01*
X179098190Y-106505533D02*
X179193428Y-106457914D01*
X179383904Y-106457914D01*
X179479142Y-106505533D01*
X179526761Y-106553152D01*
X179574380Y-106648390D01*
X179574380Y-106934104D01*
X179526761Y-107029342D01*
X179479142Y-107076961D01*
X179383904Y-107124580D01*
X179193428Y-107124580D01*
X179098190Y-107076961D01*
X180431523Y-107124580D02*
X180431523Y-106600771D01*
X180383904Y-106505533D01*
X180288666Y-106457914D01*
X180098190Y-106457914D01*
X180002952Y-106505533D01*
X180431523Y-107076961D02*
X180336285Y-107124580D01*
X180098190Y-107124580D01*
X180002952Y-107076961D01*
X179955333Y-106981723D01*
X179955333Y-106886485D01*
X180002952Y-106791247D01*
X180098190Y-106743628D01*
X180336285Y-106743628D01*
X180431523Y-106696009D01*
X180907714Y-107124580D02*
X180907714Y-106457914D01*
X180907714Y-106648390D02*
X180955333Y-106553152D01*
X181002952Y-106505533D01*
X181098190Y-106457914D01*
X181193428Y-106457914D01*
X181383904Y-106457914D02*
X181764857Y-106457914D01*
X181526761Y-106124580D02*
X181526761Y-106981723D01*
X181574380Y-107076961D01*
X181669619Y-107124580D01*
X181764857Y-107124580D01*
X182098190Y-107124580D02*
X182098190Y-106457914D01*
X182098190Y-106553152D02*
X182145809Y-106505533D01*
X182241047Y-106457914D01*
X182383904Y-106457914D01*
X182479142Y-106505533D01*
X182526761Y-106600771D01*
X182526761Y-107124580D01*
X182526761Y-106600771D02*
X182574380Y-106505533D01*
X182669619Y-106457914D01*
X182812476Y-106457914D01*
X182907714Y-106505533D01*
X182955333Y-106600771D01*
X182955333Y-107124580D01*
X183812476Y-107076961D02*
X183717238Y-107124580D01*
X183526761Y-107124580D01*
X183431523Y-107076961D01*
X183383904Y-106981723D01*
X183383904Y-106600771D01*
X183431523Y-106505533D01*
X183526761Y-106457914D01*
X183717238Y-106457914D01*
X183812476Y-106505533D01*
X183860095Y-106600771D01*
X183860095Y-106696009D01*
X183383904Y-106791247D01*
X184288666Y-106457914D02*
X184288666Y-107124580D01*
X184288666Y-106553152D02*
X184336285Y-106505533D01*
X184431523Y-106457914D01*
X184574380Y-106457914D01*
X184669619Y-106505533D01*
X184717238Y-106600771D01*
X184717238Y-107124580D01*
X185050571Y-106457914D02*
X185431523Y-106457914D01*
X185193428Y-106124580D02*
X185193428Y-106981723D01*
X185241047Y-107076961D01*
X185336285Y-107124580D01*
X185431523Y-107124580D01*
X186669619Y-107124580D02*
X186574380Y-107076961D01*
X186526761Y-107029342D01*
X186479142Y-106934104D01*
X186479142Y-106648390D01*
X186526761Y-106553152D01*
X186574380Y-106505533D01*
X186669619Y-106457914D01*
X186812476Y-106457914D01*
X186907714Y-106505533D01*
X186955333Y-106553152D01*
X187002952Y-106648390D01*
X187002952Y-106934104D01*
X186955333Y-107029342D01*
X186907714Y-107076961D01*
X186812476Y-107124580D01*
X186669619Y-107124580D01*
X187288666Y-106457914D02*
X187669619Y-106457914D01*
X187431523Y-107124580D02*
X187431523Y-106267438D01*
X187479142Y-106172200D01*
X187574380Y-106124580D01*
X187669619Y-106124580D01*
X188764857Y-106600771D02*
X189098190Y-106600771D01*
X189241047Y-107124580D02*
X188764857Y-107124580D01*
X188764857Y-106124580D01*
X189241047Y-106124580D01*
X189669619Y-106457914D02*
X189669619Y-107124580D01*
X189669619Y-106553152D02*
X189717238Y-106505533D01*
X189812476Y-106457914D01*
X189955333Y-106457914D01*
X190050571Y-106505533D01*
X190098190Y-106600771D01*
X190098190Y-107124580D01*
X191002952Y-106457914D02*
X191002952Y-107267438D01*
X190955333Y-107362676D01*
X190907714Y-107410295D01*
X190812476Y-107457914D01*
X190669619Y-107457914D01*
X190574380Y-107410295D01*
X191002952Y-107076961D02*
X190907714Y-107124580D01*
X190717238Y-107124580D01*
X190622000Y-107076961D01*
X190574380Y-107029342D01*
X190526761Y-106934104D01*
X190526761Y-106648390D01*
X190574380Y-106553152D01*
X190622000Y-106505533D01*
X190717238Y-106457914D01*
X190907714Y-106457914D01*
X191002952Y-106505533D01*
X191479142Y-107124580D02*
X191479142Y-106457914D01*
X191479142Y-106124580D02*
X191431523Y-106172200D01*
X191479142Y-106219819D01*
X191526761Y-106172200D01*
X191479142Y-106124580D01*
X191479142Y-106219819D01*
X191955333Y-106457914D02*
X191955333Y-107124580D01*
X191955333Y-106553152D02*
X192002952Y-106505533D01*
X192098190Y-106457914D01*
X192241047Y-106457914D01*
X192336285Y-106505533D01*
X192383904Y-106600771D01*
X192383904Y-107124580D01*
X193241047Y-107076961D02*
X193145809Y-107124580D01*
X192955333Y-107124580D01*
X192860095Y-107076961D01*
X192812476Y-106981723D01*
X192812476Y-106600771D01*
X192860095Y-106505533D01*
X192955333Y-106457914D01*
X193145809Y-106457914D01*
X193241047Y-106505533D01*
X193288666Y-106600771D01*
X193288666Y-106696009D01*
X192812476Y-106791247D01*
X194098190Y-107076961D02*
X194002952Y-107124580D01*
X193812476Y-107124580D01*
X193717238Y-107076961D01*
X193669619Y-106981723D01*
X193669619Y-106600771D01*
X193717238Y-106505533D01*
X193812476Y-106457914D01*
X194002952Y-106457914D01*
X194098190Y-106505533D01*
X194145809Y-106600771D01*
X194145809Y-106696009D01*
X193669619Y-106791247D01*
X194574380Y-107124580D02*
X194574380Y-106457914D01*
X194574380Y-106648390D02*
X194622000Y-106553152D01*
X194669619Y-106505533D01*
X194764857Y-106457914D01*
X194860095Y-106457914D01*
X195193428Y-107124580D02*
X195193428Y-106457914D01*
X195193428Y-106124580D02*
X195145809Y-106172200D01*
X195193428Y-106219819D01*
X195241047Y-106172200D01*
X195193428Y-106124580D01*
X195193428Y-106219819D01*
X195669619Y-106457914D02*
X195669619Y-107124580D01*
X195669619Y-106553152D02*
X195717238Y-106505533D01*
X195812476Y-106457914D01*
X195955333Y-106457914D01*
X196050571Y-106505533D01*
X196098190Y-106600771D01*
X196098190Y-107124580D01*
X197002952Y-106457914D02*
X197002952Y-107267438D01*
X196955333Y-107362676D01*
X196907714Y-107410295D01*
X196812476Y-107457914D01*
X196669619Y-107457914D01*
X196574380Y-107410295D01*
X197002952Y-107076961D02*
X196907714Y-107124580D01*
X196717238Y-107124580D01*
X196622000Y-107076961D01*
X196574380Y-107029342D01*
X196526761Y-106934104D01*
X196526761Y-106648390D01*
X196574380Y-106553152D01*
X196622000Y-106505533D01*
X196717238Y-106457914D01*
X196907714Y-106457914D01*
X197002952Y-106505533D01*
X179098190Y-108774580D02*
X179098190Y-107774580D01*
X179669619Y-108774580D02*
X179241047Y-108203152D01*
X179669619Y-107774580D02*
X179098190Y-108346009D01*
X180098190Y-108774580D02*
X180098190Y-108107914D01*
X180098190Y-107774580D02*
X180050571Y-107822200D01*
X180098190Y-107869819D01*
X180145809Y-107822200D01*
X180098190Y-107774580D01*
X180098190Y-107869819D01*
X180574380Y-108107914D02*
X180574380Y-108774580D01*
X180574380Y-108203152D02*
X180622000Y-108155533D01*
X180717238Y-108107914D01*
X180860095Y-108107914D01*
X180955333Y-108155533D01*
X181002952Y-108250771D01*
X181002952Y-108774580D01*
X181907714Y-108107914D02*
X181907714Y-108917438D01*
X181860095Y-109012676D01*
X181812476Y-109060295D01*
X181717238Y-109107914D01*
X181574380Y-109107914D01*
X181479142Y-109060295D01*
X181907714Y-108726961D02*
X181812476Y-108774580D01*
X181622000Y-108774580D01*
X181526761Y-108726961D01*
X181479142Y-108679342D01*
X181431523Y-108584104D01*
X181431523Y-108298390D01*
X181479142Y-108203152D01*
X181526761Y-108155533D01*
X181622000Y-108107914D01*
X181812476Y-108107914D01*
X181907714Y-108155533D01*
X182336285Y-108726961D02*
X182431523Y-108774580D01*
X182622000Y-108774580D01*
X182717238Y-108726961D01*
X182764857Y-108631723D01*
X182764857Y-108584104D01*
X182717238Y-108488866D01*
X182622000Y-108441247D01*
X182479142Y-108441247D01*
X182383904Y-108393628D01*
X182336285Y-108298390D01*
X182336285Y-108250771D01*
X182383904Y-108155533D01*
X182479142Y-108107914D01*
X182622000Y-108107914D01*
X182717238Y-108155533D01*
X184526761Y-108679342D02*
X184479142Y-108726961D01*
X184336285Y-108774580D01*
X184241047Y-108774580D01*
X184098190Y-108726961D01*
X184002952Y-108631723D01*
X183955333Y-108536485D01*
X183907714Y-108346009D01*
X183907714Y-108203152D01*
X183955333Y-108012676D01*
X184002952Y-107917438D01*
X184098190Y-107822200D01*
X184241047Y-107774580D01*
X184336285Y-107774580D01*
X184479142Y-107822200D01*
X184526761Y-107869819D01*
X185098190Y-108774580D02*
X185002952Y-108726961D01*
X184955333Y-108679342D01*
X184907714Y-108584104D01*
X184907714Y-108298390D01*
X184955333Y-108203152D01*
X185002952Y-108155533D01*
X185098190Y-108107914D01*
X185241047Y-108107914D01*
X185336285Y-108155533D01*
X185383904Y-108203152D01*
X185431523Y-108298390D01*
X185431523Y-108584104D01*
X185383904Y-108679342D01*
X185336285Y-108726961D01*
X185241047Y-108774580D01*
X185098190Y-108774580D01*
X186002952Y-108774580D02*
X185907714Y-108726961D01*
X185860095Y-108631723D01*
X185860095Y-107774580D01*
X186526761Y-108774580D02*
X186431523Y-108726961D01*
X186383904Y-108631723D01*
X186383904Y-107774580D01*
X187288666Y-108726961D02*
X187193428Y-108774580D01*
X187002952Y-108774580D01*
X186907714Y-108726961D01*
X186860095Y-108631723D01*
X186860095Y-108250771D01*
X186907714Y-108155533D01*
X187002952Y-108107914D01*
X187193428Y-108107914D01*
X187288666Y-108155533D01*
X187336285Y-108250771D01*
X187336285Y-108346009D01*
X186860095Y-108441247D01*
X188193428Y-108107914D02*
X188193428Y-108917438D01*
X188145809Y-109012676D01*
X188098190Y-109060295D01*
X188002952Y-109107914D01*
X187860095Y-109107914D01*
X187764857Y-109060295D01*
X188193428Y-108726961D02*
X188098190Y-108774580D01*
X187907714Y-108774580D01*
X187812476Y-108726961D01*
X187764857Y-108679342D01*
X187717238Y-108584104D01*
X187717238Y-108298390D01*
X187764857Y-108203152D01*
X187812476Y-108155533D01*
X187907714Y-108107914D01*
X188098190Y-108107914D01*
X188193428Y-108155533D01*
X189050571Y-108726961D02*
X188955333Y-108774580D01*
X188764857Y-108774580D01*
X188669619Y-108726961D01*
X188622000Y-108631723D01*
X188622000Y-108250771D01*
X188669619Y-108155533D01*
X188764857Y-108107914D01*
X188955333Y-108107914D01*
X189050571Y-108155533D01*
X189098190Y-108250771D01*
X189098190Y-108346009D01*
X188622000Y-108441247D01*
X190764857Y-108774580D02*
X190288666Y-108774580D01*
X190288666Y-107774580D01*
X191241047Y-108774580D02*
X191145809Y-108726961D01*
X191098190Y-108679342D01*
X191050571Y-108584104D01*
X191050571Y-108298390D01*
X191098190Y-108203152D01*
X191145809Y-108155533D01*
X191241047Y-108107914D01*
X191383904Y-108107914D01*
X191479142Y-108155533D01*
X191526761Y-108203152D01*
X191574380Y-108298390D01*
X191574380Y-108584104D01*
X191526761Y-108679342D01*
X191479142Y-108726961D01*
X191383904Y-108774580D01*
X191241047Y-108774580D01*
X192002952Y-108107914D02*
X192002952Y-108774580D01*
X192002952Y-108203152D02*
X192050571Y-108155533D01*
X192145809Y-108107914D01*
X192288666Y-108107914D01*
X192383904Y-108155533D01*
X192431523Y-108250771D01*
X192431523Y-108774580D01*
X193336285Y-108774580D02*
X193336285Y-107774580D01*
X193336285Y-108726961D02*
X193241047Y-108774580D01*
X193050571Y-108774580D01*
X192955333Y-108726961D01*
X192907714Y-108679342D01*
X192860095Y-108584104D01*
X192860095Y-108298390D01*
X192907714Y-108203152D01*
X192955333Y-108155533D01*
X193050571Y-108107914D01*
X193241047Y-108107914D01*
X193336285Y-108155533D01*
X193955333Y-108774580D02*
X193860095Y-108726961D01*
X193812476Y-108679342D01*
X193764857Y-108584104D01*
X193764857Y-108298390D01*
X193812476Y-108203152D01*
X193860095Y-108155533D01*
X193955333Y-108107914D01*
X194098190Y-108107914D01*
X194193428Y-108155533D01*
X194241047Y-108203152D01*
X194288666Y-108298390D01*
X194288666Y-108584104D01*
X194241047Y-108679342D01*
X194193428Y-108726961D01*
X194098190Y-108774580D01*
X193955333Y-108774580D01*
X194717238Y-108107914D02*
X194717238Y-108774580D01*
X194717238Y-108203152D02*
X194764857Y-108155533D01*
X194860095Y-108107914D01*
X195002952Y-108107914D01*
X195098190Y-108155533D01*
X195145809Y-108250771D01*
X195145809Y-108774580D01*
X184883904Y-110376961D02*
X185026761Y-110424580D01*
X185264857Y-110424580D01*
X185360095Y-110376961D01*
X185407714Y-110329342D01*
X185455333Y-110234104D01*
X185455333Y-110138866D01*
X185407714Y-110043628D01*
X185360095Y-109996009D01*
X185264857Y-109948390D01*
X185074380Y-109900771D01*
X184979142Y-109853152D01*
X184931523Y-109805533D01*
X184883904Y-109710295D01*
X184883904Y-109615057D01*
X184931523Y-109519819D01*
X184979142Y-109472200D01*
X185074380Y-109424580D01*
X185312476Y-109424580D01*
X185455333Y-109472200D01*
X185741047Y-109757914D02*
X186122000Y-109757914D01*
X185883904Y-109424580D02*
X185883904Y-110281723D01*
X185931523Y-110376961D01*
X186026761Y-110424580D01*
X186122000Y-110424580D01*
X186455333Y-110424580D02*
X186455333Y-109757914D01*
X186455333Y-109948390D02*
X186502952Y-109853152D01*
X186550571Y-109805533D01*
X186645809Y-109757914D01*
X186741047Y-109757914D01*
X187502952Y-110424580D02*
X187502952Y-109900771D01*
X187455333Y-109805533D01*
X187360095Y-109757914D01*
X187169619Y-109757914D01*
X187074380Y-109805533D01*
X187502952Y-110376961D02*
X187407714Y-110424580D01*
X187169619Y-110424580D01*
X187074380Y-110376961D01*
X187026761Y-110281723D01*
X187026761Y-110186485D01*
X187074380Y-110091247D01*
X187169619Y-110043628D01*
X187407714Y-110043628D01*
X187502952Y-109996009D01*
X187979142Y-109757914D02*
X187979142Y-110424580D01*
X187979142Y-109853152D02*
X188026761Y-109805533D01*
X188122000Y-109757914D01*
X188264857Y-109757914D01*
X188360095Y-109805533D01*
X188407714Y-109900771D01*
X188407714Y-110424580D01*
X189312476Y-110424580D02*
X189312476Y-109424580D01*
X189312476Y-110376961D02*
X189217238Y-110424580D01*
X189026761Y-110424580D01*
X188931523Y-110376961D01*
X188883904Y-110329342D01*
X188836285Y-110234104D01*
X188836285Y-109948390D01*
X188883904Y-109853152D01*
X188931523Y-109805533D01*
X189026761Y-109757914D01*
X189217238Y-109757914D01*
X189312476Y-109805533D01*
X185169619Y-112074580D02*
X184693428Y-112074580D01*
X184693428Y-111074580D01*
X185645809Y-112074580D02*
X185550571Y-112026961D01*
X185502952Y-111979342D01*
X185455333Y-111884104D01*
X185455333Y-111598390D01*
X185502952Y-111503152D01*
X185550571Y-111455533D01*
X185645809Y-111407914D01*
X185788666Y-111407914D01*
X185883904Y-111455533D01*
X185931523Y-111503152D01*
X185979142Y-111598390D01*
X185979142Y-111884104D01*
X185931523Y-111979342D01*
X185883904Y-112026961D01*
X185788666Y-112074580D01*
X185645809Y-112074580D01*
X186407714Y-111407914D02*
X186407714Y-112074580D01*
X186407714Y-111503152D02*
X186455333Y-111455533D01*
X186550571Y-111407914D01*
X186693428Y-111407914D01*
X186788666Y-111455533D01*
X186836285Y-111550771D01*
X186836285Y-112074580D01*
X187741047Y-112074580D02*
X187741047Y-111074580D01*
X187741047Y-112026961D02*
X187645809Y-112074580D01*
X187455333Y-112074580D01*
X187360095Y-112026961D01*
X187312476Y-111979342D01*
X187264857Y-111884104D01*
X187264857Y-111598390D01*
X187312476Y-111503152D01*
X187360095Y-111455533D01*
X187455333Y-111407914D01*
X187645809Y-111407914D01*
X187741047Y-111455533D01*
X188360095Y-112074580D02*
X188264857Y-112026961D01*
X188217238Y-111979342D01*
X188169619Y-111884104D01*
X188169619Y-111598390D01*
X188217238Y-111503152D01*
X188264857Y-111455533D01*
X188360095Y-111407914D01*
X188502952Y-111407914D01*
X188598190Y-111455533D01*
X188645809Y-111503152D01*
X188693428Y-111598390D01*
X188693428Y-111884104D01*
X188645809Y-111979342D01*
X188598190Y-112026961D01*
X188502952Y-112074580D01*
X188360095Y-112074580D01*
X189122000Y-111407914D02*
X189122000Y-112074580D01*
X189122000Y-111503152D02*
X189169619Y-111455533D01*
X189264857Y-111407914D01*
X189407714Y-111407914D01*
X189502952Y-111455533D01*
X189550571Y-111550771D01*
X189550571Y-112074580D01*
X183479142Y-112724580D02*
X183717238Y-113724580D01*
X183907714Y-113010295D01*
X184098190Y-113724580D01*
X184336285Y-112724580D01*
X185288666Y-113629342D02*
X185241047Y-113676961D01*
X185098190Y-113724580D01*
X185002952Y-113724580D01*
X184860095Y-113676961D01*
X184764857Y-113581723D01*
X184717238Y-113486485D01*
X184669619Y-113296009D01*
X184669619Y-113153152D01*
X184717238Y-112962676D01*
X184764857Y-112867438D01*
X184860095Y-112772200D01*
X185002952Y-112724580D01*
X185098190Y-112724580D01*
X185241047Y-112772200D01*
X185288666Y-112819819D01*
X185669619Y-112819819D02*
X185717238Y-112772200D01*
X185812476Y-112724580D01*
X186050571Y-112724580D01*
X186145809Y-112772200D01*
X186193428Y-112819819D01*
X186241047Y-112915057D01*
X186241047Y-113010295D01*
X186193428Y-113153152D01*
X185622000Y-113724580D01*
X186241047Y-113724580D01*
X187241047Y-113724580D02*
X186907714Y-113248390D01*
X186669619Y-113724580D02*
X186669619Y-112724580D01*
X187050571Y-112724580D01*
X187145809Y-112772200D01*
X187193428Y-112819819D01*
X187241047Y-112915057D01*
X187241047Y-113057914D01*
X187193428Y-113153152D01*
X187145809Y-113200771D01*
X187050571Y-113248390D01*
X186669619Y-113248390D01*
X188383904Y-112819819D02*
X188431523Y-112772200D01*
X188526761Y-112724580D01*
X188764857Y-112724580D01*
X188860095Y-112772200D01*
X188907714Y-112819819D01*
X188955333Y-112915057D01*
X188955333Y-113010295D01*
X188907714Y-113153152D01*
X188336285Y-113724580D01*
X188955333Y-113724580D01*
X189860095Y-113724580D02*
X189383904Y-113724580D01*
X189383904Y-112724580D01*
X190145809Y-113676961D02*
X190288666Y-113724580D01*
X190526761Y-113724580D01*
X190622000Y-113676961D01*
X190669619Y-113629342D01*
X190717238Y-113534104D01*
X190717238Y-113438866D01*
X190669619Y-113343628D01*
X190622000Y-113296009D01*
X190526761Y-113248390D01*
X190336285Y-113200771D01*
X190241047Y-113153152D01*
X190193428Y-113105533D01*
X190145809Y-113010295D01*
X190145809Y-112915057D01*
X190193428Y-112819819D01*
X190241047Y-112772200D01*
X190336285Y-112724580D01*
X190574380Y-112724580D01*
X190717238Y-112772200D01*
X179526761Y-116024580D02*
X180098190Y-116024580D01*
X179812476Y-117024580D02*
X179812476Y-116024580D01*
X180812476Y-116976961D02*
X180717238Y-117024580D01*
X180526761Y-117024580D01*
X180431523Y-116976961D01*
X180383904Y-116881723D01*
X180383904Y-116500771D01*
X180431523Y-116405533D01*
X180526761Y-116357914D01*
X180717238Y-116357914D01*
X180812476Y-116405533D01*
X180860095Y-116500771D01*
X180860095Y-116596009D01*
X180383904Y-116691247D01*
X181431523Y-117024580D02*
X181336285Y-116976961D01*
X181288666Y-116881723D01*
X181288666Y-116024580D01*
X181812476Y-116929342D02*
X181860095Y-116976961D01*
X181812476Y-117024580D01*
X181764857Y-116976961D01*
X181812476Y-116929342D01*
X181812476Y-117024580D01*
X181812476Y-116405533D02*
X181860095Y-116453152D01*
X181812476Y-116500771D01*
X181764857Y-116453152D01*
X181812476Y-116405533D01*
X181812476Y-116500771D01*
X183241047Y-116024580D02*
X183336285Y-116024580D01*
X183431523Y-116072200D01*
X183479142Y-116119819D01*
X183526761Y-116215057D01*
X183574380Y-116405533D01*
X183574380Y-116643628D01*
X183526761Y-116834104D01*
X183479142Y-116929342D01*
X183431523Y-116976961D01*
X183336285Y-117024580D01*
X183241047Y-117024580D01*
X183145809Y-116976961D01*
X183098190Y-116929342D01*
X183050571Y-116834104D01*
X183002952Y-116643628D01*
X183002952Y-116405533D01*
X183050571Y-116215057D01*
X183098190Y-116119819D01*
X183145809Y-116072200D01*
X183241047Y-116024580D01*
X183955333Y-116119819D02*
X184002952Y-116072200D01*
X184098190Y-116024580D01*
X184336285Y-116024580D01*
X184431523Y-116072200D01*
X184479142Y-116119819D01*
X184526761Y-116215057D01*
X184526761Y-116310295D01*
X184479142Y-116453152D01*
X183907714Y-117024580D01*
X184526761Y-117024580D01*
X185145809Y-116024580D02*
X185241047Y-116024580D01*
X185336285Y-116072200D01*
X185383904Y-116119819D01*
X185431523Y-116215057D01*
X185479142Y-116405533D01*
X185479142Y-116643628D01*
X185431523Y-116834104D01*
X185383904Y-116929342D01*
X185336285Y-116976961D01*
X185241047Y-117024580D01*
X185145809Y-117024580D01*
X185050571Y-116976961D01*
X185002952Y-116929342D01*
X184955333Y-116834104D01*
X184907714Y-116643628D01*
X184907714Y-116405533D01*
X184955333Y-116215057D01*
X185002952Y-116119819D01*
X185050571Y-116072200D01*
X185145809Y-116024580D01*
X185812476Y-116024580D02*
X186479142Y-116024580D01*
X186050571Y-117024580D01*
X187764857Y-116453152D02*
X187669619Y-116405533D01*
X187622000Y-116357914D01*
X187574380Y-116262676D01*
X187574380Y-116215057D01*
X187622000Y-116119819D01*
X187669619Y-116072200D01*
X187764857Y-116024580D01*
X187955333Y-116024580D01*
X188050571Y-116072200D01*
X188098190Y-116119819D01*
X188145809Y-116215057D01*
X188145809Y-116262676D01*
X188098190Y-116357914D01*
X188050571Y-116405533D01*
X187955333Y-116453152D01*
X187764857Y-116453152D01*
X187669619Y-116500771D01*
X187622000Y-116548390D01*
X187574380Y-116643628D01*
X187574380Y-116834104D01*
X187622000Y-116929342D01*
X187669619Y-116976961D01*
X187764857Y-117024580D01*
X187955333Y-117024580D01*
X188050571Y-116976961D01*
X188098190Y-116929342D01*
X188145809Y-116834104D01*
X188145809Y-116643628D01*
X188098190Y-116548390D01*
X188050571Y-116500771D01*
X187955333Y-116453152D01*
X189002952Y-116357914D02*
X189002952Y-117024580D01*
X188764857Y-115976961D02*
X188526761Y-116691247D01*
X189145809Y-116691247D01*
X189669619Y-116453152D02*
X189574380Y-116405533D01*
X189526761Y-116357914D01*
X189479142Y-116262676D01*
X189479142Y-116215057D01*
X189526761Y-116119819D01*
X189574380Y-116072200D01*
X189669619Y-116024580D01*
X189860095Y-116024580D01*
X189955333Y-116072200D01*
X190002952Y-116119819D01*
X190050571Y-116215057D01*
X190050571Y-116262676D01*
X190002952Y-116357914D01*
X189955333Y-116405533D01*
X189860095Y-116453152D01*
X189669619Y-116453152D01*
X189574380Y-116500771D01*
X189526761Y-116548390D01*
X189479142Y-116643628D01*
X189479142Y-116834104D01*
X189526761Y-116929342D01*
X189574380Y-116976961D01*
X189669619Y-117024580D01*
X189860095Y-117024580D01*
X189955333Y-116976961D01*
X190002952Y-116929342D01*
X190050571Y-116834104D01*
X190050571Y-116643628D01*
X190002952Y-116548390D01*
X189955333Y-116500771D01*
X189860095Y-116453152D01*
X191193428Y-116119819D02*
X191241047Y-116072200D01*
X191336285Y-116024580D01*
X191574380Y-116024580D01*
X191669619Y-116072200D01*
X191717238Y-116119819D01*
X191764857Y-116215057D01*
X191764857Y-116310295D01*
X191717238Y-116453152D01*
X191145809Y-117024580D01*
X191764857Y-117024580D01*
X192336285Y-116453152D02*
X192241047Y-116405533D01*
X192193428Y-116357914D01*
X192145809Y-116262676D01*
X192145809Y-116215057D01*
X192193428Y-116119819D01*
X192241047Y-116072200D01*
X192336285Y-116024580D01*
X192526761Y-116024580D01*
X192622000Y-116072200D01*
X192669619Y-116119819D01*
X192717238Y-116215057D01*
X192717238Y-116262676D01*
X192669619Y-116357914D01*
X192622000Y-116405533D01*
X192526761Y-116453152D01*
X192336285Y-116453152D01*
X192241047Y-116500771D01*
X192193428Y-116548390D01*
X192145809Y-116643628D01*
X192145809Y-116834104D01*
X192193428Y-116929342D01*
X192241047Y-116976961D01*
X192336285Y-117024580D01*
X192526761Y-117024580D01*
X192622000Y-116976961D01*
X192669619Y-116929342D01*
X192717238Y-116834104D01*
X192717238Y-116643628D01*
X192669619Y-116548390D01*
X192622000Y-116500771D01*
X192526761Y-116453152D01*
X193622000Y-116024580D02*
X193145809Y-116024580D01*
X193098190Y-116500771D01*
X193145809Y-116453152D01*
X193241047Y-116405533D01*
X193479142Y-116405533D01*
X193574380Y-116453152D01*
X193622000Y-116500771D01*
X193669619Y-116596009D01*
X193669619Y-116834104D01*
X193622000Y-116929342D01*
X193574380Y-116976961D01*
X193479142Y-117024580D01*
X193241047Y-117024580D01*
X193145809Y-116976961D01*
X193098190Y-116929342D01*
X194288666Y-116024580D02*
X194383904Y-116024580D01*
X194479142Y-116072200D01*
X194526761Y-116119819D01*
X194574380Y-116215057D01*
X194622000Y-116405533D01*
X194622000Y-116643628D01*
X194574380Y-116834104D01*
X194526761Y-116929342D01*
X194479142Y-116976961D01*
X194383904Y-117024580D01*
X194288666Y-117024580D01*
X194193428Y-116976961D01*
X194145809Y-116929342D01*
X194098190Y-116834104D01*
X194050571Y-116643628D01*
X194050571Y-116405533D01*
X194098190Y-116215057D01*
X194145809Y-116119819D01*
X194193428Y-116072200D01*
X194288666Y-116024580D01*
X183860095Y-119324580D02*
X184193428Y-120324580D01*
X184526761Y-119324580D01*
X185241047Y-120276961D02*
X185145809Y-120324580D01*
X184955333Y-120324580D01*
X184860095Y-120276961D01*
X184812476Y-120181723D01*
X184812476Y-119800771D01*
X184860095Y-119705533D01*
X184955333Y-119657914D01*
X185145809Y-119657914D01*
X185241047Y-119705533D01*
X185288666Y-119800771D01*
X185288666Y-119896009D01*
X184812476Y-119991247D01*
X185717238Y-120324580D02*
X185717238Y-119657914D01*
X185717238Y-119848390D02*
X185764857Y-119753152D01*
X185812476Y-119705533D01*
X185907714Y-119657914D01*
X186002952Y-119657914D01*
X186288666Y-120276961D02*
X186383904Y-120324580D01*
X186574380Y-120324580D01*
X186669619Y-120276961D01*
X186717238Y-120181723D01*
X186717238Y-120134104D01*
X186669619Y-120038866D01*
X186574380Y-119991247D01*
X186431523Y-119991247D01*
X186336285Y-119943628D01*
X186288666Y-119848390D01*
X186288666Y-119800771D01*
X186336285Y-119705533D01*
X186431523Y-119657914D01*
X186574380Y-119657914D01*
X186669619Y-119705533D01*
X187145809Y-120324580D02*
X187145809Y-119657914D01*
X187145809Y-119324580D02*
X187098190Y-119372200D01*
X187145809Y-119419819D01*
X187193428Y-119372200D01*
X187145809Y-119324580D01*
X187145809Y-119419819D01*
X187764857Y-120324580D02*
X187669619Y-120276961D01*
X187622000Y-120229342D01*
X187574380Y-120134104D01*
X187574380Y-119848390D01*
X187622000Y-119753152D01*
X187669619Y-119705533D01*
X187764857Y-119657914D01*
X187907714Y-119657914D01*
X188002952Y-119705533D01*
X188050571Y-119753152D01*
X188098190Y-119848390D01*
X188098190Y-120134104D01*
X188050571Y-120229342D01*
X188002952Y-120276961D01*
X187907714Y-120324580D01*
X187764857Y-120324580D01*
X188526761Y-119657914D02*
X188526761Y-120324580D01*
X188526761Y-119753152D02*
X188574380Y-119705533D01*
X188669619Y-119657914D01*
X188812476Y-119657914D01*
X188907714Y-119705533D01*
X188955333Y-119800771D01*
X188955333Y-120324580D01*
X189383904Y-120276961D02*
X189479142Y-120324580D01*
X189669619Y-120324580D01*
X189764857Y-120276961D01*
X189812476Y-120181723D01*
X189812476Y-120134104D01*
X189764857Y-120038866D01*
X189669619Y-119991247D01*
X189526761Y-119991247D01*
X189431523Y-119943628D01*
X189383904Y-119848390D01*
X189383904Y-119800771D01*
X189431523Y-119705533D01*
X189526761Y-119657914D01*
X189669619Y-119657914D01*
X189764857Y-119705533D01*
X190241047Y-120229342D02*
X190288666Y-120276961D01*
X190241047Y-120324580D01*
X190193428Y-120276961D01*
X190241047Y-120229342D01*
X190241047Y-120324580D01*
X190241047Y-119705533D02*
X190288666Y-119753152D01*
X190241047Y-119800771D01*
X190193428Y-119753152D01*
X190241047Y-119705533D01*
X190241047Y-119800771D01*
X181098190Y-121974580D02*
X181098190Y-120974580D01*
X181574380Y-121307914D02*
X181574380Y-121974580D01*
X181574380Y-121403152D02*
X181622000Y-121355533D01*
X181717238Y-121307914D01*
X181860095Y-121307914D01*
X181955333Y-121355533D01*
X182002952Y-121450771D01*
X182002952Y-121974580D01*
X182479142Y-121974580D02*
X182479142Y-121307914D01*
X182479142Y-120974580D02*
X182431523Y-121022200D01*
X182479142Y-121069819D01*
X182526761Y-121022200D01*
X182479142Y-120974580D01*
X182479142Y-121069819D01*
X182812476Y-121307914D02*
X183193428Y-121307914D01*
X182955333Y-120974580D02*
X182955333Y-121831723D01*
X183002952Y-121926961D01*
X183098190Y-121974580D01*
X183193428Y-121974580D01*
X183526761Y-121974580D02*
X183526761Y-121307914D01*
X183526761Y-120974580D02*
X183479142Y-121022200D01*
X183526761Y-121069819D01*
X183574380Y-121022200D01*
X183526761Y-120974580D01*
X183526761Y-121069819D01*
X184431523Y-121974580D02*
X184431523Y-121450771D01*
X184383904Y-121355533D01*
X184288666Y-121307914D01*
X184098190Y-121307914D01*
X184002952Y-121355533D01*
X184431523Y-121926961D02*
X184336285Y-121974580D01*
X184098190Y-121974580D01*
X184002952Y-121926961D01*
X183955333Y-121831723D01*
X183955333Y-121736485D01*
X184002952Y-121641247D01*
X184098190Y-121593628D01*
X184336285Y-121593628D01*
X184431523Y-121546009D01*
X185050571Y-121974580D02*
X184955333Y-121926961D01*
X184907714Y-121831723D01*
X184907714Y-120974580D01*
X186193428Y-121974580D02*
X186193428Y-120974580D01*
X186431523Y-120974580D01*
X186574380Y-121022200D01*
X186669619Y-121117438D01*
X186717238Y-121212676D01*
X186764857Y-121403152D01*
X186764857Y-121546009D01*
X186717238Y-121736485D01*
X186669619Y-121831723D01*
X186574380Y-121926961D01*
X186431523Y-121974580D01*
X186193428Y-121974580D01*
X187574380Y-121926961D02*
X187479142Y-121974580D01*
X187288666Y-121974580D01*
X187193428Y-121926961D01*
X187145809Y-121831723D01*
X187145809Y-121450771D01*
X187193428Y-121355533D01*
X187288666Y-121307914D01*
X187479142Y-121307914D01*
X187574380Y-121355533D01*
X187622000Y-121450771D01*
X187622000Y-121546009D01*
X187145809Y-121641247D01*
X188002952Y-121926961D02*
X188098190Y-121974580D01*
X188288666Y-121974580D01*
X188383904Y-121926961D01*
X188431523Y-121831723D01*
X188431523Y-121784104D01*
X188383904Y-121688866D01*
X188288666Y-121641247D01*
X188145809Y-121641247D01*
X188050571Y-121593628D01*
X188002952Y-121498390D01*
X188002952Y-121450771D01*
X188050571Y-121355533D01*
X188145809Y-121307914D01*
X188288666Y-121307914D01*
X188383904Y-121355533D01*
X188860095Y-121974580D02*
X188860095Y-121307914D01*
X188860095Y-120974580D02*
X188812476Y-121022200D01*
X188860095Y-121069819D01*
X188907714Y-121022200D01*
X188860095Y-120974580D01*
X188860095Y-121069819D01*
X189764857Y-121307914D02*
X189764857Y-122117438D01*
X189717238Y-122212676D01*
X189669619Y-122260295D01*
X189574380Y-122307914D01*
X189431523Y-122307914D01*
X189336285Y-122260295D01*
X189764857Y-121926961D02*
X189669619Y-121974580D01*
X189479142Y-121974580D01*
X189383904Y-121926961D01*
X189336285Y-121879342D01*
X189288666Y-121784104D01*
X189288666Y-121498390D01*
X189336285Y-121403152D01*
X189383904Y-121355533D01*
X189479142Y-121307914D01*
X189669619Y-121307914D01*
X189764857Y-121355533D01*
X190241047Y-121307914D02*
X190241047Y-121974580D01*
X190241047Y-121403152D02*
X190288666Y-121355533D01*
X190383904Y-121307914D01*
X190526761Y-121307914D01*
X190622000Y-121355533D01*
X190669619Y-121450771D01*
X190669619Y-121974580D01*
X191812476Y-121307914D02*
X192050571Y-121974580D01*
X192288666Y-121307914D01*
X193193428Y-121974580D02*
X192621999Y-121974580D01*
X192907714Y-121974580D02*
X192907714Y-120974580D01*
X192812476Y-121117438D01*
X192717238Y-121212676D01*
X192621999Y-121260295D01*
X179836285Y-123624580D02*
X179836285Y-122624580D01*
X180074380Y-122624580D01*
X180217238Y-122672200D01*
X180312476Y-122767438D01*
X180360095Y-122862676D01*
X180407714Y-123053152D01*
X180407714Y-123196009D01*
X180360095Y-123386485D01*
X180312476Y-123481723D01*
X180217238Y-123576961D01*
X180074380Y-123624580D01*
X179836285Y-123624580D01*
X181264857Y-123624580D02*
X181264857Y-123100771D01*
X181217238Y-123005533D01*
X181122000Y-122957914D01*
X180931523Y-122957914D01*
X180836285Y-123005533D01*
X181264857Y-123576961D02*
X181169619Y-123624580D01*
X180931523Y-123624580D01*
X180836285Y-123576961D01*
X180788666Y-123481723D01*
X180788666Y-123386485D01*
X180836285Y-123291247D01*
X180931523Y-123243628D01*
X181169619Y-123243628D01*
X181264857Y-123196009D01*
X181598190Y-122957914D02*
X181979142Y-122957914D01*
X181741047Y-122624580D02*
X181741047Y-123481723D01*
X181788666Y-123576961D01*
X181883904Y-123624580D01*
X181979142Y-123624580D01*
X182693428Y-123576961D02*
X182598190Y-123624580D01*
X182407714Y-123624580D01*
X182312476Y-123576961D01*
X182264857Y-123481723D01*
X182264857Y-123100771D01*
X182312476Y-123005533D01*
X182407714Y-122957914D01*
X182598190Y-122957914D01*
X182693428Y-123005533D01*
X182741047Y-123100771D01*
X182741047Y-123196009D01*
X182264857Y-123291247D01*
X183169619Y-123529342D02*
X183217238Y-123576961D01*
X183169619Y-123624580D01*
X183122000Y-123576961D01*
X183169619Y-123529342D01*
X183169619Y-123624580D01*
X183169619Y-123005533D02*
X183217238Y-123053152D01*
X183169619Y-123100771D01*
X183122000Y-123053152D01*
X183169619Y-123005533D01*
X183169619Y-123100771D01*
X184931523Y-123624580D02*
X184360095Y-123624580D01*
X184645809Y-123624580D02*
X184645809Y-122624580D01*
X184550571Y-122767438D01*
X184455333Y-122862676D01*
X184360095Y-122910295D01*
X185883904Y-123624580D02*
X185312476Y-123624580D01*
X185598190Y-123624580D02*
X185598190Y-122624580D01*
X185502952Y-122767438D01*
X185407714Y-122862676D01*
X185312476Y-122910295D01*
X187026761Y-122576961D02*
X186169619Y-123862676D01*
X187550571Y-122624580D02*
X187645809Y-122624580D01*
X187741047Y-122672200D01*
X187788666Y-122719819D01*
X187836285Y-122815057D01*
X187883904Y-123005533D01*
X187883904Y-123243628D01*
X187836285Y-123434104D01*
X187788666Y-123529342D01*
X187741047Y-123576961D01*
X187645809Y-123624580D01*
X187550571Y-123624580D01*
X187455333Y-123576961D01*
X187407714Y-123529342D01*
X187360095Y-123434104D01*
X187312476Y-123243628D01*
X187312476Y-123005533D01*
X187360095Y-122815057D01*
X187407714Y-122719819D01*
X187455333Y-122672200D01*
X187550571Y-122624580D01*
X188264857Y-122719819D02*
X188312476Y-122672200D01*
X188407714Y-122624580D01*
X188645809Y-122624580D01*
X188741047Y-122672200D01*
X188788666Y-122719819D01*
X188836285Y-122815057D01*
X188836285Y-122910295D01*
X188788666Y-123053152D01*
X188217238Y-123624580D01*
X188836285Y-123624580D01*
X189979142Y-122576961D02*
X189122000Y-123862676D01*
X190264857Y-122719819D02*
X190312476Y-122672200D01*
X190407714Y-122624580D01*
X190645809Y-122624580D01*
X190741047Y-122672200D01*
X190788666Y-122719819D01*
X190836285Y-122815057D01*
X190836285Y-122910295D01*
X190788666Y-123053152D01*
X190217238Y-123624580D01*
X190836285Y-123624580D01*
X191455333Y-122624580D02*
X191550571Y-122624580D01*
X191645809Y-122672200D01*
X191693428Y-122719819D01*
X191741047Y-122815057D01*
X191788666Y-123005533D01*
X191788666Y-123243628D01*
X191741047Y-123434104D01*
X191693428Y-123529342D01*
X191645809Y-123576961D01*
X191550571Y-123624580D01*
X191455333Y-123624580D01*
X191360095Y-123576961D01*
X191312476Y-123529342D01*
X191264857Y-123434104D01*
X191217238Y-123243628D01*
X191217238Y-123005533D01*
X191264857Y-122815057D01*
X191312476Y-122719819D01*
X191360095Y-122672200D01*
X191455333Y-122624580D01*
X192169619Y-122719819D02*
X192217238Y-122672200D01*
X192312476Y-122624580D01*
X192550571Y-122624580D01*
X192645809Y-122672200D01*
X192693428Y-122719819D01*
X192741047Y-122815057D01*
X192741047Y-122910295D01*
X192693428Y-123053152D01*
X192122000Y-123624580D01*
X192741047Y-123624580D01*
X193360095Y-122624580D02*
X193455333Y-122624580D01*
X193550571Y-122672200D01*
X193598190Y-122719819D01*
X193645809Y-122815057D01*
X193693428Y-123005533D01*
X193693428Y-123243628D01*
X193645809Y-123434104D01*
X193598190Y-123529342D01*
X193550571Y-123576961D01*
X193455333Y-123624580D01*
X193360095Y-123624580D01*
X193264857Y-123576961D01*
X193217238Y-123529342D01*
X193169619Y-123434104D01*
X193122000Y-123243628D01*
X193122000Y-123005533D01*
X193169619Y-122815057D01*
X193217238Y-122719819D01*
X193264857Y-122672200D01*
X193360095Y-122624580D01*
X158200000Y-85000000D02*
G75*
G03X158200000Y-85000000I-3200000J0D01*
G01*
X108200000Y-85000000D02*
G75*
G03X108200000Y-85000000I-3200000J0D01*
G01*
X158200000Y-115000000D02*
G75*
G03X158200000Y-115000000I-3200000J0D01*
G01*
X108200000Y-115000000D02*
G75*
G03X108200000Y-115000000I-3200000J0D01*
G01*
M02*
