M48
; DRILL file {KiCad (5.1.5-0-10_14)} date Tuesday, 11 February 2020 at 13:32:50
; FORMAT={-:-/ absolute / metric / decimal}
; #@! TF.CreationDate,2020-02-11T13:32:50+00:00
; #@! TF.GenerationSoftware,Kicad,Pcbnew,(5.1.5-0-10_14)
; #@! TF.FileFunction,Plated,1,2,PTH
FMAT,2
METRIC
T1C0.300
T2C0.600
T3C0.700
T4C0.800
T5C1.200
%
G90
G05
T1
X117.272Y-112.38
X131.496Y-104.252
X131.75Y-109.84
T3
X112.7Y-107.3
X112.7Y-109.84
T4
X139.37Y-89.52
X142.87Y-89.52
X132.29Y-89.52
X134.29Y-89.52
X120.32Y-89.52
X122.86Y-94.52
X125.32Y-89.52
X120.86Y-103.49
X122.86Y-103.49
T5
X105.12Y-93.41
X105.12Y-103.41
X107.62Y-93.41
X107.62Y-103.41
X112.62Y-98.41
X148.34Y-95.87
X153.34Y-90.87
X153.34Y-100.87
X155.84Y-90.87
X155.84Y-100.87
T2
G00X107.62Y-98.86
M15
G01X107.62Y-97.96
M16
G05
G00X112.17Y-93.41
M15
G01X113.07Y-93.41
M16
G05
G00X112.17Y-95.91
M15
G01X113.07Y-95.91
M16
G05
G00X112.17Y-100.91
M15
G01X113.07Y-100.91
M16
G05
G00X112.17Y-103.41
M15
G01X113.07Y-103.41
M16
G05
G00X148.79Y-90.87
M15
G01X147.89Y-90.87
M16
G05
G00X148.79Y-93.37
M15
G01X147.89Y-93.37
M16
G05
G00X148.79Y-98.37
M15
G01X147.89Y-98.37
M16
G05
G00X148.79Y-100.87
M15
G01X147.89Y-100.87
M16
G05
G00X153.34Y-95.42
M15
G01X153.34Y-96.32
M16
G05
T0
M30
