G04 #@! TF.GenerationSoftware,KiCad,Pcbnew,(5.1.5-0-10_14)*
G04 #@! TF.CreationDate,2020-02-11T13:30:23+00:00*
G04 #@! TF.ProjectId,K1889054_A2000_01,4b313838-3930-4353-945f-41323030305f,1.0*
G04 #@! TF.SameCoordinates,Original*
G04 #@! TF.FileFunction,Copper,L2,Bot*
G04 #@! TF.FilePolarity,Positive*
%FSLAX46Y46*%
G04 Gerber Fmt 4.6, Leading zero omitted, Abs format (unit mm)*
G04 Created by KiCad (PCBNEW (5.1.5-0-10_14)) date 2020-02-11 13:30:23*
%MOMM*%
%LPD*%
G04 APERTURE LIST*
%ADD10C,1.200000*%
%ADD11C,0.100000*%
%ADD12C,1.600000*%
%ADD13R,1.600000X1.600000*%
%ADD14C,1.440000*%
%ADD15C,1.524000*%
%ADD16R,1.524000X1.524000*%
%ADD17C,6.400000*%
%ADD18C,0.600000*%
%ADD19C,0.700000*%
%ADD20C,0.250000*%
%ADD21C,0.254000*%
G04 APERTURE END LIST*
D10*
X107620000Y-103410000D03*
X105120000Y-103410000D03*
X112620000Y-98410000D03*
X107620000Y-93410000D03*
X105120000Y-93410000D03*
G04 #@! TA.AperFunction,ComponentPad*
D11*
G36*
X113531756Y-95161806D02*
G01*
X113568159Y-95167206D01*
X113603857Y-95176147D01*
X113638506Y-95188545D01*
X113671774Y-95204280D01*
X113703339Y-95223199D01*
X113732897Y-95245121D01*
X113760165Y-95269835D01*
X113784879Y-95297103D01*
X113806801Y-95326661D01*
X113825720Y-95358226D01*
X113841455Y-95391494D01*
X113853853Y-95426143D01*
X113862794Y-95461841D01*
X113868194Y-95498244D01*
X113870000Y-95535000D01*
X113870000Y-96285000D01*
X113868194Y-96321756D01*
X113862794Y-96358159D01*
X113853853Y-96393857D01*
X113841455Y-96428506D01*
X113825720Y-96461774D01*
X113806801Y-96493339D01*
X113784879Y-96522897D01*
X113760165Y-96550165D01*
X113732897Y-96574879D01*
X113703339Y-96596801D01*
X113671774Y-96615720D01*
X113638506Y-96631455D01*
X113603857Y-96643853D01*
X113568159Y-96652794D01*
X113531756Y-96658194D01*
X113495000Y-96660000D01*
X111745000Y-96660000D01*
X111708244Y-96658194D01*
X111671841Y-96652794D01*
X111636143Y-96643853D01*
X111601494Y-96631455D01*
X111568226Y-96615720D01*
X111536661Y-96596801D01*
X111507103Y-96574879D01*
X111479835Y-96550165D01*
X111455121Y-96522897D01*
X111433199Y-96493339D01*
X111414280Y-96461774D01*
X111398545Y-96428506D01*
X111386147Y-96393857D01*
X111377206Y-96358159D01*
X111371806Y-96321756D01*
X111370000Y-96285000D01*
X111370000Y-95535000D01*
X111371806Y-95498244D01*
X111377206Y-95461841D01*
X111386147Y-95426143D01*
X111398545Y-95391494D01*
X111414280Y-95358226D01*
X111433199Y-95326661D01*
X111455121Y-95297103D01*
X111479835Y-95269835D01*
X111507103Y-95245121D01*
X111536661Y-95223199D01*
X111568226Y-95204280D01*
X111601494Y-95188545D01*
X111636143Y-95176147D01*
X111671841Y-95167206D01*
X111708244Y-95161806D01*
X111745000Y-95160000D01*
X113495000Y-95160000D01*
X113531756Y-95161806D01*
G37*
G04 #@! TD.AperFunction*
G04 #@! TA.AperFunction,ComponentPad*
G36*
X113531756Y-92661806D02*
G01*
X113568159Y-92667206D01*
X113603857Y-92676147D01*
X113638506Y-92688545D01*
X113671774Y-92704280D01*
X113703339Y-92723199D01*
X113732897Y-92745121D01*
X113760165Y-92769835D01*
X113784879Y-92797103D01*
X113806801Y-92826661D01*
X113825720Y-92858226D01*
X113841455Y-92891494D01*
X113853853Y-92926143D01*
X113862794Y-92961841D01*
X113868194Y-92998244D01*
X113870000Y-93035000D01*
X113870000Y-93785000D01*
X113868194Y-93821756D01*
X113862794Y-93858159D01*
X113853853Y-93893857D01*
X113841455Y-93928506D01*
X113825720Y-93961774D01*
X113806801Y-93993339D01*
X113784879Y-94022897D01*
X113760165Y-94050165D01*
X113732897Y-94074879D01*
X113703339Y-94096801D01*
X113671774Y-94115720D01*
X113638506Y-94131455D01*
X113603857Y-94143853D01*
X113568159Y-94152794D01*
X113531756Y-94158194D01*
X113495000Y-94160000D01*
X111745000Y-94160000D01*
X111708244Y-94158194D01*
X111671841Y-94152794D01*
X111636143Y-94143853D01*
X111601494Y-94131455D01*
X111568226Y-94115720D01*
X111536661Y-94096801D01*
X111507103Y-94074879D01*
X111479835Y-94050165D01*
X111455121Y-94022897D01*
X111433199Y-93993339D01*
X111414280Y-93961774D01*
X111398545Y-93928506D01*
X111386147Y-93893857D01*
X111377206Y-93858159D01*
X111371806Y-93821756D01*
X111370000Y-93785000D01*
X111370000Y-93035000D01*
X111371806Y-92998244D01*
X111377206Y-92961841D01*
X111386147Y-92926143D01*
X111398545Y-92891494D01*
X111414280Y-92858226D01*
X111433199Y-92826661D01*
X111455121Y-92797103D01*
X111479835Y-92769835D01*
X111507103Y-92745121D01*
X111536661Y-92723199D01*
X111568226Y-92704280D01*
X111601494Y-92688545D01*
X111636143Y-92676147D01*
X111671841Y-92667206D01*
X111708244Y-92661806D01*
X111745000Y-92660000D01*
X113495000Y-92660000D01*
X113531756Y-92661806D01*
G37*
G04 #@! TD.AperFunction*
G04 #@! TA.AperFunction,ComponentPad*
G36*
X113531756Y-100161806D02*
G01*
X113568159Y-100167206D01*
X113603857Y-100176147D01*
X113638506Y-100188545D01*
X113671774Y-100204280D01*
X113703339Y-100223199D01*
X113732897Y-100245121D01*
X113760165Y-100269835D01*
X113784879Y-100297103D01*
X113806801Y-100326661D01*
X113825720Y-100358226D01*
X113841455Y-100391494D01*
X113853853Y-100426143D01*
X113862794Y-100461841D01*
X113868194Y-100498244D01*
X113870000Y-100535000D01*
X113870000Y-101285000D01*
X113868194Y-101321756D01*
X113862794Y-101358159D01*
X113853853Y-101393857D01*
X113841455Y-101428506D01*
X113825720Y-101461774D01*
X113806801Y-101493339D01*
X113784879Y-101522897D01*
X113760165Y-101550165D01*
X113732897Y-101574879D01*
X113703339Y-101596801D01*
X113671774Y-101615720D01*
X113638506Y-101631455D01*
X113603857Y-101643853D01*
X113568159Y-101652794D01*
X113531756Y-101658194D01*
X113495000Y-101660000D01*
X111745000Y-101660000D01*
X111708244Y-101658194D01*
X111671841Y-101652794D01*
X111636143Y-101643853D01*
X111601494Y-101631455D01*
X111568226Y-101615720D01*
X111536661Y-101596801D01*
X111507103Y-101574879D01*
X111479835Y-101550165D01*
X111455121Y-101522897D01*
X111433199Y-101493339D01*
X111414280Y-101461774D01*
X111398545Y-101428506D01*
X111386147Y-101393857D01*
X111377206Y-101358159D01*
X111371806Y-101321756D01*
X111370000Y-101285000D01*
X111370000Y-100535000D01*
X111371806Y-100498244D01*
X111377206Y-100461841D01*
X111386147Y-100426143D01*
X111398545Y-100391494D01*
X111414280Y-100358226D01*
X111433199Y-100326661D01*
X111455121Y-100297103D01*
X111479835Y-100269835D01*
X111507103Y-100245121D01*
X111536661Y-100223199D01*
X111568226Y-100204280D01*
X111601494Y-100188545D01*
X111636143Y-100176147D01*
X111671841Y-100167206D01*
X111708244Y-100161806D01*
X111745000Y-100160000D01*
X113495000Y-100160000D01*
X113531756Y-100161806D01*
G37*
G04 #@! TD.AperFunction*
G04 #@! TA.AperFunction,ComponentPad*
G36*
X113531756Y-102661806D02*
G01*
X113568159Y-102667206D01*
X113603857Y-102676147D01*
X113638506Y-102688545D01*
X113671774Y-102704280D01*
X113703339Y-102723199D01*
X113732897Y-102745121D01*
X113760165Y-102769835D01*
X113784879Y-102797103D01*
X113806801Y-102826661D01*
X113825720Y-102858226D01*
X113841455Y-102891494D01*
X113853853Y-102926143D01*
X113862794Y-102961841D01*
X113868194Y-102998244D01*
X113870000Y-103035000D01*
X113870000Y-103785000D01*
X113868194Y-103821756D01*
X113862794Y-103858159D01*
X113853853Y-103893857D01*
X113841455Y-103928506D01*
X113825720Y-103961774D01*
X113806801Y-103993339D01*
X113784879Y-104022897D01*
X113760165Y-104050165D01*
X113732897Y-104074879D01*
X113703339Y-104096801D01*
X113671774Y-104115720D01*
X113638506Y-104131455D01*
X113603857Y-104143853D01*
X113568159Y-104152794D01*
X113531756Y-104158194D01*
X113495000Y-104160000D01*
X111745000Y-104160000D01*
X111708244Y-104158194D01*
X111671841Y-104152794D01*
X111636143Y-104143853D01*
X111601494Y-104131455D01*
X111568226Y-104115720D01*
X111536661Y-104096801D01*
X111507103Y-104074879D01*
X111479835Y-104050165D01*
X111455121Y-104022897D01*
X111433199Y-103993339D01*
X111414280Y-103961774D01*
X111398545Y-103928506D01*
X111386147Y-103893857D01*
X111377206Y-103858159D01*
X111371806Y-103821756D01*
X111370000Y-103785000D01*
X111370000Y-103035000D01*
X111371806Y-102998244D01*
X111377206Y-102961841D01*
X111386147Y-102926143D01*
X111398545Y-102891494D01*
X111414280Y-102858226D01*
X111433199Y-102826661D01*
X111455121Y-102797103D01*
X111479835Y-102769835D01*
X111507103Y-102745121D01*
X111536661Y-102723199D01*
X111568226Y-102704280D01*
X111601494Y-102688545D01*
X111636143Y-102676147D01*
X111671841Y-102667206D01*
X111708244Y-102661806D01*
X111745000Y-102660000D01*
X113495000Y-102660000D01*
X113531756Y-102661806D01*
G37*
G04 #@! TD.AperFunction*
G04 #@! TA.AperFunction,ComponentPad*
G36*
X108031756Y-97161806D02*
G01*
X108068159Y-97167206D01*
X108103857Y-97176147D01*
X108138506Y-97188545D01*
X108171774Y-97204280D01*
X108203339Y-97223199D01*
X108232897Y-97245121D01*
X108260165Y-97269835D01*
X108284879Y-97297103D01*
X108306801Y-97326661D01*
X108325720Y-97358226D01*
X108341455Y-97391494D01*
X108353853Y-97426143D01*
X108362794Y-97461841D01*
X108368194Y-97498244D01*
X108370000Y-97535000D01*
X108370000Y-99285000D01*
X108368194Y-99321756D01*
X108362794Y-99358159D01*
X108353853Y-99393857D01*
X108341455Y-99428506D01*
X108325720Y-99461774D01*
X108306801Y-99493339D01*
X108284879Y-99522897D01*
X108260165Y-99550165D01*
X108232897Y-99574879D01*
X108203339Y-99596801D01*
X108171774Y-99615720D01*
X108138506Y-99631455D01*
X108103857Y-99643853D01*
X108068159Y-99652794D01*
X108031756Y-99658194D01*
X107995000Y-99660000D01*
X107245000Y-99660000D01*
X107208244Y-99658194D01*
X107171841Y-99652794D01*
X107136143Y-99643853D01*
X107101494Y-99631455D01*
X107068226Y-99615720D01*
X107036661Y-99596801D01*
X107007103Y-99574879D01*
X106979835Y-99550165D01*
X106955121Y-99522897D01*
X106933199Y-99493339D01*
X106914280Y-99461774D01*
X106898545Y-99428506D01*
X106886147Y-99393857D01*
X106877206Y-99358159D01*
X106871806Y-99321756D01*
X106870000Y-99285000D01*
X106870000Y-97535000D01*
X106871806Y-97498244D01*
X106877206Y-97461841D01*
X106886147Y-97426143D01*
X106898545Y-97391494D01*
X106914280Y-97358226D01*
X106933199Y-97326661D01*
X106955121Y-97297103D01*
X106979835Y-97269835D01*
X107007103Y-97245121D01*
X107036661Y-97223199D01*
X107068226Y-97204280D01*
X107101494Y-97188545D01*
X107136143Y-97176147D01*
X107171841Y-97167206D01*
X107208244Y-97161806D01*
X107245000Y-97160000D01*
X107995000Y-97160000D01*
X108031756Y-97161806D01*
G37*
G04 #@! TD.AperFunction*
D12*
X142870000Y-89520000D03*
D13*
X139370000Y-89520000D03*
D14*
X125320000Y-89520000D03*
X122860000Y-94520000D03*
X120320000Y-89520000D03*
D15*
X112700000Y-107300000D03*
D16*
X112700000Y-109840000D03*
D10*
X153340000Y-90870000D03*
X155840000Y-90870000D03*
X148340000Y-95870000D03*
X153340000Y-100870000D03*
X155840000Y-100870000D03*
G04 #@! TA.AperFunction,ComponentPad*
D11*
G36*
X149251756Y-97621806D02*
G01*
X149288159Y-97627206D01*
X149323857Y-97636147D01*
X149358506Y-97648545D01*
X149391774Y-97664280D01*
X149423339Y-97683199D01*
X149452897Y-97705121D01*
X149480165Y-97729835D01*
X149504879Y-97757103D01*
X149526801Y-97786661D01*
X149545720Y-97818226D01*
X149561455Y-97851494D01*
X149573853Y-97886143D01*
X149582794Y-97921841D01*
X149588194Y-97958244D01*
X149590000Y-97995000D01*
X149590000Y-98745000D01*
X149588194Y-98781756D01*
X149582794Y-98818159D01*
X149573853Y-98853857D01*
X149561455Y-98888506D01*
X149545720Y-98921774D01*
X149526801Y-98953339D01*
X149504879Y-98982897D01*
X149480165Y-99010165D01*
X149452897Y-99034879D01*
X149423339Y-99056801D01*
X149391774Y-99075720D01*
X149358506Y-99091455D01*
X149323857Y-99103853D01*
X149288159Y-99112794D01*
X149251756Y-99118194D01*
X149215000Y-99120000D01*
X147465000Y-99120000D01*
X147428244Y-99118194D01*
X147391841Y-99112794D01*
X147356143Y-99103853D01*
X147321494Y-99091455D01*
X147288226Y-99075720D01*
X147256661Y-99056801D01*
X147227103Y-99034879D01*
X147199835Y-99010165D01*
X147175121Y-98982897D01*
X147153199Y-98953339D01*
X147134280Y-98921774D01*
X147118545Y-98888506D01*
X147106147Y-98853857D01*
X147097206Y-98818159D01*
X147091806Y-98781756D01*
X147090000Y-98745000D01*
X147090000Y-97995000D01*
X147091806Y-97958244D01*
X147097206Y-97921841D01*
X147106147Y-97886143D01*
X147118545Y-97851494D01*
X147134280Y-97818226D01*
X147153199Y-97786661D01*
X147175121Y-97757103D01*
X147199835Y-97729835D01*
X147227103Y-97705121D01*
X147256661Y-97683199D01*
X147288226Y-97664280D01*
X147321494Y-97648545D01*
X147356143Y-97636147D01*
X147391841Y-97627206D01*
X147428244Y-97621806D01*
X147465000Y-97620000D01*
X149215000Y-97620000D01*
X149251756Y-97621806D01*
G37*
G04 #@! TD.AperFunction*
G04 #@! TA.AperFunction,ComponentPad*
G36*
X149251756Y-100121806D02*
G01*
X149288159Y-100127206D01*
X149323857Y-100136147D01*
X149358506Y-100148545D01*
X149391774Y-100164280D01*
X149423339Y-100183199D01*
X149452897Y-100205121D01*
X149480165Y-100229835D01*
X149504879Y-100257103D01*
X149526801Y-100286661D01*
X149545720Y-100318226D01*
X149561455Y-100351494D01*
X149573853Y-100386143D01*
X149582794Y-100421841D01*
X149588194Y-100458244D01*
X149590000Y-100495000D01*
X149590000Y-101245000D01*
X149588194Y-101281756D01*
X149582794Y-101318159D01*
X149573853Y-101353857D01*
X149561455Y-101388506D01*
X149545720Y-101421774D01*
X149526801Y-101453339D01*
X149504879Y-101482897D01*
X149480165Y-101510165D01*
X149452897Y-101534879D01*
X149423339Y-101556801D01*
X149391774Y-101575720D01*
X149358506Y-101591455D01*
X149323857Y-101603853D01*
X149288159Y-101612794D01*
X149251756Y-101618194D01*
X149215000Y-101620000D01*
X147465000Y-101620000D01*
X147428244Y-101618194D01*
X147391841Y-101612794D01*
X147356143Y-101603853D01*
X147321494Y-101591455D01*
X147288226Y-101575720D01*
X147256661Y-101556801D01*
X147227103Y-101534879D01*
X147199835Y-101510165D01*
X147175121Y-101482897D01*
X147153199Y-101453339D01*
X147134280Y-101421774D01*
X147118545Y-101388506D01*
X147106147Y-101353857D01*
X147097206Y-101318159D01*
X147091806Y-101281756D01*
X147090000Y-101245000D01*
X147090000Y-100495000D01*
X147091806Y-100458244D01*
X147097206Y-100421841D01*
X147106147Y-100386143D01*
X147118545Y-100351494D01*
X147134280Y-100318226D01*
X147153199Y-100286661D01*
X147175121Y-100257103D01*
X147199835Y-100229835D01*
X147227103Y-100205121D01*
X147256661Y-100183199D01*
X147288226Y-100164280D01*
X147321494Y-100148545D01*
X147356143Y-100136147D01*
X147391841Y-100127206D01*
X147428244Y-100121806D01*
X147465000Y-100120000D01*
X149215000Y-100120000D01*
X149251756Y-100121806D01*
G37*
G04 #@! TD.AperFunction*
G04 #@! TA.AperFunction,ComponentPad*
G36*
X149251756Y-92621806D02*
G01*
X149288159Y-92627206D01*
X149323857Y-92636147D01*
X149358506Y-92648545D01*
X149391774Y-92664280D01*
X149423339Y-92683199D01*
X149452897Y-92705121D01*
X149480165Y-92729835D01*
X149504879Y-92757103D01*
X149526801Y-92786661D01*
X149545720Y-92818226D01*
X149561455Y-92851494D01*
X149573853Y-92886143D01*
X149582794Y-92921841D01*
X149588194Y-92958244D01*
X149590000Y-92995000D01*
X149590000Y-93745000D01*
X149588194Y-93781756D01*
X149582794Y-93818159D01*
X149573853Y-93853857D01*
X149561455Y-93888506D01*
X149545720Y-93921774D01*
X149526801Y-93953339D01*
X149504879Y-93982897D01*
X149480165Y-94010165D01*
X149452897Y-94034879D01*
X149423339Y-94056801D01*
X149391774Y-94075720D01*
X149358506Y-94091455D01*
X149323857Y-94103853D01*
X149288159Y-94112794D01*
X149251756Y-94118194D01*
X149215000Y-94120000D01*
X147465000Y-94120000D01*
X147428244Y-94118194D01*
X147391841Y-94112794D01*
X147356143Y-94103853D01*
X147321494Y-94091455D01*
X147288226Y-94075720D01*
X147256661Y-94056801D01*
X147227103Y-94034879D01*
X147199835Y-94010165D01*
X147175121Y-93982897D01*
X147153199Y-93953339D01*
X147134280Y-93921774D01*
X147118545Y-93888506D01*
X147106147Y-93853857D01*
X147097206Y-93818159D01*
X147091806Y-93781756D01*
X147090000Y-93745000D01*
X147090000Y-92995000D01*
X147091806Y-92958244D01*
X147097206Y-92921841D01*
X147106147Y-92886143D01*
X147118545Y-92851494D01*
X147134280Y-92818226D01*
X147153199Y-92786661D01*
X147175121Y-92757103D01*
X147199835Y-92729835D01*
X147227103Y-92705121D01*
X147256661Y-92683199D01*
X147288226Y-92664280D01*
X147321494Y-92648545D01*
X147356143Y-92636147D01*
X147391841Y-92627206D01*
X147428244Y-92621806D01*
X147465000Y-92620000D01*
X149215000Y-92620000D01*
X149251756Y-92621806D01*
G37*
G04 #@! TD.AperFunction*
G04 #@! TA.AperFunction,ComponentPad*
G36*
X149251756Y-90121806D02*
G01*
X149288159Y-90127206D01*
X149323857Y-90136147D01*
X149358506Y-90148545D01*
X149391774Y-90164280D01*
X149423339Y-90183199D01*
X149452897Y-90205121D01*
X149480165Y-90229835D01*
X149504879Y-90257103D01*
X149526801Y-90286661D01*
X149545720Y-90318226D01*
X149561455Y-90351494D01*
X149573853Y-90386143D01*
X149582794Y-90421841D01*
X149588194Y-90458244D01*
X149590000Y-90495000D01*
X149590000Y-91245000D01*
X149588194Y-91281756D01*
X149582794Y-91318159D01*
X149573853Y-91353857D01*
X149561455Y-91388506D01*
X149545720Y-91421774D01*
X149526801Y-91453339D01*
X149504879Y-91482897D01*
X149480165Y-91510165D01*
X149452897Y-91534879D01*
X149423339Y-91556801D01*
X149391774Y-91575720D01*
X149358506Y-91591455D01*
X149323857Y-91603853D01*
X149288159Y-91612794D01*
X149251756Y-91618194D01*
X149215000Y-91620000D01*
X147465000Y-91620000D01*
X147428244Y-91618194D01*
X147391841Y-91612794D01*
X147356143Y-91603853D01*
X147321494Y-91591455D01*
X147288226Y-91575720D01*
X147256661Y-91556801D01*
X147227103Y-91534879D01*
X147199835Y-91510165D01*
X147175121Y-91482897D01*
X147153199Y-91453339D01*
X147134280Y-91421774D01*
X147118545Y-91388506D01*
X147106147Y-91353857D01*
X147097206Y-91318159D01*
X147091806Y-91281756D01*
X147090000Y-91245000D01*
X147090000Y-90495000D01*
X147091806Y-90458244D01*
X147097206Y-90421841D01*
X147106147Y-90386143D01*
X147118545Y-90351494D01*
X147134280Y-90318226D01*
X147153199Y-90286661D01*
X147175121Y-90257103D01*
X147199835Y-90229835D01*
X147227103Y-90205121D01*
X147256661Y-90183199D01*
X147288226Y-90164280D01*
X147321494Y-90148545D01*
X147356143Y-90136147D01*
X147391841Y-90127206D01*
X147428244Y-90121806D01*
X147465000Y-90120000D01*
X149215000Y-90120000D01*
X149251756Y-90121806D01*
G37*
G04 #@! TD.AperFunction*
G04 #@! TA.AperFunction,ComponentPad*
G36*
X153751756Y-94621806D02*
G01*
X153788159Y-94627206D01*
X153823857Y-94636147D01*
X153858506Y-94648545D01*
X153891774Y-94664280D01*
X153923339Y-94683199D01*
X153952897Y-94705121D01*
X153980165Y-94729835D01*
X154004879Y-94757103D01*
X154026801Y-94786661D01*
X154045720Y-94818226D01*
X154061455Y-94851494D01*
X154073853Y-94886143D01*
X154082794Y-94921841D01*
X154088194Y-94958244D01*
X154090000Y-94995000D01*
X154090000Y-96745000D01*
X154088194Y-96781756D01*
X154082794Y-96818159D01*
X154073853Y-96853857D01*
X154061455Y-96888506D01*
X154045720Y-96921774D01*
X154026801Y-96953339D01*
X154004879Y-96982897D01*
X153980165Y-97010165D01*
X153952897Y-97034879D01*
X153923339Y-97056801D01*
X153891774Y-97075720D01*
X153858506Y-97091455D01*
X153823857Y-97103853D01*
X153788159Y-97112794D01*
X153751756Y-97118194D01*
X153715000Y-97120000D01*
X152965000Y-97120000D01*
X152928244Y-97118194D01*
X152891841Y-97112794D01*
X152856143Y-97103853D01*
X152821494Y-97091455D01*
X152788226Y-97075720D01*
X152756661Y-97056801D01*
X152727103Y-97034879D01*
X152699835Y-97010165D01*
X152675121Y-96982897D01*
X152653199Y-96953339D01*
X152634280Y-96921774D01*
X152618545Y-96888506D01*
X152606147Y-96853857D01*
X152597206Y-96818159D01*
X152591806Y-96781756D01*
X152590000Y-96745000D01*
X152590000Y-94995000D01*
X152591806Y-94958244D01*
X152597206Y-94921841D01*
X152606147Y-94886143D01*
X152618545Y-94851494D01*
X152634280Y-94818226D01*
X152653199Y-94786661D01*
X152675121Y-94757103D01*
X152699835Y-94729835D01*
X152727103Y-94705121D01*
X152756661Y-94683199D01*
X152788226Y-94664280D01*
X152821494Y-94648545D01*
X152856143Y-94636147D01*
X152891841Y-94627206D01*
X152928244Y-94621806D01*
X152965000Y-94620000D01*
X153715000Y-94620000D01*
X153751756Y-94621806D01*
G37*
G04 #@! TD.AperFunction*
D12*
X132290000Y-89520000D03*
D13*
X134290000Y-89520000D03*
D12*
X120860000Y-103490000D03*
D13*
X122860000Y-103490000D03*
D17*
X155000000Y-85000000D03*
X105000000Y-85000000D03*
X155000000Y-115000000D03*
X105000000Y-115000000D03*
D18*
X131496000Y-104252000D03*
D19*
X131750000Y-109840000D03*
D18*
X117272000Y-112380000D03*
D20*
X116510000Y-103490000D02*
X112700000Y-107300000D01*
X120860000Y-103490000D02*
X116510000Y-103490000D01*
X120860000Y-104621370D02*
X120860000Y-103490000D01*
X126078630Y-109840000D02*
X120860000Y-104621370D01*
X131750000Y-109840000D02*
X126078630Y-109840000D01*
X107620000Y-99660000D02*
X107620000Y-98410000D01*
X107620000Y-100649966D02*
X107620000Y-99660000D01*
X112700000Y-105729966D02*
X107620000Y-100649966D01*
X112700000Y-107300000D02*
X112700000Y-105729966D01*
X120860000Y-93980000D02*
X125320000Y-89520000D01*
X120860000Y-103490000D02*
X120860000Y-93980000D01*
X125320000Y-89520000D02*
X132290000Y-89520000D01*
X136583629Y-94944999D02*
X132290000Y-90651370D01*
X132290000Y-90651370D02*
X132290000Y-89520000D01*
X152414999Y-94944999D02*
X136583629Y-94944999D01*
X153340000Y-95870000D02*
X152414999Y-94944999D01*
X131496000Y-109586000D02*
X131750000Y-109840000D01*
X131496000Y-104252000D02*
X131496000Y-109586000D01*
X117272000Y-111872000D02*
X112700000Y-107300000D01*
X117272000Y-112380000D02*
X117272000Y-111872000D01*
D21*
G36*
X151712287Y-83017592D02*
G01*
X151601467Y-83183446D01*
X151312377Y-83881372D01*
X151165000Y-84622285D01*
X151165000Y-85377715D01*
X151312377Y-86118628D01*
X151601467Y-86816554D01*
X152021161Y-87444670D01*
X152555330Y-87978839D01*
X153183446Y-88398533D01*
X153881372Y-88687623D01*
X154622285Y-88835000D01*
X155377715Y-88835000D01*
X156118628Y-88687623D01*
X156816554Y-88398533D01*
X157023000Y-88260590D01*
X157023000Y-90498803D01*
X156934443Y-90285008D01*
X156799287Y-90082733D01*
X156627267Y-89910713D01*
X156424992Y-89775557D01*
X156200236Y-89682460D01*
X155961637Y-89635000D01*
X155718363Y-89635000D01*
X155479764Y-89682460D01*
X155255008Y-89775557D01*
X155052733Y-89910713D01*
X154880713Y-90082733D01*
X154745557Y-90285008D01*
X154652460Y-90509764D01*
X154605000Y-90748363D01*
X154605000Y-90991637D01*
X154652460Y-91230236D01*
X154745557Y-91454992D01*
X154880713Y-91657267D01*
X155052733Y-91829287D01*
X155255008Y-91964443D01*
X155479764Y-92057540D01*
X155718363Y-92105000D01*
X155961637Y-92105000D01*
X156200236Y-92057540D01*
X156424992Y-91964443D01*
X156627267Y-91829287D01*
X156799287Y-91657267D01*
X156934443Y-91454992D01*
X157023000Y-91241197D01*
X157023000Y-100498803D01*
X156934443Y-100285008D01*
X156799287Y-100082733D01*
X156627267Y-99910713D01*
X156424992Y-99775557D01*
X156200236Y-99682460D01*
X155961637Y-99635000D01*
X155718363Y-99635000D01*
X155479764Y-99682460D01*
X155255008Y-99775557D01*
X155052733Y-99910713D01*
X154880713Y-100082733D01*
X154745557Y-100285008D01*
X154652460Y-100509764D01*
X154605000Y-100748363D01*
X154605000Y-100991637D01*
X154652460Y-101230236D01*
X154745557Y-101454992D01*
X154880713Y-101657267D01*
X155052733Y-101829287D01*
X155255008Y-101964443D01*
X155479764Y-102057540D01*
X155718363Y-102105000D01*
X155961637Y-102105000D01*
X156200236Y-102057540D01*
X156424992Y-101964443D01*
X156627267Y-101829287D01*
X156799287Y-101657267D01*
X156934443Y-101454992D01*
X157023000Y-101241197D01*
X157023000Y-111739410D01*
X156816554Y-111601467D01*
X156118628Y-111312377D01*
X155377715Y-111165000D01*
X154622285Y-111165000D01*
X153881372Y-111312377D01*
X153183446Y-111601467D01*
X152555330Y-112021161D01*
X152021161Y-112555330D01*
X151601467Y-113183446D01*
X151312377Y-113881372D01*
X151165000Y-114622285D01*
X151165000Y-115377715D01*
X151312377Y-116118628D01*
X151601467Y-116816554D01*
X151776828Y-117079000D01*
X108223172Y-117079000D01*
X108398533Y-116816554D01*
X108687623Y-116118628D01*
X108835000Y-115377715D01*
X108835000Y-114622285D01*
X108687623Y-113881372D01*
X108398533Y-113183446D01*
X107978839Y-112555330D01*
X107444670Y-112021161D01*
X106816554Y-111601467D01*
X106118628Y-111312377D01*
X105377715Y-111165000D01*
X104622285Y-111165000D01*
X103881372Y-111312377D01*
X103183446Y-111601467D01*
X103134037Y-111634481D01*
X103115240Y-109078000D01*
X111299928Y-109078000D01*
X111299928Y-110602000D01*
X111312188Y-110726482D01*
X111348498Y-110846180D01*
X111407463Y-110956494D01*
X111486815Y-111053185D01*
X111583506Y-111132537D01*
X111693820Y-111191502D01*
X111813518Y-111227812D01*
X111938000Y-111240072D01*
X113462000Y-111240072D01*
X113586482Y-111227812D01*
X113706180Y-111191502D01*
X113816494Y-111132537D01*
X113913185Y-111053185D01*
X113992537Y-110956494D01*
X114051502Y-110846180D01*
X114087812Y-110726482D01*
X114100072Y-110602000D01*
X114100072Y-109078000D01*
X114087812Y-108953518D01*
X114051502Y-108833820D01*
X113992537Y-108723506D01*
X113913185Y-108626815D01*
X113816494Y-108547463D01*
X113706180Y-108488498D01*
X113586482Y-108452188D01*
X113462000Y-108439928D01*
X113437317Y-108439928D01*
X113485960Y-108265565D01*
X112700000Y-107479605D01*
X111914040Y-108265565D01*
X111962683Y-108439928D01*
X111938000Y-108439928D01*
X111813518Y-108452188D01*
X111693820Y-108488498D01*
X111583506Y-108547463D01*
X111486815Y-108626815D01*
X111407463Y-108723506D01*
X111348498Y-108833820D01*
X111312188Y-108953518D01*
X111299928Y-109078000D01*
X103115240Y-109078000D01*
X103102696Y-107372017D01*
X111298090Y-107372017D01*
X111339078Y-107644133D01*
X111432364Y-107903023D01*
X111494344Y-108018980D01*
X111734435Y-108085960D01*
X112520395Y-107300000D01*
X112879605Y-107300000D01*
X113665565Y-108085960D01*
X113905656Y-108018980D01*
X114022756Y-107769952D01*
X114089023Y-107502865D01*
X114101910Y-107227983D01*
X114060922Y-106955867D01*
X113967636Y-106696977D01*
X113905656Y-106581020D01*
X113665565Y-106514040D01*
X112879605Y-107300000D01*
X112520395Y-107300000D01*
X111734435Y-106514040D01*
X111494344Y-106581020D01*
X111377244Y-106830048D01*
X111310977Y-107097135D01*
X111298090Y-107372017D01*
X103102696Y-107372017D01*
X103095067Y-106334435D01*
X111914040Y-106334435D01*
X112700000Y-107120395D01*
X113485960Y-106334435D01*
X113418980Y-106094344D01*
X113169952Y-105977244D01*
X112902865Y-105910977D01*
X112627983Y-105898090D01*
X112355867Y-105939078D01*
X112096977Y-106032364D01*
X111981020Y-106094344D01*
X111914040Y-106334435D01*
X103095067Y-106334435D01*
X103072669Y-103288363D01*
X103885000Y-103288363D01*
X103885000Y-103531637D01*
X103932460Y-103770236D01*
X104025557Y-103994992D01*
X104160713Y-104197267D01*
X104332733Y-104369287D01*
X104535008Y-104504443D01*
X104759764Y-104597540D01*
X104998363Y-104645000D01*
X105241637Y-104645000D01*
X105480236Y-104597540D01*
X105704992Y-104504443D01*
X105907267Y-104369287D01*
X106079287Y-104197267D01*
X106214443Y-103994992D01*
X106307540Y-103770236D01*
X106355000Y-103531637D01*
X106355000Y-103288363D01*
X106385000Y-103288363D01*
X106385000Y-103531637D01*
X106432460Y-103770236D01*
X106525557Y-103994992D01*
X106660713Y-104197267D01*
X106832733Y-104369287D01*
X107035008Y-104504443D01*
X107259764Y-104597540D01*
X107498363Y-104645000D01*
X107741637Y-104645000D01*
X107980236Y-104597540D01*
X108204992Y-104504443D01*
X108407267Y-104369287D01*
X108579287Y-104197267D01*
X108714443Y-103994992D01*
X108807540Y-103770236D01*
X108855000Y-103531637D01*
X108855000Y-103288363D01*
X108807540Y-103049764D01*
X108714443Y-102825008D01*
X108579287Y-102622733D01*
X108407267Y-102450713D01*
X108204992Y-102315557D01*
X107980236Y-102222460D01*
X107741637Y-102175000D01*
X107498363Y-102175000D01*
X107259764Y-102222460D01*
X107035008Y-102315557D01*
X106832733Y-102450713D01*
X106660713Y-102622733D01*
X106525557Y-102825008D01*
X106432460Y-103049764D01*
X106385000Y-103288363D01*
X106355000Y-103288363D01*
X106307540Y-103049764D01*
X106214443Y-102825008D01*
X106079287Y-102622733D01*
X105907267Y-102450713D01*
X105704992Y-102315557D01*
X105480236Y-102222460D01*
X105241637Y-102175000D01*
X104998363Y-102175000D01*
X104759764Y-102222460D01*
X104535008Y-102315557D01*
X104332733Y-102450713D01*
X104160713Y-102622733D01*
X104025557Y-102825008D01*
X103932460Y-103049764D01*
X103885000Y-103288363D01*
X103072669Y-103288363D01*
X103045991Y-99660000D01*
X106231928Y-99660000D01*
X106244188Y-99784482D01*
X106280498Y-99904180D01*
X106339463Y-100014494D01*
X106418815Y-100111185D01*
X106515506Y-100190537D01*
X106625820Y-100249502D01*
X106745518Y-100285812D01*
X106870000Y-100298072D01*
X107334250Y-100295000D01*
X107493000Y-100136250D01*
X107493000Y-98537000D01*
X107747000Y-98537000D01*
X107747000Y-100136250D01*
X107905750Y-100295000D01*
X108370000Y-100298072D01*
X108494482Y-100285812D01*
X108614180Y-100249502D01*
X108724494Y-100190537D01*
X108821185Y-100111185D01*
X108900537Y-100014494D01*
X108959502Y-99904180D01*
X108995812Y-99784482D01*
X109008072Y-99660000D01*
X109005000Y-98695750D01*
X108846250Y-98537000D01*
X107747000Y-98537000D01*
X107493000Y-98537000D01*
X106393750Y-98537000D01*
X106235000Y-98695750D01*
X106231928Y-99660000D01*
X103045991Y-99660000D01*
X103027609Y-97160000D01*
X106231928Y-97160000D01*
X106235000Y-98124250D01*
X106393750Y-98283000D01*
X107493000Y-98283000D01*
X107493000Y-96683750D01*
X107747000Y-96683750D01*
X107747000Y-98283000D01*
X108846250Y-98283000D01*
X109005000Y-98124250D01*
X109008072Y-97160000D01*
X108995812Y-97035518D01*
X108959502Y-96915820D01*
X108900537Y-96805506D01*
X108821185Y-96708815D01*
X108724494Y-96629463D01*
X108614180Y-96570498D01*
X108494482Y-96534188D01*
X108370000Y-96521928D01*
X107905750Y-96525000D01*
X107747000Y-96683750D01*
X107493000Y-96683750D01*
X107334250Y-96525000D01*
X106870000Y-96521928D01*
X106745518Y-96534188D01*
X106625820Y-96570498D01*
X106515506Y-96629463D01*
X106418815Y-96708815D01*
X106339463Y-96805506D01*
X106280498Y-96915820D01*
X106244188Y-97035518D01*
X106231928Y-97160000D01*
X103027609Y-97160000D01*
X102999140Y-93288363D01*
X103885000Y-93288363D01*
X103885000Y-93531637D01*
X103932460Y-93770236D01*
X104025557Y-93994992D01*
X104160713Y-94197267D01*
X104332733Y-94369287D01*
X104535008Y-94504443D01*
X104759764Y-94597540D01*
X104998363Y-94645000D01*
X105241637Y-94645000D01*
X105480236Y-94597540D01*
X105704992Y-94504443D01*
X105907267Y-94369287D01*
X106079287Y-94197267D01*
X106214443Y-93994992D01*
X106307540Y-93770236D01*
X106355000Y-93531637D01*
X106355000Y-93288363D01*
X106385000Y-93288363D01*
X106385000Y-93531637D01*
X106432460Y-93770236D01*
X106525557Y-93994992D01*
X106660713Y-94197267D01*
X106832733Y-94369287D01*
X107035008Y-94504443D01*
X107259764Y-94597540D01*
X107498363Y-94645000D01*
X107741637Y-94645000D01*
X107980236Y-94597540D01*
X108204992Y-94504443D01*
X108407267Y-94369287D01*
X108579287Y-94197267D01*
X108714443Y-93994992D01*
X108807540Y-93770236D01*
X108855000Y-93531637D01*
X108855000Y-93288363D01*
X108807540Y-93049764D01*
X108801425Y-93035000D01*
X110731928Y-93035000D01*
X110731928Y-93785000D01*
X110751394Y-93982641D01*
X110809044Y-94172686D01*
X110902661Y-94347833D01*
X111028650Y-94501350D01*
X111182167Y-94627339D01*
X111243272Y-94660000D01*
X111182167Y-94692661D01*
X111028650Y-94818650D01*
X110902661Y-94972167D01*
X110809044Y-95147314D01*
X110751394Y-95337359D01*
X110731928Y-95535000D01*
X110731928Y-96285000D01*
X110751394Y-96482641D01*
X110809044Y-96672686D01*
X110902661Y-96847833D01*
X111028650Y-97001350D01*
X111182167Y-97127339D01*
X111357314Y-97220956D01*
X111547359Y-97278606D01*
X111745000Y-97298072D01*
X112077221Y-97298072D01*
X112035008Y-97315557D01*
X111832733Y-97450713D01*
X111660713Y-97622733D01*
X111525557Y-97825008D01*
X111432460Y-98049764D01*
X111385000Y-98288363D01*
X111385000Y-98531637D01*
X111432460Y-98770236D01*
X111525557Y-98994992D01*
X111660713Y-99197267D01*
X111832733Y-99369287D01*
X112035008Y-99504443D01*
X112077221Y-99521928D01*
X111745000Y-99521928D01*
X111547359Y-99541394D01*
X111357314Y-99599044D01*
X111182167Y-99692661D01*
X111028650Y-99818650D01*
X110902661Y-99972167D01*
X110809044Y-100147314D01*
X110751394Y-100337359D01*
X110731928Y-100535000D01*
X110731928Y-101285000D01*
X110751394Y-101482641D01*
X110809044Y-101672686D01*
X110902661Y-101847833D01*
X111028650Y-102001350D01*
X111182167Y-102127339D01*
X111243272Y-102160000D01*
X111182167Y-102192661D01*
X111028650Y-102318650D01*
X110902661Y-102472167D01*
X110809044Y-102647314D01*
X110751394Y-102837359D01*
X110731928Y-103035000D01*
X110731928Y-103785000D01*
X110751394Y-103982641D01*
X110809044Y-104172686D01*
X110902661Y-104347833D01*
X111028650Y-104501350D01*
X111182167Y-104627339D01*
X111357314Y-104720956D01*
X111547359Y-104778606D01*
X111745000Y-104798072D01*
X113495000Y-104798072D01*
X113692641Y-104778606D01*
X113882686Y-104720956D01*
X114057833Y-104627339D01*
X114211350Y-104501350D01*
X114337339Y-104347833D01*
X114430956Y-104172686D01*
X114488606Y-103982641D01*
X114508072Y-103785000D01*
X114508072Y-103560512D01*
X119419783Y-103560512D01*
X119461213Y-103840130D01*
X119556397Y-104106292D01*
X119623329Y-104231514D01*
X119867298Y-104303097D01*
X120680395Y-103490000D01*
X119867298Y-102676903D01*
X119623329Y-102748486D01*
X119502429Y-103003996D01*
X119433700Y-103278184D01*
X119419783Y-103560512D01*
X114508072Y-103560512D01*
X114508072Y-103035000D01*
X114488606Y-102837359D01*
X114430956Y-102647314D01*
X114350772Y-102497298D01*
X120046903Y-102497298D01*
X120860000Y-103310395D01*
X120874143Y-103296253D01*
X121053748Y-103475858D01*
X121039605Y-103490000D01*
X121053748Y-103504143D01*
X120874143Y-103683748D01*
X120860000Y-103669605D01*
X120046903Y-104482702D01*
X120118486Y-104726671D01*
X120373996Y-104847571D01*
X120648184Y-104916300D01*
X120930512Y-104930217D01*
X121210130Y-104888787D01*
X121476292Y-104793603D01*
X121598309Y-104728384D01*
X121608815Y-104741185D01*
X121705506Y-104820537D01*
X121815820Y-104879502D01*
X121935518Y-104915812D01*
X122060000Y-104928072D01*
X123660000Y-104928072D01*
X123784482Y-104915812D01*
X123904180Y-104879502D01*
X124014494Y-104820537D01*
X124111185Y-104741185D01*
X124190537Y-104644494D01*
X124249502Y-104534180D01*
X124285812Y-104414482D01*
X124298072Y-104290000D01*
X124298072Y-102690000D01*
X124285812Y-102565518D01*
X124249502Y-102445820D01*
X124190537Y-102335506D01*
X124111185Y-102238815D01*
X124014494Y-102159463D01*
X123904180Y-102100498D01*
X123784482Y-102064188D01*
X123660000Y-102051928D01*
X122060000Y-102051928D01*
X121935518Y-102064188D01*
X121815820Y-102100498D01*
X121705506Y-102159463D01*
X121608815Y-102238815D01*
X121598193Y-102251758D01*
X121346004Y-102132429D01*
X121071816Y-102063700D01*
X120789488Y-102049783D01*
X120509870Y-102091213D01*
X120243708Y-102186397D01*
X120118486Y-102253329D01*
X120046903Y-102497298D01*
X114350772Y-102497298D01*
X114337339Y-102472167D01*
X114211350Y-102318650D01*
X114057833Y-102192661D01*
X113996728Y-102160000D01*
X114057833Y-102127339D01*
X114211350Y-102001350D01*
X114337339Y-101847833D01*
X114430956Y-101672686D01*
X114488606Y-101482641D01*
X114508072Y-101285000D01*
X114508072Y-100535000D01*
X114488606Y-100337359D01*
X114430956Y-100147314D01*
X114337339Y-99972167D01*
X114211350Y-99818650D01*
X114057833Y-99692661D01*
X113882686Y-99599044D01*
X113692641Y-99541394D01*
X113495000Y-99521928D01*
X113162779Y-99521928D01*
X113204992Y-99504443D01*
X113407267Y-99369287D01*
X113579287Y-99197267D01*
X113714443Y-98994992D01*
X113807540Y-98770236D01*
X113855000Y-98531637D01*
X113855000Y-98288363D01*
X113807540Y-98049764D01*
X113714443Y-97825008D01*
X113579287Y-97622733D01*
X113407267Y-97450713D01*
X113204992Y-97315557D01*
X113162779Y-97298072D01*
X113495000Y-97298072D01*
X113692641Y-97278606D01*
X113882686Y-97220956D01*
X114057833Y-97127339D01*
X114211350Y-97001350D01*
X114337339Y-96847833D01*
X114430956Y-96672686D01*
X114488606Y-96482641D01*
X114508072Y-96285000D01*
X114508072Y-95535000D01*
X114488606Y-95337359D01*
X114430956Y-95147314D01*
X114337339Y-94972167D01*
X114211350Y-94818650D01*
X114057833Y-94692661D01*
X113996728Y-94660000D01*
X114057833Y-94627339D01*
X114211350Y-94501350D01*
X114305569Y-94386544D01*
X121505000Y-94386544D01*
X121505000Y-94653456D01*
X121557072Y-94915239D01*
X121659215Y-95161833D01*
X121807503Y-95383762D01*
X121996238Y-95572497D01*
X122218167Y-95720785D01*
X122464761Y-95822928D01*
X122726544Y-95875000D01*
X122993456Y-95875000D01*
X123255239Y-95822928D01*
X123501833Y-95720785D01*
X123723762Y-95572497D01*
X123912497Y-95383762D01*
X124060785Y-95161833D01*
X124162928Y-94915239D01*
X124215000Y-94653456D01*
X124215000Y-94386544D01*
X124162928Y-94124761D01*
X124060785Y-93878167D01*
X123912497Y-93656238D01*
X123723762Y-93467503D01*
X123501833Y-93319215D01*
X123255239Y-93217072D01*
X122993456Y-93165000D01*
X122726544Y-93165000D01*
X122464761Y-93217072D01*
X122218167Y-93319215D01*
X121996238Y-93467503D01*
X121807503Y-93656238D01*
X121659215Y-93878167D01*
X121557072Y-94124761D01*
X121505000Y-94386544D01*
X114305569Y-94386544D01*
X114337339Y-94347833D01*
X114430956Y-94172686D01*
X114488606Y-93982641D01*
X114508072Y-93785000D01*
X114508072Y-93035000D01*
X114488606Y-92837359D01*
X114430956Y-92647314D01*
X114337339Y-92472167D01*
X114211350Y-92318650D01*
X114057833Y-92192661D01*
X113882686Y-92099044D01*
X113692641Y-92041394D01*
X113495000Y-92021928D01*
X111745000Y-92021928D01*
X111547359Y-92041394D01*
X111357314Y-92099044D01*
X111182167Y-92192661D01*
X111028650Y-92318650D01*
X110902661Y-92472167D01*
X110809044Y-92647314D01*
X110751394Y-92837359D01*
X110731928Y-93035000D01*
X108801425Y-93035000D01*
X108714443Y-92825008D01*
X108579287Y-92622733D01*
X108407267Y-92450713D01*
X108204992Y-92315557D01*
X107980236Y-92222460D01*
X107741637Y-92175000D01*
X107498363Y-92175000D01*
X107259764Y-92222460D01*
X107035008Y-92315557D01*
X106832733Y-92450713D01*
X106660713Y-92622733D01*
X106525557Y-92825008D01*
X106432460Y-93049764D01*
X106385000Y-93288363D01*
X106355000Y-93288363D01*
X106307540Y-93049764D01*
X106214443Y-92825008D01*
X106079287Y-92622733D01*
X105907267Y-92450713D01*
X105704992Y-92315557D01*
X105480236Y-92222460D01*
X105241637Y-92175000D01*
X104998363Y-92175000D01*
X104759764Y-92222460D01*
X104535008Y-92315557D01*
X104332733Y-92450713D01*
X104160713Y-92622733D01*
X104025557Y-92825008D01*
X103932460Y-93049764D01*
X103885000Y-93288363D01*
X102999140Y-93288363D01*
X102970450Y-89386544D01*
X118965000Y-89386544D01*
X118965000Y-89653456D01*
X119017072Y-89915239D01*
X119119215Y-90161833D01*
X119267503Y-90383762D01*
X119456238Y-90572497D01*
X119678167Y-90720785D01*
X119924761Y-90822928D01*
X120186544Y-90875000D01*
X120453456Y-90875000D01*
X120715239Y-90822928D01*
X120961833Y-90720785D01*
X121183762Y-90572497D01*
X121300699Y-90455560D01*
X124564045Y-90455560D01*
X124625932Y-90691368D01*
X124867790Y-90804266D01*
X125127027Y-90867811D01*
X125393680Y-90879561D01*
X125657501Y-90839063D01*
X125908353Y-90747875D01*
X126014068Y-90691368D01*
X126075955Y-90455560D01*
X125320000Y-89699605D01*
X124564045Y-90455560D01*
X121300699Y-90455560D01*
X121372497Y-90383762D01*
X121520785Y-90161833D01*
X121622928Y-89915239D01*
X121675000Y-89653456D01*
X121675000Y-89593680D01*
X123960439Y-89593680D01*
X124000937Y-89857501D01*
X124092125Y-90108353D01*
X124148632Y-90214068D01*
X124384440Y-90275955D01*
X125140395Y-89520000D01*
X125499605Y-89520000D01*
X126255560Y-90275955D01*
X126491368Y-90214068D01*
X126604266Y-89972210D01*
X126667811Y-89712973D01*
X126673207Y-89590512D01*
X130849783Y-89590512D01*
X130891213Y-89870130D01*
X130986397Y-90136292D01*
X131053329Y-90261514D01*
X131297298Y-90333097D01*
X132110395Y-89520000D01*
X131297298Y-88706903D01*
X131053329Y-88778486D01*
X130932429Y-89033996D01*
X130863700Y-89308184D01*
X130849783Y-89590512D01*
X126673207Y-89590512D01*
X126679561Y-89446320D01*
X126639063Y-89182499D01*
X126547875Y-88931647D01*
X126491368Y-88825932D01*
X126255560Y-88764045D01*
X125499605Y-89520000D01*
X125140395Y-89520000D01*
X124384440Y-88764045D01*
X124148632Y-88825932D01*
X124035734Y-89067790D01*
X123972189Y-89327027D01*
X123960439Y-89593680D01*
X121675000Y-89593680D01*
X121675000Y-89386544D01*
X121622928Y-89124761D01*
X121520785Y-88878167D01*
X121372497Y-88656238D01*
X121300699Y-88584440D01*
X124564045Y-88584440D01*
X125320000Y-89340395D01*
X126075955Y-88584440D01*
X126060959Y-88527298D01*
X131476903Y-88527298D01*
X132290000Y-89340395D01*
X132304143Y-89326253D01*
X132483748Y-89505858D01*
X132469605Y-89520000D01*
X132483748Y-89534143D01*
X132304143Y-89713748D01*
X132290000Y-89699605D01*
X131476903Y-90512702D01*
X131548486Y-90756671D01*
X131803996Y-90877571D01*
X132078184Y-90946300D01*
X132360512Y-90960217D01*
X132640130Y-90918787D01*
X132906292Y-90823603D01*
X133028309Y-90758384D01*
X133038815Y-90771185D01*
X133135506Y-90850537D01*
X133245820Y-90909502D01*
X133365518Y-90945812D01*
X133490000Y-90958072D01*
X135090000Y-90958072D01*
X135214482Y-90945812D01*
X135334180Y-90909502D01*
X135444494Y-90850537D01*
X135541185Y-90771185D01*
X135620537Y-90674494D01*
X135679502Y-90564180D01*
X135715812Y-90444482D01*
X135728072Y-90320000D01*
X135728072Y-88720000D01*
X137931928Y-88720000D01*
X137931928Y-90320000D01*
X137944188Y-90444482D01*
X137980498Y-90564180D01*
X138039463Y-90674494D01*
X138118815Y-90771185D01*
X138215506Y-90850537D01*
X138325820Y-90909502D01*
X138445518Y-90945812D01*
X138570000Y-90958072D01*
X140170000Y-90958072D01*
X140294482Y-90945812D01*
X140414180Y-90909502D01*
X140524494Y-90850537D01*
X140621185Y-90771185D01*
X140700537Y-90674494D01*
X140759502Y-90564180D01*
X140795812Y-90444482D01*
X140808072Y-90320000D01*
X140808072Y-89378665D01*
X141435000Y-89378665D01*
X141435000Y-89661335D01*
X141490147Y-89938574D01*
X141598320Y-90199727D01*
X141755363Y-90434759D01*
X141955241Y-90634637D01*
X142190273Y-90791680D01*
X142451426Y-90899853D01*
X142728665Y-90955000D01*
X143011335Y-90955000D01*
X143288574Y-90899853D01*
X143549727Y-90791680D01*
X143784759Y-90634637D01*
X143924396Y-90495000D01*
X146451928Y-90495000D01*
X146451928Y-91245000D01*
X146471394Y-91442641D01*
X146529044Y-91632686D01*
X146622661Y-91807833D01*
X146748650Y-91961350D01*
X146902167Y-92087339D01*
X146963272Y-92120000D01*
X146902167Y-92152661D01*
X146748650Y-92278650D01*
X146622661Y-92432167D01*
X146529044Y-92607314D01*
X146471394Y-92797359D01*
X146451928Y-92995000D01*
X146451928Y-93745000D01*
X146471394Y-93942641D01*
X146529044Y-94132686D01*
X146622661Y-94307833D01*
X146748650Y-94461350D01*
X146902167Y-94587339D01*
X147077314Y-94680956D01*
X147267359Y-94738606D01*
X147465000Y-94758072D01*
X147797221Y-94758072D01*
X147755008Y-94775557D01*
X147552733Y-94910713D01*
X147380713Y-95082733D01*
X147245557Y-95285008D01*
X147152460Y-95509764D01*
X147105000Y-95748363D01*
X147105000Y-95991637D01*
X147152460Y-96230236D01*
X147245557Y-96454992D01*
X147380713Y-96657267D01*
X147552733Y-96829287D01*
X147755008Y-96964443D01*
X147797221Y-96981928D01*
X147465000Y-96981928D01*
X147267359Y-97001394D01*
X147077314Y-97059044D01*
X146902167Y-97152661D01*
X146748650Y-97278650D01*
X146622661Y-97432167D01*
X146529044Y-97607314D01*
X146471394Y-97797359D01*
X146451928Y-97995000D01*
X146451928Y-98745000D01*
X146471394Y-98942641D01*
X146529044Y-99132686D01*
X146622661Y-99307833D01*
X146748650Y-99461350D01*
X146902167Y-99587339D01*
X146963272Y-99620000D01*
X146902167Y-99652661D01*
X146748650Y-99778650D01*
X146622661Y-99932167D01*
X146529044Y-100107314D01*
X146471394Y-100297359D01*
X146451928Y-100495000D01*
X146451928Y-101245000D01*
X146471394Y-101442641D01*
X146529044Y-101632686D01*
X146622661Y-101807833D01*
X146748650Y-101961350D01*
X146902167Y-102087339D01*
X147077314Y-102180956D01*
X147267359Y-102238606D01*
X147465000Y-102258072D01*
X149215000Y-102258072D01*
X149412641Y-102238606D01*
X149602686Y-102180956D01*
X149777833Y-102087339D01*
X149931350Y-101961350D01*
X150057339Y-101807833D01*
X150150956Y-101632686D01*
X150208606Y-101442641D01*
X150228072Y-101245000D01*
X150228072Y-100748363D01*
X152105000Y-100748363D01*
X152105000Y-100991637D01*
X152152460Y-101230236D01*
X152245557Y-101454992D01*
X152380713Y-101657267D01*
X152552733Y-101829287D01*
X152755008Y-101964443D01*
X152979764Y-102057540D01*
X153218363Y-102105000D01*
X153461637Y-102105000D01*
X153700236Y-102057540D01*
X153924992Y-101964443D01*
X154127267Y-101829287D01*
X154299287Y-101657267D01*
X154434443Y-101454992D01*
X154527540Y-101230236D01*
X154575000Y-100991637D01*
X154575000Y-100748363D01*
X154527540Y-100509764D01*
X154434443Y-100285008D01*
X154299287Y-100082733D01*
X154127267Y-99910713D01*
X153924992Y-99775557D01*
X153700236Y-99682460D01*
X153461637Y-99635000D01*
X153218363Y-99635000D01*
X152979764Y-99682460D01*
X152755008Y-99775557D01*
X152552733Y-99910713D01*
X152380713Y-100082733D01*
X152245557Y-100285008D01*
X152152460Y-100509764D01*
X152105000Y-100748363D01*
X150228072Y-100748363D01*
X150228072Y-100495000D01*
X150208606Y-100297359D01*
X150150956Y-100107314D01*
X150057339Y-99932167D01*
X149931350Y-99778650D01*
X149777833Y-99652661D01*
X149716728Y-99620000D01*
X149777833Y-99587339D01*
X149931350Y-99461350D01*
X150057339Y-99307833D01*
X150150956Y-99132686D01*
X150208606Y-98942641D01*
X150228072Y-98745000D01*
X150228072Y-97995000D01*
X150208606Y-97797359D01*
X150150956Y-97607314D01*
X150057339Y-97432167D01*
X149931350Y-97278650D01*
X149777833Y-97152661D01*
X149716728Y-97120000D01*
X151951928Y-97120000D01*
X151964188Y-97244482D01*
X152000498Y-97364180D01*
X152059463Y-97474494D01*
X152138815Y-97571185D01*
X152235506Y-97650537D01*
X152345820Y-97709502D01*
X152465518Y-97745812D01*
X152590000Y-97758072D01*
X153054250Y-97755000D01*
X153213000Y-97596250D01*
X153213000Y-95997000D01*
X153467000Y-95997000D01*
X153467000Y-97596250D01*
X153625750Y-97755000D01*
X154090000Y-97758072D01*
X154214482Y-97745812D01*
X154334180Y-97709502D01*
X154444494Y-97650537D01*
X154541185Y-97571185D01*
X154620537Y-97474494D01*
X154679502Y-97364180D01*
X154715812Y-97244482D01*
X154728072Y-97120000D01*
X154725000Y-96155750D01*
X154566250Y-95997000D01*
X153467000Y-95997000D01*
X153213000Y-95997000D01*
X152113750Y-95997000D01*
X151955000Y-96155750D01*
X151951928Y-97120000D01*
X149716728Y-97120000D01*
X149602686Y-97059044D01*
X149412641Y-97001394D01*
X149215000Y-96981928D01*
X148882779Y-96981928D01*
X148924992Y-96964443D01*
X149127267Y-96829287D01*
X149299287Y-96657267D01*
X149434443Y-96454992D01*
X149527540Y-96230236D01*
X149575000Y-95991637D01*
X149575000Y-95748363D01*
X149527540Y-95509764D01*
X149434443Y-95285008D01*
X149299287Y-95082733D01*
X149127267Y-94910713D01*
X148924992Y-94775557D01*
X148882779Y-94758072D01*
X149215000Y-94758072D01*
X149412641Y-94738606D01*
X149602686Y-94680956D01*
X149716727Y-94620000D01*
X151951928Y-94620000D01*
X151955000Y-95584250D01*
X152113750Y-95743000D01*
X153213000Y-95743000D01*
X153213000Y-94143750D01*
X153467000Y-94143750D01*
X153467000Y-95743000D01*
X154566250Y-95743000D01*
X154725000Y-95584250D01*
X154728072Y-94620000D01*
X154715812Y-94495518D01*
X154679502Y-94375820D01*
X154620537Y-94265506D01*
X154541185Y-94168815D01*
X154444494Y-94089463D01*
X154334180Y-94030498D01*
X154214482Y-93994188D01*
X154090000Y-93981928D01*
X153625750Y-93985000D01*
X153467000Y-94143750D01*
X153213000Y-94143750D01*
X153054250Y-93985000D01*
X152590000Y-93981928D01*
X152465518Y-93994188D01*
X152345820Y-94030498D01*
X152235506Y-94089463D01*
X152138815Y-94168815D01*
X152059463Y-94265506D01*
X152000498Y-94375820D01*
X151964188Y-94495518D01*
X151951928Y-94620000D01*
X149716727Y-94620000D01*
X149777833Y-94587339D01*
X149931350Y-94461350D01*
X150057339Y-94307833D01*
X150150956Y-94132686D01*
X150208606Y-93942641D01*
X150228072Y-93745000D01*
X150228072Y-92995000D01*
X150208606Y-92797359D01*
X150150956Y-92607314D01*
X150057339Y-92432167D01*
X149931350Y-92278650D01*
X149777833Y-92152661D01*
X149716728Y-92120000D01*
X149777833Y-92087339D01*
X149931350Y-91961350D01*
X150057339Y-91807833D01*
X150150956Y-91632686D01*
X150208606Y-91442641D01*
X150228072Y-91245000D01*
X150228072Y-90748363D01*
X152105000Y-90748363D01*
X152105000Y-90991637D01*
X152152460Y-91230236D01*
X152245557Y-91454992D01*
X152380713Y-91657267D01*
X152552733Y-91829287D01*
X152755008Y-91964443D01*
X152979764Y-92057540D01*
X153218363Y-92105000D01*
X153461637Y-92105000D01*
X153700236Y-92057540D01*
X153924992Y-91964443D01*
X154127267Y-91829287D01*
X154299287Y-91657267D01*
X154434443Y-91454992D01*
X154527540Y-91230236D01*
X154575000Y-90991637D01*
X154575000Y-90748363D01*
X154527540Y-90509764D01*
X154434443Y-90285008D01*
X154299287Y-90082733D01*
X154127267Y-89910713D01*
X153924992Y-89775557D01*
X153700236Y-89682460D01*
X153461637Y-89635000D01*
X153218363Y-89635000D01*
X152979764Y-89682460D01*
X152755008Y-89775557D01*
X152552733Y-89910713D01*
X152380713Y-90082733D01*
X152245557Y-90285008D01*
X152152460Y-90509764D01*
X152105000Y-90748363D01*
X150228072Y-90748363D01*
X150228072Y-90495000D01*
X150208606Y-90297359D01*
X150150956Y-90107314D01*
X150057339Y-89932167D01*
X149931350Y-89778650D01*
X149777833Y-89652661D01*
X149602686Y-89559044D01*
X149412641Y-89501394D01*
X149215000Y-89481928D01*
X147465000Y-89481928D01*
X147267359Y-89501394D01*
X147077314Y-89559044D01*
X146902167Y-89652661D01*
X146748650Y-89778650D01*
X146622661Y-89932167D01*
X146529044Y-90107314D01*
X146471394Y-90297359D01*
X146451928Y-90495000D01*
X143924396Y-90495000D01*
X143984637Y-90434759D01*
X144141680Y-90199727D01*
X144249853Y-89938574D01*
X144305000Y-89661335D01*
X144305000Y-89378665D01*
X144249853Y-89101426D01*
X144141680Y-88840273D01*
X143984637Y-88605241D01*
X143784759Y-88405363D01*
X143549727Y-88248320D01*
X143288574Y-88140147D01*
X143011335Y-88085000D01*
X142728665Y-88085000D01*
X142451426Y-88140147D01*
X142190273Y-88248320D01*
X141955241Y-88405363D01*
X141755363Y-88605241D01*
X141598320Y-88840273D01*
X141490147Y-89101426D01*
X141435000Y-89378665D01*
X140808072Y-89378665D01*
X140808072Y-88720000D01*
X140795812Y-88595518D01*
X140759502Y-88475820D01*
X140700537Y-88365506D01*
X140621185Y-88268815D01*
X140524494Y-88189463D01*
X140414180Y-88130498D01*
X140294482Y-88094188D01*
X140170000Y-88081928D01*
X138570000Y-88081928D01*
X138445518Y-88094188D01*
X138325820Y-88130498D01*
X138215506Y-88189463D01*
X138118815Y-88268815D01*
X138039463Y-88365506D01*
X137980498Y-88475820D01*
X137944188Y-88595518D01*
X137931928Y-88720000D01*
X135728072Y-88720000D01*
X135715812Y-88595518D01*
X135679502Y-88475820D01*
X135620537Y-88365506D01*
X135541185Y-88268815D01*
X135444494Y-88189463D01*
X135334180Y-88130498D01*
X135214482Y-88094188D01*
X135090000Y-88081928D01*
X133490000Y-88081928D01*
X133365518Y-88094188D01*
X133245820Y-88130498D01*
X133135506Y-88189463D01*
X133038815Y-88268815D01*
X133028193Y-88281758D01*
X132776004Y-88162429D01*
X132501816Y-88093700D01*
X132219488Y-88079783D01*
X131939870Y-88121213D01*
X131673708Y-88216397D01*
X131548486Y-88283329D01*
X131476903Y-88527298D01*
X126060959Y-88527298D01*
X126014068Y-88348632D01*
X125772210Y-88235734D01*
X125512973Y-88172189D01*
X125246320Y-88160439D01*
X124982499Y-88200937D01*
X124731647Y-88292125D01*
X124625932Y-88348632D01*
X124564045Y-88584440D01*
X121300699Y-88584440D01*
X121183762Y-88467503D01*
X120961833Y-88319215D01*
X120715239Y-88217072D01*
X120453456Y-88165000D01*
X120186544Y-88165000D01*
X119924761Y-88217072D01*
X119678167Y-88319215D01*
X119456238Y-88467503D01*
X119267503Y-88656238D01*
X119119215Y-88878167D01*
X119017072Y-89124761D01*
X118965000Y-89386544D01*
X102970450Y-89386544D01*
X102962097Y-88250632D01*
X103183446Y-88398533D01*
X103881372Y-88687623D01*
X104622285Y-88835000D01*
X105377715Y-88835000D01*
X106118628Y-88687623D01*
X106816554Y-88398533D01*
X107444670Y-87978839D01*
X107978839Y-87444670D01*
X108398533Y-86816554D01*
X108687623Y-86118628D01*
X108835000Y-85377715D01*
X108835000Y-84622285D01*
X108687623Y-83881372D01*
X108398533Y-83183446D01*
X108151702Y-82814038D01*
X151712287Y-83017592D01*
G37*
X151712287Y-83017592D02*
X151601467Y-83183446D01*
X151312377Y-83881372D01*
X151165000Y-84622285D01*
X151165000Y-85377715D01*
X151312377Y-86118628D01*
X151601467Y-86816554D01*
X152021161Y-87444670D01*
X152555330Y-87978839D01*
X153183446Y-88398533D01*
X153881372Y-88687623D01*
X154622285Y-88835000D01*
X155377715Y-88835000D01*
X156118628Y-88687623D01*
X156816554Y-88398533D01*
X157023000Y-88260590D01*
X157023000Y-90498803D01*
X156934443Y-90285008D01*
X156799287Y-90082733D01*
X156627267Y-89910713D01*
X156424992Y-89775557D01*
X156200236Y-89682460D01*
X155961637Y-89635000D01*
X155718363Y-89635000D01*
X155479764Y-89682460D01*
X155255008Y-89775557D01*
X155052733Y-89910713D01*
X154880713Y-90082733D01*
X154745557Y-90285008D01*
X154652460Y-90509764D01*
X154605000Y-90748363D01*
X154605000Y-90991637D01*
X154652460Y-91230236D01*
X154745557Y-91454992D01*
X154880713Y-91657267D01*
X155052733Y-91829287D01*
X155255008Y-91964443D01*
X155479764Y-92057540D01*
X155718363Y-92105000D01*
X155961637Y-92105000D01*
X156200236Y-92057540D01*
X156424992Y-91964443D01*
X156627267Y-91829287D01*
X156799287Y-91657267D01*
X156934443Y-91454992D01*
X157023000Y-91241197D01*
X157023000Y-100498803D01*
X156934443Y-100285008D01*
X156799287Y-100082733D01*
X156627267Y-99910713D01*
X156424992Y-99775557D01*
X156200236Y-99682460D01*
X155961637Y-99635000D01*
X155718363Y-99635000D01*
X155479764Y-99682460D01*
X155255008Y-99775557D01*
X155052733Y-99910713D01*
X154880713Y-100082733D01*
X154745557Y-100285008D01*
X154652460Y-100509764D01*
X154605000Y-100748363D01*
X154605000Y-100991637D01*
X154652460Y-101230236D01*
X154745557Y-101454992D01*
X154880713Y-101657267D01*
X155052733Y-101829287D01*
X155255008Y-101964443D01*
X155479764Y-102057540D01*
X155718363Y-102105000D01*
X155961637Y-102105000D01*
X156200236Y-102057540D01*
X156424992Y-101964443D01*
X156627267Y-101829287D01*
X156799287Y-101657267D01*
X156934443Y-101454992D01*
X157023000Y-101241197D01*
X157023000Y-111739410D01*
X156816554Y-111601467D01*
X156118628Y-111312377D01*
X155377715Y-111165000D01*
X154622285Y-111165000D01*
X153881372Y-111312377D01*
X153183446Y-111601467D01*
X152555330Y-112021161D01*
X152021161Y-112555330D01*
X151601467Y-113183446D01*
X151312377Y-113881372D01*
X151165000Y-114622285D01*
X151165000Y-115377715D01*
X151312377Y-116118628D01*
X151601467Y-116816554D01*
X151776828Y-117079000D01*
X108223172Y-117079000D01*
X108398533Y-116816554D01*
X108687623Y-116118628D01*
X108835000Y-115377715D01*
X108835000Y-114622285D01*
X108687623Y-113881372D01*
X108398533Y-113183446D01*
X107978839Y-112555330D01*
X107444670Y-112021161D01*
X106816554Y-111601467D01*
X106118628Y-111312377D01*
X105377715Y-111165000D01*
X104622285Y-111165000D01*
X103881372Y-111312377D01*
X103183446Y-111601467D01*
X103134037Y-111634481D01*
X103115240Y-109078000D01*
X111299928Y-109078000D01*
X111299928Y-110602000D01*
X111312188Y-110726482D01*
X111348498Y-110846180D01*
X111407463Y-110956494D01*
X111486815Y-111053185D01*
X111583506Y-111132537D01*
X111693820Y-111191502D01*
X111813518Y-111227812D01*
X111938000Y-111240072D01*
X113462000Y-111240072D01*
X113586482Y-111227812D01*
X113706180Y-111191502D01*
X113816494Y-111132537D01*
X113913185Y-111053185D01*
X113992537Y-110956494D01*
X114051502Y-110846180D01*
X114087812Y-110726482D01*
X114100072Y-110602000D01*
X114100072Y-109078000D01*
X114087812Y-108953518D01*
X114051502Y-108833820D01*
X113992537Y-108723506D01*
X113913185Y-108626815D01*
X113816494Y-108547463D01*
X113706180Y-108488498D01*
X113586482Y-108452188D01*
X113462000Y-108439928D01*
X113437317Y-108439928D01*
X113485960Y-108265565D01*
X112700000Y-107479605D01*
X111914040Y-108265565D01*
X111962683Y-108439928D01*
X111938000Y-108439928D01*
X111813518Y-108452188D01*
X111693820Y-108488498D01*
X111583506Y-108547463D01*
X111486815Y-108626815D01*
X111407463Y-108723506D01*
X111348498Y-108833820D01*
X111312188Y-108953518D01*
X111299928Y-109078000D01*
X103115240Y-109078000D01*
X103102696Y-107372017D01*
X111298090Y-107372017D01*
X111339078Y-107644133D01*
X111432364Y-107903023D01*
X111494344Y-108018980D01*
X111734435Y-108085960D01*
X112520395Y-107300000D01*
X112879605Y-107300000D01*
X113665565Y-108085960D01*
X113905656Y-108018980D01*
X114022756Y-107769952D01*
X114089023Y-107502865D01*
X114101910Y-107227983D01*
X114060922Y-106955867D01*
X113967636Y-106696977D01*
X113905656Y-106581020D01*
X113665565Y-106514040D01*
X112879605Y-107300000D01*
X112520395Y-107300000D01*
X111734435Y-106514040D01*
X111494344Y-106581020D01*
X111377244Y-106830048D01*
X111310977Y-107097135D01*
X111298090Y-107372017D01*
X103102696Y-107372017D01*
X103095067Y-106334435D01*
X111914040Y-106334435D01*
X112700000Y-107120395D01*
X113485960Y-106334435D01*
X113418980Y-106094344D01*
X113169952Y-105977244D01*
X112902865Y-105910977D01*
X112627983Y-105898090D01*
X112355867Y-105939078D01*
X112096977Y-106032364D01*
X111981020Y-106094344D01*
X111914040Y-106334435D01*
X103095067Y-106334435D01*
X103072669Y-103288363D01*
X103885000Y-103288363D01*
X103885000Y-103531637D01*
X103932460Y-103770236D01*
X104025557Y-103994992D01*
X104160713Y-104197267D01*
X104332733Y-104369287D01*
X104535008Y-104504443D01*
X104759764Y-104597540D01*
X104998363Y-104645000D01*
X105241637Y-104645000D01*
X105480236Y-104597540D01*
X105704992Y-104504443D01*
X105907267Y-104369287D01*
X106079287Y-104197267D01*
X106214443Y-103994992D01*
X106307540Y-103770236D01*
X106355000Y-103531637D01*
X106355000Y-103288363D01*
X106385000Y-103288363D01*
X106385000Y-103531637D01*
X106432460Y-103770236D01*
X106525557Y-103994992D01*
X106660713Y-104197267D01*
X106832733Y-104369287D01*
X107035008Y-104504443D01*
X107259764Y-104597540D01*
X107498363Y-104645000D01*
X107741637Y-104645000D01*
X107980236Y-104597540D01*
X108204992Y-104504443D01*
X108407267Y-104369287D01*
X108579287Y-104197267D01*
X108714443Y-103994992D01*
X108807540Y-103770236D01*
X108855000Y-103531637D01*
X108855000Y-103288363D01*
X108807540Y-103049764D01*
X108714443Y-102825008D01*
X108579287Y-102622733D01*
X108407267Y-102450713D01*
X108204992Y-102315557D01*
X107980236Y-102222460D01*
X107741637Y-102175000D01*
X107498363Y-102175000D01*
X107259764Y-102222460D01*
X107035008Y-102315557D01*
X106832733Y-102450713D01*
X106660713Y-102622733D01*
X106525557Y-102825008D01*
X106432460Y-103049764D01*
X106385000Y-103288363D01*
X106355000Y-103288363D01*
X106307540Y-103049764D01*
X106214443Y-102825008D01*
X106079287Y-102622733D01*
X105907267Y-102450713D01*
X105704992Y-102315557D01*
X105480236Y-102222460D01*
X105241637Y-102175000D01*
X104998363Y-102175000D01*
X104759764Y-102222460D01*
X104535008Y-102315557D01*
X104332733Y-102450713D01*
X104160713Y-102622733D01*
X104025557Y-102825008D01*
X103932460Y-103049764D01*
X103885000Y-103288363D01*
X103072669Y-103288363D01*
X103045991Y-99660000D01*
X106231928Y-99660000D01*
X106244188Y-99784482D01*
X106280498Y-99904180D01*
X106339463Y-100014494D01*
X106418815Y-100111185D01*
X106515506Y-100190537D01*
X106625820Y-100249502D01*
X106745518Y-100285812D01*
X106870000Y-100298072D01*
X107334250Y-100295000D01*
X107493000Y-100136250D01*
X107493000Y-98537000D01*
X107747000Y-98537000D01*
X107747000Y-100136250D01*
X107905750Y-100295000D01*
X108370000Y-100298072D01*
X108494482Y-100285812D01*
X108614180Y-100249502D01*
X108724494Y-100190537D01*
X108821185Y-100111185D01*
X108900537Y-100014494D01*
X108959502Y-99904180D01*
X108995812Y-99784482D01*
X109008072Y-99660000D01*
X109005000Y-98695750D01*
X108846250Y-98537000D01*
X107747000Y-98537000D01*
X107493000Y-98537000D01*
X106393750Y-98537000D01*
X106235000Y-98695750D01*
X106231928Y-99660000D01*
X103045991Y-99660000D01*
X103027609Y-97160000D01*
X106231928Y-97160000D01*
X106235000Y-98124250D01*
X106393750Y-98283000D01*
X107493000Y-98283000D01*
X107493000Y-96683750D01*
X107747000Y-96683750D01*
X107747000Y-98283000D01*
X108846250Y-98283000D01*
X109005000Y-98124250D01*
X109008072Y-97160000D01*
X108995812Y-97035518D01*
X108959502Y-96915820D01*
X108900537Y-96805506D01*
X108821185Y-96708815D01*
X108724494Y-96629463D01*
X108614180Y-96570498D01*
X108494482Y-96534188D01*
X108370000Y-96521928D01*
X107905750Y-96525000D01*
X107747000Y-96683750D01*
X107493000Y-96683750D01*
X107334250Y-96525000D01*
X106870000Y-96521928D01*
X106745518Y-96534188D01*
X106625820Y-96570498D01*
X106515506Y-96629463D01*
X106418815Y-96708815D01*
X106339463Y-96805506D01*
X106280498Y-96915820D01*
X106244188Y-97035518D01*
X106231928Y-97160000D01*
X103027609Y-97160000D01*
X102999140Y-93288363D01*
X103885000Y-93288363D01*
X103885000Y-93531637D01*
X103932460Y-93770236D01*
X104025557Y-93994992D01*
X104160713Y-94197267D01*
X104332733Y-94369287D01*
X104535008Y-94504443D01*
X104759764Y-94597540D01*
X104998363Y-94645000D01*
X105241637Y-94645000D01*
X105480236Y-94597540D01*
X105704992Y-94504443D01*
X105907267Y-94369287D01*
X106079287Y-94197267D01*
X106214443Y-93994992D01*
X106307540Y-93770236D01*
X106355000Y-93531637D01*
X106355000Y-93288363D01*
X106385000Y-93288363D01*
X106385000Y-93531637D01*
X106432460Y-93770236D01*
X106525557Y-93994992D01*
X106660713Y-94197267D01*
X106832733Y-94369287D01*
X107035008Y-94504443D01*
X107259764Y-94597540D01*
X107498363Y-94645000D01*
X107741637Y-94645000D01*
X107980236Y-94597540D01*
X108204992Y-94504443D01*
X108407267Y-94369287D01*
X108579287Y-94197267D01*
X108714443Y-93994992D01*
X108807540Y-93770236D01*
X108855000Y-93531637D01*
X108855000Y-93288363D01*
X108807540Y-93049764D01*
X108801425Y-93035000D01*
X110731928Y-93035000D01*
X110731928Y-93785000D01*
X110751394Y-93982641D01*
X110809044Y-94172686D01*
X110902661Y-94347833D01*
X111028650Y-94501350D01*
X111182167Y-94627339D01*
X111243272Y-94660000D01*
X111182167Y-94692661D01*
X111028650Y-94818650D01*
X110902661Y-94972167D01*
X110809044Y-95147314D01*
X110751394Y-95337359D01*
X110731928Y-95535000D01*
X110731928Y-96285000D01*
X110751394Y-96482641D01*
X110809044Y-96672686D01*
X110902661Y-96847833D01*
X111028650Y-97001350D01*
X111182167Y-97127339D01*
X111357314Y-97220956D01*
X111547359Y-97278606D01*
X111745000Y-97298072D01*
X112077221Y-97298072D01*
X112035008Y-97315557D01*
X111832733Y-97450713D01*
X111660713Y-97622733D01*
X111525557Y-97825008D01*
X111432460Y-98049764D01*
X111385000Y-98288363D01*
X111385000Y-98531637D01*
X111432460Y-98770236D01*
X111525557Y-98994992D01*
X111660713Y-99197267D01*
X111832733Y-99369287D01*
X112035008Y-99504443D01*
X112077221Y-99521928D01*
X111745000Y-99521928D01*
X111547359Y-99541394D01*
X111357314Y-99599044D01*
X111182167Y-99692661D01*
X111028650Y-99818650D01*
X110902661Y-99972167D01*
X110809044Y-100147314D01*
X110751394Y-100337359D01*
X110731928Y-100535000D01*
X110731928Y-101285000D01*
X110751394Y-101482641D01*
X110809044Y-101672686D01*
X110902661Y-101847833D01*
X111028650Y-102001350D01*
X111182167Y-102127339D01*
X111243272Y-102160000D01*
X111182167Y-102192661D01*
X111028650Y-102318650D01*
X110902661Y-102472167D01*
X110809044Y-102647314D01*
X110751394Y-102837359D01*
X110731928Y-103035000D01*
X110731928Y-103785000D01*
X110751394Y-103982641D01*
X110809044Y-104172686D01*
X110902661Y-104347833D01*
X111028650Y-104501350D01*
X111182167Y-104627339D01*
X111357314Y-104720956D01*
X111547359Y-104778606D01*
X111745000Y-104798072D01*
X113495000Y-104798072D01*
X113692641Y-104778606D01*
X113882686Y-104720956D01*
X114057833Y-104627339D01*
X114211350Y-104501350D01*
X114337339Y-104347833D01*
X114430956Y-104172686D01*
X114488606Y-103982641D01*
X114508072Y-103785000D01*
X114508072Y-103560512D01*
X119419783Y-103560512D01*
X119461213Y-103840130D01*
X119556397Y-104106292D01*
X119623329Y-104231514D01*
X119867298Y-104303097D01*
X120680395Y-103490000D01*
X119867298Y-102676903D01*
X119623329Y-102748486D01*
X119502429Y-103003996D01*
X119433700Y-103278184D01*
X119419783Y-103560512D01*
X114508072Y-103560512D01*
X114508072Y-103035000D01*
X114488606Y-102837359D01*
X114430956Y-102647314D01*
X114350772Y-102497298D01*
X120046903Y-102497298D01*
X120860000Y-103310395D01*
X120874143Y-103296253D01*
X121053748Y-103475858D01*
X121039605Y-103490000D01*
X121053748Y-103504143D01*
X120874143Y-103683748D01*
X120860000Y-103669605D01*
X120046903Y-104482702D01*
X120118486Y-104726671D01*
X120373996Y-104847571D01*
X120648184Y-104916300D01*
X120930512Y-104930217D01*
X121210130Y-104888787D01*
X121476292Y-104793603D01*
X121598309Y-104728384D01*
X121608815Y-104741185D01*
X121705506Y-104820537D01*
X121815820Y-104879502D01*
X121935518Y-104915812D01*
X122060000Y-104928072D01*
X123660000Y-104928072D01*
X123784482Y-104915812D01*
X123904180Y-104879502D01*
X124014494Y-104820537D01*
X124111185Y-104741185D01*
X124190537Y-104644494D01*
X124249502Y-104534180D01*
X124285812Y-104414482D01*
X124298072Y-104290000D01*
X124298072Y-102690000D01*
X124285812Y-102565518D01*
X124249502Y-102445820D01*
X124190537Y-102335506D01*
X124111185Y-102238815D01*
X124014494Y-102159463D01*
X123904180Y-102100498D01*
X123784482Y-102064188D01*
X123660000Y-102051928D01*
X122060000Y-102051928D01*
X121935518Y-102064188D01*
X121815820Y-102100498D01*
X121705506Y-102159463D01*
X121608815Y-102238815D01*
X121598193Y-102251758D01*
X121346004Y-102132429D01*
X121071816Y-102063700D01*
X120789488Y-102049783D01*
X120509870Y-102091213D01*
X120243708Y-102186397D01*
X120118486Y-102253329D01*
X120046903Y-102497298D01*
X114350772Y-102497298D01*
X114337339Y-102472167D01*
X114211350Y-102318650D01*
X114057833Y-102192661D01*
X113996728Y-102160000D01*
X114057833Y-102127339D01*
X114211350Y-102001350D01*
X114337339Y-101847833D01*
X114430956Y-101672686D01*
X114488606Y-101482641D01*
X114508072Y-101285000D01*
X114508072Y-100535000D01*
X114488606Y-100337359D01*
X114430956Y-100147314D01*
X114337339Y-99972167D01*
X114211350Y-99818650D01*
X114057833Y-99692661D01*
X113882686Y-99599044D01*
X113692641Y-99541394D01*
X113495000Y-99521928D01*
X113162779Y-99521928D01*
X113204992Y-99504443D01*
X113407267Y-99369287D01*
X113579287Y-99197267D01*
X113714443Y-98994992D01*
X113807540Y-98770236D01*
X113855000Y-98531637D01*
X113855000Y-98288363D01*
X113807540Y-98049764D01*
X113714443Y-97825008D01*
X113579287Y-97622733D01*
X113407267Y-97450713D01*
X113204992Y-97315557D01*
X113162779Y-97298072D01*
X113495000Y-97298072D01*
X113692641Y-97278606D01*
X113882686Y-97220956D01*
X114057833Y-97127339D01*
X114211350Y-97001350D01*
X114337339Y-96847833D01*
X114430956Y-96672686D01*
X114488606Y-96482641D01*
X114508072Y-96285000D01*
X114508072Y-95535000D01*
X114488606Y-95337359D01*
X114430956Y-95147314D01*
X114337339Y-94972167D01*
X114211350Y-94818650D01*
X114057833Y-94692661D01*
X113996728Y-94660000D01*
X114057833Y-94627339D01*
X114211350Y-94501350D01*
X114305569Y-94386544D01*
X121505000Y-94386544D01*
X121505000Y-94653456D01*
X121557072Y-94915239D01*
X121659215Y-95161833D01*
X121807503Y-95383762D01*
X121996238Y-95572497D01*
X122218167Y-95720785D01*
X122464761Y-95822928D01*
X122726544Y-95875000D01*
X122993456Y-95875000D01*
X123255239Y-95822928D01*
X123501833Y-95720785D01*
X123723762Y-95572497D01*
X123912497Y-95383762D01*
X124060785Y-95161833D01*
X124162928Y-94915239D01*
X124215000Y-94653456D01*
X124215000Y-94386544D01*
X124162928Y-94124761D01*
X124060785Y-93878167D01*
X123912497Y-93656238D01*
X123723762Y-93467503D01*
X123501833Y-93319215D01*
X123255239Y-93217072D01*
X122993456Y-93165000D01*
X122726544Y-93165000D01*
X122464761Y-93217072D01*
X122218167Y-93319215D01*
X121996238Y-93467503D01*
X121807503Y-93656238D01*
X121659215Y-93878167D01*
X121557072Y-94124761D01*
X121505000Y-94386544D01*
X114305569Y-94386544D01*
X114337339Y-94347833D01*
X114430956Y-94172686D01*
X114488606Y-93982641D01*
X114508072Y-93785000D01*
X114508072Y-93035000D01*
X114488606Y-92837359D01*
X114430956Y-92647314D01*
X114337339Y-92472167D01*
X114211350Y-92318650D01*
X114057833Y-92192661D01*
X113882686Y-92099044D01*
X113692641Y-92041394D01*
X113495000Y-92021928D01*
X111745000Y-92021928D01*
X111547359Y-92041394D01*
X111357314Y-92099044D01*
X111182167Y-92192661D01*
X111028650Y-92318650D01*
X110902661Y-92472167D01*
X110809044Y-92647314D01*
X110751394Y-92837359D01*
X110731928Y-93035000D01*
X108801425Y-93035000D01*
X108714443Y-92825008D01*
X108579287Y-92622733D01*
X108407267Y-92450713D01*
X108204992Y-92315557D01*
X107980236Y-92222460D01*
X107741637Y-92175000D01*
X107498363Y-92175000D01*
X107259764Y-92222460D01*
X107035008Y-92315557D01*
X106832733Y-92450713D01*
X106660713Y-92622733D01*
X106525557Y-92825008D01*
X106432460Y-93049764D01*
X106385000Y-93288363D01*
X106355000Y-93288363D01*
X106307540Y-93049764D01*
X106214443Y-92825008D01*
X106079287Y-92622733D01*
X105907267Y-92450713D01*
X105704992Y-92315557D01*
X105480236Y-92222460D01*
X105241637Y-92175000D01*
X104998363Y-92175000D01*
X104759764Y-92222460D01*
X104535008Y-92315557D01*
X104332733Y-92450713D01*
X104160713Y-92622733D01*
X104025557Y-92825008D01*
X103932460Y-93049764D01*
X103885000Y-93288363D01*
X102999140Y-93288363D01*
X102970450Y-89386544D01*
X118965000Y-89386544D01*
X118965000Y-89653456D01*
X119017072Y-89915239D01*
X119119215Y-90161833D01*
X119267503Y-90383762D01*
X119456238Y-90572497D01*
X119678167Y-90720785D01*
X119924761Y-90822928D01*
X120186544Y-90875000D01*
X120453456Y-90875000D01*
X120715239Y-90822928D01*
X120961833Y-90720785D01*
X121183762Y-90572497D01*
X121300699Y-90455560D01*
X124564045Y-90455560D01*
X124625932Y-90691368D01*
X124867790Y-90804266D01*
X125127027Y-90867811D01*
X125393680Y-90879561D01*
X125657501Y-90839063D01*
X125908353Y-90747875D01*
X126014068Y-90691368D01*
X126075955Y-90455560D01*
X125320000Y-89699605D01*
X124564045Y-90455560D01*
X121300699Y-90455560D01*
X121372497Y-90383762D01*
X121520785Y-90161833D01*
X121622928Y-89915239D01*
X121675000Y-89653456D01*
X121675000Y-89593680D01*
X123960439Y-89593680D01*
X124000937Y-89857501D01*
X124092125Y-90108353D01*
X124148632Y-90214068D01*
X124384440Y-90275955D01*
X125140395Y-89520000D01*
X125499605Y-89520000D01*
X126255560Y-90275955D01*
X126491368Y-90214068D01*
X126604266Y-89972210D01*
X126667811Y-89712973D01*
X126673207Y-89590512D01*
X130849783Y-89590512D01*
X130891213Y-89870130D01*
X130986397Y-90136292D01*
X131053329Y-90261514D01*
X131297298Y-90333097D01*
X132110395Y-89520000D01*
X131297298Y-88706903D01*
X131053329Y-88778486D01*
X130932429Y-89033996D01*
X130863700Y-89308184D01*
X130849783Y-89590512D01*
X126673207Y-89590512D01*
X126679561Y-89446320D01*
X126639063Y-89182499D01*
X126547875Y-88931647D01*
X126491368Y-88825932D01*
X126255560Y-88764045D01*
X125499605Y-89520000D01*
X125140395Y-89520000D01*
X124384440Y-88764045D01*
X124148632Y-88825932D01*
X124035734Y-89067790D01*
X123972189Y-89327027D01*
X123960439Y-89593680D01*
X121675000Y-89593680D01*
X121675000Y-89386544D01*
X121622928Y-89124761D01*
X121520785Y-88878167D01*
X121372497Y-88656238D01*
X121300699Y-88584440D01*
X124564045Y-88584440D01*
X125320000Y-89340395D01*
X126075955Y-88584440D01*
X126060959Y-88527298D01*
X131476903Y-88527298D01*
X132290000Y-89340395D01*
X132304143Y-89326253D01*
X132483748Y-89505858D01*
X132469605Y-89520000D01*
X132483748Y-89534143D01*
X132304143Y-89713748D01*
X132290000Y-89699605D01*
X131476903Y-90512702D01*
X131548486Y-90756671D01*
X131803996Y-90877571D01*
X132078184Y-90946300D01*
X132360512Y-90960217D01*
X132640130Y-90918787D01*
X132906292Y-90823603D01*
X133028309Y-90758384D01*
X133038815Y-90771185D01*
X133135506Y-90850537D01*
X133245820Y-90909502D01*
X133365518Y-90945812D01*
X133490000Y-90958072D01*
X135090000Y-90958072D01*
X135214482Y-90945812D01*
X135334180Y-90909502D01*
X135444494Y-90850537D01*
X135541185Y-90771185D01*
X135620537Y-90674494D01*
X135679502Y-90564180D01*
X135715812Y-90444482D01*
X135728072Y-90320000D01*
X135728072Y-88720000D01*
X137931928Y-88720000D01*
X137931928Y-90320000D01*
X137944188Y-90444482D01*
X137980498Y-90564180D01*
X138039463Y-90674494D01*
X138118815Y-90771185D01*
X138215506Y-90850537D01*
X138325820Y-90909502D01*
X138445518Y-90945812D01*
X138570000Y-90958072D01*
X140170000Y-90958072D01*
X140294482Y-90945812D01*
X140414180Y-90909502D01*
X140524494Y-90850537D01*
X140621185Y-90771185D01*
X140700537Y-90674494D01*
X140759502Y-90564180D01*
X140795812Y-90444482D01*
X140808072Y-90320000D01*
X140808072Y-89378665D01*
X141435000Y-89378665D01*
X141435000Y-89661335D01*
X141490147Y-89938574D01*
X141598320Y-90199727D01*
X141755363Y-90434759D01*
X141955241Y-90634637D01*
X142190273Y-90791680D01*
X142451426Y-90899853D01*
X142728665Y-90955000D01*
X143011335Y-90955000D01*
X143288574Y-90899853D01*
X143549727Y-90791680D01*
X143784759Y-90634637D01*
X143924396Y-90495000D01*
X146451928Y-90495000D01*
X146451928Y-91245000D01*
X146471394Y-91442641D01*
X146529044Y-91632686D01*
X146622661Y-91807833D01*
X146748650Y-91961350D01*
X146902167Y-92087339D01*
X146963272Y-92120000D01*
X146902167Y-92152661D01*
X146748650Y-92278650D01*
X146622661Y-92432167D01*
X146529044Y-92607314D01*
X146471394Y-92797359D01*
X146451928Y-92995000D01*
X146451928Y-93745000D01*
X146471394Y-93942641D01*
X146529044Y-94132686D01*
X146622661Y-94307833D01*
X146748650Y-94461350D01*
X146902167Y-94587339D01*
X147077314Y-94680956D01*
X147267359Y-94738606D01*
X147465000Y-94758072D01*
X147797221Y-94758072D01*
X147755008Y-94775557D01*
X147552733Y-94910713D01*
X147380713Y-95082733D01*
X147245557Y-95285008D01*
X147152460Y-95509764D01*
X147105000Y-95748363D01*
X147105000Y-95991637D01*
X147152460Y-96230236D01*
X147245557Y-96454992D01*
X147380713Y-96657267D01*
X147552733Y-96829287D01*
X147755008Y-96964443D01*
X147797221Y-96981928D01*
X147465000Y-96981928D01*
X147267359Y-97001394D01*
X147077314Y-97059044D01*
X146902167Y-97152661D01*
X146748650Y-97278650D01*
X146622661Y-97432167D01*
X146529044Y-97607314D01*
X146471394Y-97797359D01*
X146451928Y-97995000D01*
X146451928Y-98745000D01*
X146471394Y-98942641D01*
X146529044Y-99132686D01*
X146622661Y-99307833D01*
X146748650Y-99461350D01*
X146902167Y-99587339D01*
X146963272Y-99620000D01*
X146902167Y-99652661D01*
X146748650Y-99778650D01*
X146622661Y-99932167D01*
X146529044Y-100107314D01*
X146471394Y-100297359D01*
X146451928Y-100495000D01*
X146451928Y-101245000D01*
X146471394Y-101442641D01*
X146529044Y-101632686D01*
X146622661Y-101807833D01*
X146748650Y-101961350D01*
X146902167Y-102087339D01*
X147077314Y-102180956D01*
X147267359Y-102238606D01*
X147465000Y-102258072D01*
X149215000Y-102258072D01*
X149412641Y-102238606D01*
X149602686Y-102180956D01*
X149777833Y-102087339D01*
X149931350Y-101961350D01*
X150057339Y-101807833D01*
X150150956Y-101632686D01*
X150208606Y-101442641D01*
X150228072Y-101245000D01*
X150228072Y-100748363D01*
X152105000Y-100748363D01*
X152105000Y-100991637D01*
X152152460Y-101230236D01*
X152245557Y-101454992D01*
X152380713Y-101657267D01*
X152552733Y-101829287D01*
X152755008Y-101964443D01*
X152979764Y-102057540D01*
X153218363Y-102105000D01*
X153461637Y-102105000D01*
X153700236Y-102057540D01*
X153924992Y-101964443D01*
X154127267Y-101829287D01*
X154299287Y-101657267D01*
X154434443Y-101454992D01*
X154527540Y-101230236D01*
X154575000Y-100991637D01*
X154575000Y-100748363D01*
X154527540Y-100509764D01*
X154434443Y-100285008D01*
X154299287Y-100082733D01*
X154127267Y-99910713D01*
X153924992Y-99775557D01*
X153700236Y-99682460D01*
X153461637Y-99635000D01*
X153218363Y-99635000D01*
X152979764Y-99682460D01*
X152755008Y-99775557D01*
X152552733Y-99910713D01*
X152380713Y-100082733D01*
X152245557Y-100285008D01*
X152152460Y-100509764D01*
X152105000Y-100748363D01*
X150228072Y-100748363D01*
X150228072Y-100495000D01*
X150208606Y-100297359D01*
X150150956Y-100107314D01*
X150057339Y-99932167D01*
X149931350Y-99778650D01*
X149777833Y-99652661D01*
X149716728Y-99620000D01*
X149777833Y-99587339D01*
X149931350Y-99461350D01*
X150057339Y-99307833D01*
X150150956Y-99132686D01*
X150208606Y-98942641D01*
X150228072Y-98745000D01*
X150228072Y-97995000D01*
X150208606Y-97797359D01*
X150150956Y-97607314D01*
X150057339Y-97432167D01*
X149931350Y-97278650D01*
X149777833Y-97152661D01*
X149716728Y-97120000D01*
X151951928Y-97120000D01*
X151964188Y-97244482D01*
X152000498Y-97364180D01*
X152059463Y-97474494D01*
X152138815Y-97571185D01*
X152235506Y-97650537D01*
X152345820Y-97709502D01*
X152465518Y-97745812D01*
X152590000Y-97758072D01*
X153054250Y-97755000D01*
X153213000Y-97596250D01*
X153213000Y-95997000D01*
X153467000Y-95997000D01*
X153467000Y-97596250D01*
X153625750Y-97755000D01*
X154090000Y-97758072D01*
X154214482Y-97745812D01*
X154334180Y-97709502D01*
X154444494Y-97650537D01*
X154541185Y-97571185D01*
X154620537Y-97474494D01*
X154679502Y-97364180D01*
X154715812Y-97244482D01*
X154728072Y-97120000D01*
X154725000Y-96155750D01*
X154566250Y-95997000D01*
X153467000Y-95997000D01*
X153213000Y-95997000D01*
X152113750Y-95997000D01*
X151955000Y-96155750D01*
X151951928Y-97120000D01*
X149716728Y-97120000D01*
X149602686Y-97059044D01*
X149412641Y-97001394D01*
X149215000Y-96981928D01*
X148882779Y-96981928D01*
X148924992Y-96964443D01*
X149127267Y-96829287D01*
X149299287Y-96657267D01*
X149434443Y-96454992D01*
X149527540Y-96230236D01*
X149575000Y-95991637D01*
X149575000Y-95748363D01*
X149527540Y-95509764D01*
X149434443Y-95285008D01*
X149299287Y-95082733D01*
X149127267Y-94910713D01*
X148924992Y-94775557D01*
X148882779Y-94758072D01*
X149215000Y-94758072D01*
X149412641Y-94738606D01*
X149602686Y-94680956D01*
X149716727Y-94620000D01*
X151951928Y-94620000D01*
X151955000Y-95584250D01*
X152113750Y-95743000D01*
X153213000Y-95743000D01*
X153213000Y-94143750D01*
X153467000Y-94143750D01*
X153467000Y-95743000D01*
X154566250Y-95743000D01*
X154725000Y-95584250D01*
X154728072Y-94620000D01*
X154715812Y-94495518D01*
X154679502Y-94375820D01*
X154620537Y-94265506D01*
X154541185Y-94168815D01*
X154444494Y-94089463D01*
X154334180Y-94030498D01*
X154214482Y-93994188D01*
X154090000Y-93981928D01*
X153625750Y-93985000D01*
X153467000Y-94143750D01*
X153213000Y-94143750D01*
X153054250Y-93985000D01*
X152590000Y-93981928D01*
X152465518Y-93994188D01*
X152345820Y-94030498D01*
X152235506Y-94089463D01*
X152138815Y-94168815D01*
X152059463Y-94265506D01*
X152000498Y-94375820D01*
X151964188Y-94495518D01*
X151951928Y-94620000D01*
X149716727Y-94620000D01*
X149777833Y-94587339D01*
X149931350Y-94461350D01*
X150057339Y-94307833D01*
X150150956Y-94132686D01*
X150208606Y-93942641D01*
X150228072Y-93745000D01*
X150228072Y-92995000D01*
X150208606Y-92797359D01*
X150150956Y-92607314D01*
X150057339Y-92432167D01*
X149931350Y-92278650D01*
X149777833Y-92152661D01*
X149716728Y-92120000D01*
X149777833Y-92087339D01*
X149931350Y-91961350D01*
X150057339Y-91807833D01*
X150150956Y-91632686D01*
X150208606Y-91442641D01*
X150228072Y-91245000D01*
X150228072Y-90748363D01*
X152105000Y-90748363D01*
X152105000Y-90991637D01*
X152152460Y-91230236D01*
X152245557Y-91454992D01*
X152380713Y-91657267D01*
X152552733Y-91829287D01*
X152755008Y-91964443D01*
X152979764Y-92057540D01*
X153218363Y-92105000D01*
X153461637Y-92105000D01*
X153700236Y-92057540D01*
X153924992Y-91964443D01*
X154127267Y-91829287D01*
X154299287Y-91657267D01*
X154434443Y-91454992D01*
X154527540Y-91230236D01*
X154575000Y-90991637D01*
X154575000Y-90748363D01*
X154527540Y-90509764D01*
X154434443Y-90285008D01*
X154299287Y-90082733D01*
X154127267Y-89910713D01*
X153924992Y-89775557D01*
X153700236Y-89682460D01*
X153461637Y-89635000D01*
X153218363Y-89635000D01*
X152979764Y-89682460D01*
X152755008Y-89775557D01*
X152552733Y-89910713D01*
X152380713Y-90082733D01*
X152245557Y-90285008D01*
X152152460Y-90509764D01*
X152105000Y-90748363D01*
X150228072Y-90748363D01*
X150228072Y-90495000D01*
X150208606Y-90297359D01*
X150150956Y-90107314D01*
X150057339Y-89932167D01*
X149931350Y-89778650D01*
X149777833Y-89652661D01*
X149602686Y-89559044D01*
X149412641Y-89501394D01*
X149215000Y-89481928D01*
X147465000Y-89481928D01*
X147267359Y-89501394D01*
X147077314Y-89559044D01*
X146902167Y-89652661D01*
X146748650Y-89778650D01*
X146622661Y-89932167D01*
X146529044Y-90107314D01*
X146471394Y-90297359D01*
X146451928Y-90495000D01*
X143924396Y-90495000D01*
X143984637Y-90434759D01*
X144141680Y-90199727D01*
X144249853Y-89938574D01*
X144305000Y-89661335D01*
X144305000Y-89378665D01*
X144249853Y-89101426D01*
X144141680Y-88840273D01*
X143984637Y-88605241D01*
X143784759Y-88405363D01*
X143549727Y-88248320D01*
X143288574Y-88140147D01*
X143011335Y-88085000D01*
X142728665Y-88085000D01*
X142451426Y-88140147D01*
X142190273Y-88248320D01*
X141955241Y-88405363D01*
X141755363Y-88605241D01*
X141598320Y-88840273D01*
X141490147Y-89101426D01*
X141435000Y-89378665D01*
X140808072Y-89378665D01*
X140808072Y-88720000D01*
X140795812Y-88595518D01*
X140759502Y-88475820D01*
X140700537Y-88365506D01*
X140621185Y-88268815D01*
X140524494Y-88189463D01*
X140414180Y-88130498D01*
X140294482Y-88094188D01*
X140170000Y-88081928D01*
X138570000Y-88081928D01*
X138445518Y-88094188D01*
X138325820Y-88130498D01*
X138215506Y-88189463D01*
X138118815Y-88268815D01*
X138039463Y-88365506D01*
X137980498Y-88475820D01*
X137944188Y-88595518D01*
X137931928Y-88720000D01*
X135728072Y-88720000D01*
X135715812Y-88595518D01*
X135679502Y-88475820D01*
X135620537Y-88365506D01*
X135541185Y-88268815D01*
X135444494Y-88189463D01*
X135334180Y-88130498D01*
X135214482Y-88094188D01*
X135090000Y-88081928D01*
X133490000Y-88081928D01*
X133365518Y-88094188D01*
X133245820Y-88130498D01*
X133135506Y-88189463D01*
X133038815Y-88268815D01*
X133028193Y-88281758D01*
X132776004Y-88162429D01*
X132501816Y-88093700D01*
X132219488Y-88079783D01*
X131939870Y-88121213D01*
X131673708Y-88216397D01*
X131548486Y-88283329D01*
X131476903Y-88527298D01*
X126060959Y-88527298D01*
X126014068Y-88348632D01*
X125772210Y-88235734D01*
X125512973Y-88172189D01*
X125246320Y-88160439D01*
X124982499Y-88200937D01*
X124731647Y-88292125D01*
X124625932Y-88348632D01*
X124564045Y-88584440D01*
X121300699Y-88584440D01*
X121183762Y-88467503D01*
X120961833Y-88319215D01*
X120715239Y-88217072D01*
X120453456Y-88165000D01*
X120186544Y-88165000D01*
X119924761Y-88217072D01*
X119678167Y-88319215D01*
X119456238Y-88467503D01*
X119267503Y-88656238D01*
X119119215Y-88878167D01*
X119017072Y-89124761D01*
X118965000Y-89386544D01*
X102970450Y-89386544D01*
X102962097Y-88250632D01*
X103183446Y-88398533D01*
X103881372Y-88687623D01*
X104622285Y-88835000D01*
X105377715Y-88835000D01*
X106118628Y-88687623D01*
X106816554Y-88398533D01*
X107444670Y-87978839D01*
X107978839Y-87444670D01*
X108398533Y-86816554D01*
X108687623Y-86118628D01*
X108835000Y-85377715D01*
X108835000Y-84622285D01*
X108687623Y-83881372D01*
X108398533Y-83183446D01*
X108151702Y-82814038D01*
X151712287Y-83017592D01*
M02*
