G04 #@! TF.GenerationSoftware,KiCad,Pcbnew,(5.1.5-0-10_14)*
G04 #@! TF.CreationDate,2020-02-11T13:30:23+00:00*
G04 #@! TF.ProjectId,K1889054_A2000_01,4b313838-3930-4353-945f-41323030305f,1.0*
G04 #@! TF.SameCoordinates,Original*
G04 #@! TF.FileFunction,Other,User*
%FSLAX46Y46*%
G04 Gerber Fmt 4.6, Leading zero omitted, Abs format (unit mm)*
G04 Created by KiCad (PCBNEW (5.1.5-0-10_14)) date 2020-02-11 13:30:23*
%MOMM*%
%LPD*%
G04 APERTURE LIST*
%ADD10C,0.050000*%
%ADD11C,0.120000*%
G04 APERTURE END LIST*
D10*
X129050000Y-107190000D02*
X134450000Y-107190000D01*
X134450000Y-107190000D02*
X134450000Y-99790000D01*
X134450000Y-99790000D02*
X129050000Y-99790000D01*
X129050000Y-99790000D02*
X129050000Y-107190000D01*
D11*
X104114800Y-104404400D02*
X104140200Y-92441000D01*
X115062200Y-104429800D02*
X104114800Y-104404400D01*
X115011400Y-92415600D02*
X115062200Y-104429800D01*
X104140200Y-92415600D02*
X115011400Y-92415600D01*
D10*
X145370000Y-89520000D02*
G75*
G03X145370000Y-89520000I-4250000J0D01*
G01*
X127880000Y-87160000D02*
X117840000Y-87160000D01*
X117840000Y-87160000D02*
X117840000Y-97190000D01*
X117840000Y-97190000D02*
X127880000Y-97190000D01*
X127880000Y-97190000D02*
X127880000Y-87160000D01*
X138490000Y-111260000D02*
X143050000Y-111260000D01*
X138490000Y-113500000D02*
X138490000Y-111260000D01*
X143050000Y-113500000D02*
X138490000Y-113500000D01*
X143050000Y-111260000D02*
X143050000Y-113500000D01*
X143050000Y-109690000D02*
X138490000Y-109690000D01*
X143050000Y-107450000D02*
X143050000Y-109690000D01*
X138490000Y-107450000D02*
X143050000Y-107450000D01*
X138490000Y-109690000D02*
X138490000Y-107450000D01*
D11*
X156845200Y-89875600D02*
X156819800Y-101839000D01*
X145897800Y-89850200D02*
X156845200Y-89875600D01*
X145948600Y-101864400D02*
X145897800Y-89850200D01*
X156819800Y-101864400D02*
X145948600Y-101864400D01*
D10*
X125290000Y-113480000D02*
X125290000Y-111280000D01*
X130590000Y-113480000D02*
X125290000Y-113480000D01*
X130590000Y-111280000D02*
X130590000Y-113480000D01*
X125290000Y-111280000D02*
X130590000Y-111280000D01*
X118460000Y-113480000D02*
X118460000Y-111280000D01*
X123760000Y-113480000D02*
X118460000Y-113480000D01*
X123760000Y-111280000D02*
X123760000Y-113480000D01*
X118460000Y-111280000D02*
X123760000Y-111280000D01*
X137840000Y-113500000D02*
X133280000Y-113500000D01*
X137840000Y-111260000D02*
X137840000Y-113500000D01*
X133280000Y-111260000D02*
X137840000Y-111260000D01*
X133280000Y-113500000D02*
X133280000Y-111260000D01*
X136040000Y-89520000D02*
G75*
G03X136040000Y-89520000I-2750000J0D01*
G01*
X138490000Y-102370000D02*
X143050000Y-102370000D01*
X138490000Y-104610000D02*
X138490000Y-102370000D01*
X143050000Y-104610000D02*
X138490000Y-104610000D01*
X143050000Y-102370000D02*
X143050000Y-104610000D01*
X124610000Y-103490000D02*
G75*
G03X124610000Y-103490000I-2750000J0D01*
G01*
X111820000Y-88400000D02*
X116380000Y-88400000D01*
X111820000Y-90640000D02*
X111820000Y-88400000D01*
X116380000Y-90640000D02*
X111820000Y-90640000D01*
X116380000Y-88400000D02*
X116380000Y-90640000D01*
X158450000Y-85000000D02*
G75*
G03X158450000Y-85000000I-3450000J0D01*
G01*
X108450000Y-85000000D02*
G75*
G03X108450000Y-85000000I-3450000J0D01*
G01*
X158450000Y-115000000D02*
G75*
G03X158450000Y-115000000I-3450000J0D01*
G01*
X108450000Y-115000000D02*
G75*
G03X108450000Y-115000000I-3450000J0D01*
G01*
M02*
